<?xml version="1.0" standalone="no"?>
<!DOCTYPE svg PUBLIC "-//W3C//DTD SVG 1.1//EN" "http://www.w3.org/Graphics/SVG/1.1/DTD/svg11.dtd" >
<svg xmlns="http://www.w3.org/2000/svg" xmlns:xlink="http://www.w3.org/1999/xlink" version="1.1">
<metadata></metadata>
<defs>
<font id="fregatbold_italic" horiz-adv-x="1060" >
<font-face units-per-em="2048" ascent="1638" descent="-410" />
<missing-glyph horiz-adv-x="675" />
<glyph horiz-adv-x="0" />
<glyph horiz-adv-x="682" />
<glyph unicode=" "  horiz-adv-x="675" />
<glyph unicode="&#x09;" horiz-adv-x="675" />
<glyph unicode="&#xa0;" horiz-adv-x="675" />
<glyph unicode="!" horiz-adv-x="538" d="M35.5 45.5q-3.5 33.5 3.5 79.5q13 72 51.5 107.5t124.5 35.5q87 0 111.5 -35.5t11.5 -107.5q-13 -75 -51.5 -113.5t-124.5 -38.5q-61 0 -92 19.5t-34.5 53zM152 451l90 858q7 68 55 99.5t123 31.5q74 0 110.5 -31.5t20.5 -99.5l-213 -858q-15 -68 -105 -68 q-43 0 -63.5 15t-17.5 53z" />
<glyph unicode="&#x22;" horiz-adv-x="878" d="M180 954l123 373q39 126 189 117q60 -4 88 -32t24.5 -67t-31.5 -85l-192 -332q-43 -81 -131 -78q-50 3 -67 30.5t-3 73.5zM557 954l123 373q39 126 188 117q60 -4 87.5 -32t24.5 -67t-30 -85l-192 -332q-46 -81 -131 -78q-100 6 -70 104z" />
<glyph unicode="#" horiz-adv-x="1243" d="M33.5 442q-9.5 34 9.5 74q40 109 123 109h115l69 192h-117q-84 0 -47 109q41 108 125 108h115l109 305q32 95 151 95q120 0 86 -95l-108 -305h184l108 305q32 95 152 95q117 0 86 -95l-107 -305h115q46 0 55 -34t-10 -74q-37 -109 -123 -109h-114l-70 -192h115 q32 0 47 -16.5t14 -39.5t-12 -53q-37 -108 -123 -108h-115l-118 -332q-31 -94 -152 -94q-51 0 -77 21.5t-9 72.5l117 332h-183l-118 -332q-31 -94 -152 -94q-51 0 -77 21.5t-9 72.5l117 332h-115q-47 0 -56.5 34zM518 625h184l70 192h-184z" />
<glyph unicode="$" horiz-adv-x="1155" d="M-8 354q0 43 31 79t96 44q106 11 112 -82q1 -72 40.5 -119.5t105.5 -68.5l76 430q-37 12 -68.5 24.5t-64.5 29.5t-58 36t-49.5 44t-39 53t-25.5 62.5t-10 74t7 86.5q28 164 155.5 269t295.5 130l8 41q15 94 131 94q51 0 80 -21.5t21 -72.5l-9 -45q139 -27 221 -112 t82 -236q-3 -99 -108 -105q-34 -2 -58 0t-45 16t-24 42q-23 131 -109 172l-65 -379q40 -12 73.5 -25t69 -30t62 -36.5t53.5 -44.5t42 -54t28 -65t11.5 -77.5t-7.5 -91.5q-32 -186 -158 -298.5t-326 -137.5l-12 -64q-15 -96 -133 -96q-49 0 -77.5 22t-20.5 74l12 68 q-75 12 -137 39t-111 71t-75 110.5t-23 149.5zM395 1049q-15 -91 105 -146l57 322q-62 -20 -106 -65.5t-56 -110.5zM608 205q153 45 180 192q20 120 -114 174z" />
<glyph unicode="%" horiz-adv-x="1341" d="M100.5 22.5q-7.5 29.5 18.5 67.5l942 1268q27 42 60.5 59.5t88.5 16.5q51 -2 68 -33.5t-14 -81.5l-942 -1268q-57 -87 -172 -65q-42 7 -49.5 36.5zM145 1116q25 143 109.5 231.5t228.5 88.5q74 0 125.5 -25.5t76 -69t32.5 -102t-6 -123.5q-25 -141 -110.5 -230 t-229.5 -89t-198.5 88.5t-27.5 230.5zM337.5 1070q-1.5 -19 0.5 -45t18 -40t45 -14t50 14t33 40t17.5 44.5t10.5 46.5q3 18 3.5 22t2.5 22.5t1 25.5t-2 22.5t-6 22t-12 15.5t-19 12.5t-27 3.5q-24 0 -43 -10.5t-29.5 -25t-19 -37t-11.5 -37.5t-6 -36q-5 -27 -6.5 -46z M674 299q25 142 110.5 229.5t229.5 87.5q74 0 125 -25t75 -68t31.5 -101t-6.5 -123q-12 -67 -38 -123.5t-66 -101t-100 -69.5t-134 -25q-144 0 -198 88.5t-29 230.5zM865.5 252q-1.5 -20 1.5 -45t19.5 -39t45.5 -14q23 0 41.5 10.5t29 23.5t19 37t11.5 37t7 37q5 27 6.5 46 t-0.5 45t-18 40t-45 14q-24 0 -43 -11t-29.5 -24t-19.5 -37t-12 -37t-7 -36q-5 -27 -6.5 -47z" />
<glyph unicode="&#x26;" horiz-adv-x="1310" d="M43 428q43 247 379 434q-22 72 -31 113q-12 56 -5 112t24.5 107t52 95t78.5 76t103 50.5t126 18.5q73 0 128.5 -17.5t93.5 -54.5t49 -94t-7 -135q-24 -106 -112 -196t-201 -157q54 -118 164 -280q45 89 67 192q12 47 48 71.5t83 18.5q58 -7 82.5 -42.5t10.5 -90.5 q-43 -177 -156 -340q21 -28 72 -93t77 -101q24 -30 16.5 -56t-32.5 -44t-63 -29q-113 -36 -164 30l-82 105q-177 -139 -389 -139q-209 -2 -327.5 119t-84.5 327zM315 428q-17 -99 35 -162t154 -63q115 0 219 88q-140 203 -219 373q-166 -101 -189 -236zM624 1134 q-5 -41 0.5 -82.5t20.5 -68.5q141 92 146 178q2 30 -13.5 50.5t-44.5 21.5q-47 1 -75.5 -28.5t-33.5 -70.5z" />
<glyph unicode="'" horiz-adv-x="501" d="M180 954l121 373q42 126 188 117q61 -4 89 -32t25 -67t-30 -85l-192 -332q-46 -81 -133 -78q-98 6 -68 104z" />
<glyph unicode="(" horiz-adv-x="565" d="M61 528q80 460 449 867q27 27 69 32.5t72 -8.5q76 -34 6 -123q-269 -344 -342 -768q-74 -428 72 -768q38 -89 -51 -122q-34 -14 -74 -8.5t-59 32.5q-229 369 -142 866z" />
<glyph unicode=")" horiz-adv-x="565" d="M-111 -240q264 342 338 768q75 433 -69 768q-39 92 49 123q36 15 75.5 9.5t57.5 -33.5q113 -182 149.5 -409t-6.5 -458q-42 -240 -156 -462t-294 -404q-26 -28 -67 -33.5t-72 9.5q-76 31 -5 122z" />
<glyph unicode="*" horiz-adv-x="1001" d="M161 1040.5q-11 49.5 23 104.5q31 48 72.5 65t83.5 -4l160 -82l10 191q3 53 41.5 88t95.5 35q59 0 87.5 -34.5t13.5 -88.5l-60 -191l186 80q59 23 97.5 3t46.5 -72q8 -56 -22.5 -101t-88.5 -55l-190 -35l102 -137q32 -43 17.5 -90.5t-68.5 -79.5q-49 -32 -97 -25.5 t-67 56.5l-63 166l-119 -168q-36 -49 -86.5 -56.5t-89.5 27.5q-42 33 -39.5 81t49.5 89l154 137l-181 37q-57 10 -68 59.5z" />
<glyph unicode="+" horiz-adv-x="1161" d="M94 709q7 49 30.5 81.5t65.5 32.5h318l57 316q13 80 125 80q50 0 80 -18.5t23 -61.5l-58 -316h316q77 0 61 -114q-21 -113 -100 -113h-316l-57 -317q-13 -80 -127 -80q-48 0 -77.5 19t-22.5 61l57 317h-317q-42 0 -54.5 32.5t-3.5 80.5z" />
<glyph unicode="," horiz-adv-x="563" d="M-45 -201l123 373q42 126 188 117q61 -4 89 -32t24.5 -67.5t-31.5 -85.5l-190 -331q-26 -43 -56.5 -62t-76.5 -16q-48 3 -66 31t-4 73z" />
<glyph unicode="-" horiz-adv-x="716" d="M63 535q7 49 31 81.5t66 32.5h415q78 0 62 -114q-21 -113 -100 -113h-416q-42 0 -54.5 32.5t-3.5 80.5z" />
<glyph unicode="." horiz-adv-x="575" d="M53 135q13 77 53 115.5t127 38.5q89 0 115.5 -38.5t13.5 -115.5q-13 -79 -54 -120.5t-130 -41.5q-90 0 -114.5 40.5t-10.5 121.5z" />
<glyph unicode="/" horiz-adv-x="1017" d="M-143.5 -328q-7.5 30 18.5 70l1045 1612q29 41 63 59t86 17q51 -3 67.5 -34t-12.5 -81l-1048 -1612q-57 -90 -172 -68q-40 7 -47.5 37z" />
<glyph unicode="0" horiz-adv-x="1323" d="M88 537.5q0 86.5 16 175.5q24 136 80 262t142.5 232.5t213 170.5t273.5 64q100 0 180 -29.5t133 -82t89 -121.5t50.5 -151.5t14.5 -169t-16 -175.5q-24 -136 -80 -262t-142.5 -232.5t-213 -170.5t-273.5 -64q-100 0 -180 29.5t-133 82t-89 121.5t-50.5 151.5t-14.5 169z M370 590.5q-4 -60.5 3.5 -130t30 -121t71.5 -86t121 -34.5q71 0 132 34.5t102 86t73.5 121t50.5 130t29 122.5q11 61 15 122.5t-4.5 130t-31.5 120.5t-72 86t-120 34q-72 0 -133 -34.5t-101.5 -85.5t-72.5 -120.5t-49.5 -130t-28.5 -122.5t-15 -122.5z" />
<glyph unicode="1" horiz-adv-x="763" d="M147 1126q-8 40 8 77.5t56 56.5l303 157q43 25 100 25q55 0 87 -21t24 -73l-223 -1264q-17 -94 -144 -94q-56 0 -88 21t-22 73l188 1071q-30 -23 -69 -39l-119 -43q-35 -12 -63.5 3.5t-37.5 49.5z" />
<glyph unicode="2" horiz-adv-x="1085" d="M-35 156q6 38 24.5 72.5t32.5 50t39 40.5q68 65 154 133t139.5 105.5t165.5 114.5q123 83 202 162.5t93 162.5q19 102 -30.5 158.5t-157.5 56.5q-79 0 -142.5 -44t-97.5 -128q-20 -51 -65 -72t-97 -14q-52 5 -72.5 29.5t-11.5 77.5q29 123 112.5 214t191 134t225.5 43 q105 0 189.5 -26t145 -76.5t85.5 -133t6 -188.5q-11 -63 -36.5 -120.5t-58 -103.5t-80.5 -93t-92.5 -82.5t-105.5 -79.5q-43 -31 -126.5 -87t-148.5 -103t-116 -91q-5 -4 -7 -9t0.5 -9t10.5 -4h543q83 0 63 -123t-106 -123h-760q-80 0 -104 33t-7 123z" />
<glyph unicode="3" horiz-adv-x="1085" d="M-16 238q-15 54 11 99.5t83 68.5q52 21 96 9t55 -57q26 -77 78 -111t142 -34q105 0 179 67t95 171q12 49 6 85.5t-20.5 63.5t-42 45t-58.5 28.5t-71 14t-78 2.5t-80 -6q-37 -4 -64.5 17.5t-33.5 58.5q-17 73 57 143l231 209q21 21 95 78h-414q-88 0 -68 121 q23 123 111 123h704q49 0 61.5 -35t-1.5 -88q-5 -23 -18.5 -45.5t-23 -32.5t-32.5 -33l-338 -282q-6 -6 -4.5 -15t10.5 -10q190 -6 287 -123.5t63 -298.5q-26 -147 -112.5 -260t-213.5 -173.5t-274 -60.5q-159 2 -270.5 66t-146.5 195z" />
<glyph unicode="4" horiz-adv-x="1155" d="M-8 410q4 34 15 56.5t36 53.5l666 826q49 59 95.5 82.5t113.5 23.5q30 0 54 -3.5t49 -14t36.5 -33t5.5 -55.5l-143 -820h84q79 0 59 -116q-20 -115 -100 -115h-84l-39 -219q-15 -94 -152 -94q-59 0 -93 21t-26 73l39 219h-532q-49 0 -70 27t-14 88zM303 526h346l96 553 q-37 -69 -73 -114l-256 -316q-61 -81 -113 -123z" />
<glyph unicode="5" horiz-adv-x="1122" d="M25 244q-27 102 88 151q121 52 163 -39q34 -77 81 -112t132 -35q105 0 179 71.5t94 176.5q17 91 -15.5 154t-97 89.5t-148 26t-169.5 -30.5q-44 -15 -86.5 -13.5t-73 20t-42.5 53.5t5 88l125 405q34 108 71.5 146.5t123.5 38.5h553q85 0 65 -121q-25 -125 -108 -125h-424 q-22 0 -29.5 -7.5t-17.5 -33.5l-56 -174q-11 -36 1.5 -46.5t47.5 -4.5q107 20 200 15t167.5 -36t122.5 -89t65 -143.5t-4 -199.5q-41 -222 -204.5 -357t-387.5 -135q-104 0 -188 27t-146.5 88t-86.5 152z" />
<glyph unicode="6" horiz-adv-x="1142" d="M70.5 457.5q2.5 78.5 17.5 165.5q53 301 269 537.5t511 303.5q123 27 164 -67q20 -49 -4 -87t-82 -53q-103 -26 -195 -70t-180 -120t-137 -170q110 74 258 74q135 0 228.5 -65.5t130 -176.5t12.5 -248q-37 -212 -205 -356.5t-383 -144.5q-91 0 -161.5 24t-117 68 t-76 102.5t-41 131.5t-9 151.5zM340 469q-12 -65 1 -125.5t57 -102.5t114 -42q111 0 184 81.5t92 194.5q21 121 -20.5 189.5t-157.5 68.5q-108 0 -179.5 -78t-90.5 -186z" />
<glyph unicode="7" horiz-adv-x="966" d="M154 78l575 1073q10 22 5.5 29.5t-23.5 7.5h-478q-85 0 -65 123q24 123 108 123h713q47 0 60.5 -35t3.5 -88q-3 -24 -31 -82l-598 -1151q-24 -47 -73 -70.5t-111 -23.5q-134 0 -86 94z" />
<glyph unicode="8" horiz-adv-x="1193" d="M51 414q25 117 89.5 213.5t170.5 150.5q-114 111 -84 269q22 128 101.5 223t189.5 141.5t234 46.5q92 0 169 -27.5t130 -78.5t75.5 -130t6.5 -175q-29 -152 -179 -269q85 -54 116 -152t11 -212q-25 -141 -113 -243.5t-211.5 -152t-267.5 -49.5q-108 0 -195.5 29t-148 84 t-86 140.5t-8.5 191.5zM334 426q-17 -101 36 -166t158 -65q104 0 182 65.5t95 165.5q18 102 -34.5 172t-158.5 70t-183 -70.5t-95 -171.5zM487 1047q-9 -71 34.5 -117.5t127.5 -46.5q85 0 147 47t74 117q15 85 -29.5 130.5t-129.5 45.5t-146 -45.5t-78 -130.5z" />
<glyph unicode="9" horiz-adv-x="1128" d="M127 956q38 216 197 359t383 143q108 0 187.5 -34t124.5 -91.5t67 -139.5t21 -173t-20 -197q-54 -313 -268 -546.5t-514 -303.5q-54 -18 -95.5 -5t-57.5 73q-26 116 77 147q177 51 299.5 132t200.5 225q-92 -62 -240 -62q-136 1 -227 64t-125 169t-10 240zM391 961 q-20 -119 22.5 -189t153.5 -70q100 0 178 78.5t97 186.5q11 52 5 102t-24.5 89t-57 63t-91.5 24q-112 0 -187 -84.5t-96 -199.5z" />
<glyph unicode=":" horiz-adv-x="575" d="M53 135q13 76 54 115t129 39t113.5 -38.5t12.5 -115.5q-13 -80 -53 -121t-129 -41q-91 0 -116 40.5t-11 121.5zM190 911q13 77 54 116.5t129 39.5t114 -38.5t13 -117.5q-13 -78 -53.5 -119.5t-129.5 -41.5q-91 0 -116 40.5t-11 120.5z" />
<glyph unicode=";" horiz-adv-x="583" d="M-45 -201l123 373q42 126 188 117q61 -4 88.5 -32t24 -67.5t-30.5 -85.5l-190 -331q-26 -43 -56.5 -62t-78.5 -16t-65 30.5t-3 73.5zM186 911q13 77 54 116.5t129 39.5t114 -38.5t13 -117.5q-13 -78 -53.5 -119.5t-129.5 -41.5q-91 0 -116 40.5t-11 120.5z" />
<glyph unicode="&#x3c;" horiz-adv-x="1034" d="M12 537q15 95 129 147l764 338q66 31 97.5 11.5t21.5 -91.5q-9 -54 -27.5 -79.5t-62.5 -45.5l-594 -280l494 -283q34 -20 45.5 -46t1.5 -77q-29 -142 -146 -80l-645 338q-96 52 -78 148z" />
<glyph unicode="=" horiz-adv-x="1161" d="M59 516q9 49 33 82t66 33h862q77 0 57 -115q-21 -113 -98 -113h-862q-42 0 -54.5 32.5t-3.5 80.5zM123 872q20 115 96 115h862q42 0 55.5 -33t4.5 -82q-9 -48 -33 -80t-66 -32h-862q-77 0 -57 112z" />
<glyph unicode="&#x3e;" horiz-adv-x="1034" d="M-6 131q7 51 27 77t61 46l598 283l-498 280q-37 21 -46.5 46t1.5 79q29 142 144 80l645 -338q48 -24 68.5 -59t11.5 -88q-10 -55 -42.5 -89t-89.5 -59l-763 -338q-65 -31 -96 -11.5t-21 91.5z" />
<glyph unicode="?" horiz-adv-x="993" d="M135 1162.5q1 36.5 27 68.5q83 97 202.5 150t247.5 55q193 3 310 -99q68 -60 92 -145t0 -184q-24 -105 -91 -181t-184 -163q-68 -48 -117.5 -98t-93.5 -117q-45 -66 -127 -56q-86 10 -63 88q6 23 15 45t23.5 44.5t24.5 39t31.5 40.5t31 35t36.5 36.5t34 32t37.5 34.5 t34.5 31q118 102 133 199q18 90 -33 142t-143 52q-138 0 -250 -112q-39 -39 -82 -37.5t-73 37.5q-24 26 -23 62.5zM225.5 45.5q-3.5 33.5 3.5 79.5q13 71 52.5 107t124.5 36q86 0 110.5 -35t11.5 -108q-13 -75 -51.5 -113.5t-124.5 -38.5q-61 0 -92 19.5t-34.5 53z" />
<glyph unicode="@" horiz-adv-x="1536" d="M92 705q25 144 104 280t191 239t259 165.5t300 62.5q134 0 249 -51t191 -139t107.5 -213.5t3.5 -266.5q-22 -110 -81.5 -215.5t-147.5 -169.5q-112 -79 -240 -73q-103 7 -127 98q-46 -43 -105 -69t-118 -27q-132 -3 -201.5 85.5t-48.5 225.5q13 85 51.5 163.5t97.5 142 t144.5 102t183.5 38.5h162q59 0 87 -22.5t28 -64.5t-17 -103l-80 -287q-13 -50 10.5 -66.5t80.5 27.5q80 62 110 205q25 130 -15 236.5t-136.5 168.5t-231.5 62q-137 -2 -265.5 -76.5t-215.5 -197t-111 -263.5q-25 -143 22.5 -262.5t157.5 -189.5t259 -70q181 0 376 82 q43 18 74.5 0.5t40.5 -59.5q21 -104 -76 -146q-227 -94 -452 -94q-150 0 -277.5 56t-213 153t-122 236.5t-8.5 296.5zM655.5 605q1.5 -29 19.5 -47t52 -17q119 0 174 200l33 117q3 9 -1 16t-13 7h-50q-67 0 -118 -45t-76 -115q-11 -28 -16.5 -57.5t-4 -58.5z" />
<glyph unicode="A" horiz-adv-x="1236" d="M-63.5 40q-0.5 18 12.5 42l647 1270q26 52 73.5 77t102.5 25q122 0 139 -102l201 -1270q4 -30 -7 -50t-34.5 -29.5t-46.5 -13t-53 -3.5q-60 0 -93.5 18.5t-41.5 77.5l-37 246h-451l-123 -246q-31 -59 -71.5 -77.5t-100.5 -18.5q-23 0 -41.5 2t-37 8t-28 16t-10 28z M469 567h291l-45 299q-13 92 -13 175v22q-34 -102 -81 -197z" />
<glyph unicode="B" horiz-adv-x="1228" d="M61 88q-5 19 -5 41.5t5 50.5l189 1073q10 55 33.5 92.5t56.5 56t66.5 25.5t76.5 7h348q193 0 290 -100q72 -74 72 -199q0 -43 -9 -93q-17 -91 -69.5 -164t-125.5 -114q149 -78 149 -250q0 -39 -8 -82q-35 -194 -172.5 -313t-324.5 -119h-402q-43 0 -74 7t-58.5 25 t-37.5 56zM352 281q-4 -20 3 -27.5t26 -7.5h266q84 0 134 48.5t65 137.5q5 27 5 51q0 135 -163 135h-276zM455 864h247q82 0 131.5 43t63.5 119q4 24 4 44q0 118 -141 118h-213q-19 0 -28.5 -7.5t-12.5 -27.5z" />
<glyph unicode="C" horiz-adv-x="1220" d="M94 717q132 739 715 739q120 0 207.5 -34.5t136.5 -97.5t69 -144q15 -60 15 -130q0 -25 -2 -51q-4 -45 -48.5 -71.5t-101.5 -26.5h-12q-55 0 -84 17q-32 19 -33 71q-5 119 -47.5 173.5t-154.5 54.5q-74 0 -134.5 -31.5t-99 -79t-69 -118t-47 -132.5t-29.5 -139 q-9 -52 -14.5 -97.5t-6.5 -97.5v-16q0 -43 4 -79q6 -42 21.5 -82t40.5 -67t65 -43t93 -16q58 0 104 17.5t80 52.5t56.5 71.5t45.5 88.5q40 85 162 88q120 0 120 -72q0 -21 -11 -49q-25 -69 -61 -130.5t-89 -119t-117 -99t-149.5 -66t-181.5 -24.5q-467 0 -467 492 q0 111 24 248z" />
<glyph unicode="D" horiz-adv-x="1255" d="M57 114.5q0 28.5 4 67.5l189 1071q20 105 80.5 143t152.5 38h283q118 0 207 -38t141 -104q52 -67 82 -158q29 -88 29 -190v-6q-1 -106 -19 -221q-21 -117 -58.5 -221t-97 -196t-135.5 -158t-179 -104t-222 -38h-283q-28 0 -50.5 2.5t-46 10t-38 20t-27 33t-12.5 49z M350 283q-3 -20 4 -27.5t25 -7.5h178q82 0 149 44t110 116.5t70.5 149t41.5 159.5q11 65 14 127q1 14 1 28q0 48 -8 98q-10 64 -33 111t-69 77t-110 30h-178q-36 0 -41 -35z" />
<glyph unicode="E" horiz-adv-x="1054" d="M61 88q-5 19 -5 41.5t5 50.5l189 1073q10 55 33.5 92.5t56.5 56t66.5 25.5t76.5 7h564q68 0 68 -76q0 -21 -5 -47q-20 -123 -106 -123h-457q-19 0 -28.5 -7.5t-12.5 -27.5l-51 -289h415q46 0 60 -35q8 -20 8 -46q0 -19 -4 -42q-20 -123 -107 -123h-415l-60 -337 q-4 -20 3 -27.5t26 -7.5h457q67 0 67 -80q0 -19 -4 -43q-20 -123 -106 -123h-564q-43 0 -74 7t-58.5 25t-37.5 56z" />
<glyph unicode="F" horiz-adv-x="1024" d="M43 78l207 1175q10 55 33.5 92.5t56.5 56t66.5 25.5t76.5 7h553q46 0 60 -35q8 -20 8 -46q0 -19 -4 -42q-20 -123 -107 -123h-446q-36 0 -41 -35l-53 -297h383q69 0 69 -81q0 -19 -4 -42q-24 -123 -108 -123h-383l-95 -532q-15 -96 -151 -96q-59 0 -94 22q-28 18 -28 56 q0 8 1 18z" />
<glyph unicode="G" horiz-adv-x="1273" d="M74 522q2 92 20 197q125 705 703 737q214 0 327.5 -96.5t118.5 -278.5q0 -54 -34 -88.5t-107 -34.5q-83 0 -115 17.5t-35 58.5q-8 92 -53.5 137.5t-144.5 45.5q-53 0 -99.5 -16.5t-81 -44t-64 -68t-49.5 -82.5t-37.5 -94.5t-28 -97t-19.5 -95.5q-8 -45 -12.5 -85 t-6.5 -92q-1 -16 -1 -30q0 -35 4 -66q5 -43 19.5 -86.5t39 -73.5t65.5 -48.5t95 -18.5q67 0 121.5 20t87 49t57 70t35.5 73t18 67q9 38 -0.5 52.5t-44.5 14.5h-158q-65 0 -65 74q0 19 4 43q9 49 33.5 82t68.5 33h291q55 0 90 -12t51.5 -34.5t20.5 -54.5q2 -14 2 -28 q0 -22 -4 -47q-14 -108 -45.5 -202t-85 -175.5t-124.5 -139.5t-169 -91t-215 -33q-103 0 -184.5 26t-136 74.5t-90.5 115t-50 150.5q-13 71 -13 148q0 14 1 28z" />
<glyph unicode="H" horiz-adv-x="1269" d="M43 78l223 1268q18 96 154 96q59 0 93 -22q26 -17 26 -52q0 -10 -2 -22l-86 -490h460l86 490q18 96 154 96q59 0 94 -22q27 -17 27 -52q0 -10 -2 -22l-223 -1268q-15 -96 -154 -96q-59 0 -93 22q-28 18 -28 55q0 9 2 19l94 532h-460l-95 -532q-15 -96 -151 -96 q-59 0 -93 22q-28 18 -28 55q0 9 2 19z" />
<glyph unicode="I" horiz-adv-x="538" d="M43 78l225 1270q15 94 152 94q59 0 94 -22q28 -18 28 -54q0 -8 -1 -18l-226 -1270q-15 -96 -153 -96q-59 0 -93 22q-28 18 -28 55q0 9 2 19z" />
<glyph unicode="J" horiz-adv-x="868" d="M-57 170q18 48 57 74q24 16 49 16q14 0 29 -6q72 -27 145 -27h19q159 2 190 189l166 932q15 94 152 94q59 0 94 -22q28 -17 28 -54q0 -8 -2 -18l-174 -979q-19 -107 -73.5 -188t-129 -125.5t-163.5 -65.5q-68 -15 -136 -15l-40 1q-89 6 -170 34q-58 21 -58 83q0 33 17 77 z" />
<glyph unicode="K" horiz-adv-x="1185" d="M43 76l225 1272q15 94 154 94q59 0 93 -22q28 -17 28 -54q0 -9 -2 -18l-80 -445l454 430q72 69 122 94q34 17 79 17q22 0 47 -4q65 -12 81 -54q4 -11 5 -22q0 -33 -37 -68l-440 -415l309 -777q11 -23 11 -42q0 -26 -20 -42q-34 -30 -101 -32h-18q-65 0 -107 19 q-46 22 -70 79l-231 582l-150 -140l-80 -452q-15 -94 -151 -94q-61 0 -95 21q-28 17 -28 54q0 9 2 19z" />
<glyph unicode="L" horiz-adv-x="960" d="M57 114.5q0 28.5 4 67.5l207 1176q18 94 154 94q59 0 94 -22q27 -17 27 -51q0 -10 -2 -21l-189 -1075q-4 -21 2.5 -28t24.5 -7h405q68 0 68 -82q0 -19 -4 -43q-20 -123 -107 -123h-510q-28 0 -50.5 2.5t-46 10t-38 20t-27 33t-12.5 49z" />
<glyph unicode="M" horiz-adv-x="1439" d="M43 78l223 1268q10 51 51 74.5t97 23.5q76 0 104 -55q12 -23 69.5 -186.5t108.5 -315.5l52 -152q415 603 456 654q47 55 127 55q55 0 87 -23q24 -17 24 -52q0 -11 -2 -23l-223 -1268q-8 -52 -50 -74t-98 -22q-57 0 -91 22q-28 18 -28 55q0 9 2 19l148 829 q-28 -54 -109 -176l-211 -311q-34 -47 -96 -47q-66 0 -82 47l-102 311q-38 127 -45 176l-148 -829q-8 -52 -50.5 -74t-98.5 -22t-90 22q-27 18 -27 55q0 9 2 19z" />
<glyph unicode="N" horiz-adv-x="1318" d="M43 78l225 1270q6 35 32.5 57t57.5 29.5t68 7.5q107 0 133 -68l283 -684q41 -87 63 -184l150 842q15 94 149 94q57 0 91 -22q28 -17 28 -54q0 -9 -2 -18l-225 -1270q-6 -36 -33 -58.5t-58.5 -30t-68.5 -7.5q-107 0 -133 67l-283 684q-40 97 -61 193l-150 -848 q-15 -96 -149 -96q-57 0 -91 22q-28 18 -28 55q0 9 2 19z" />
<glyph unicode="O" horiz-adv-x="1306" d="M94 717q24 135 62 245t97.5 203.5t137 156.5t183 98.5t233.5 35.5t221 -35.5t148 -99t81 -156.5q25 -90 25 -195v-8q-1 -110 -25 -245q-30 -169 -82.5 -299.5t-136.5 -232t-208 -155t-283 -53.5q-477 0 -477 495q0 110 24 245zM352 490q0 -60 14.5 -106t39.5 -84.5 t71.5 -59.5t110.5 -21q76 0 138 31.5t102.5 79t72 117.5t48.5 132.5t30 137.5q11 62 16 115t5 113t-14 106t-39 85t-72 60t-111 21q-77 0 -139.5 -31.5t-102.5 -79t-71.5 -118t-48 -133t-29.5 -138.5q-11 -61 -16 -114q-5 -48 -5 -102v-11z" />
<glyph unicode="P" horiz-adv-x="1179" d="M43 78l207 1175q10 55 33.5 92.5t56.5 56t66.5 25.5t76.5 7h363q186 0 287 -125q76 -94 75 -226q0 -45 -8 -94q-35 -196 -179.5 -322t-332.5 -126h-291l-82 -463q-15 -96 -153 -96q-59 0 -93 22q-28 18 -28 55q0 9 2 19zM440 788h262q82 0 139.5 57.5t73.5 143.5 q4 26 4 49q0 56 -25 95q-36 55 -120 55h-227q-19 0 -28.5 -7.5t-12.5 -27.5z" />
<glyph unicode="Q" horiz-adv-x="1306" d="M94 719q24 134 62 243.5t97.5 203t137 156.5t183 98.5t233.5 35.5q474 0 474 -490q0 -111 -24 -247q-80 -471 -342 -641l113 -182q16 -26 16 -47q0 -22 -17 -39q-33 -32 -114 -43q-23 -3 -43 -3q-37 0 -62 11q-40 17 -63 67l-63 148q-54 -10 -135 -10q-129 0 -222.5 35.5 t-148.5 98.5t-81 157q-26 92 -26 199q0 111 25 249zM353 494.5q0 -59.5 13 -105.5t37 -85t68 -61t104 -24l-12 29q-9 20 -9 36q0 18 12 31q21 25 71 33q19 3 36 3q73 0 105 -52l6 -12q140 115 195 432q9 53 14.5 98t6.5 97v15q0 43 -5 79q-6 42 -22 82t-42 67t-68.5 43.5 t-98.5 16.5q-77 0 -139 -31.5t-102.5 -79t-71.5 -117.5t-48 -132.5t-30 -137.5q-10 -61 -15 -113t-5 -111.5z" />
<glyph unicode="R" horiz-adv-x="1249" d="M43 78l207 1175q20 105 80.5 143t152.5 38h361q189 0 290 -118q76 -89 76 -221q0 -43 -8 -91q-25 -137 -113 -234.5t-202 -138.5q83 -68 121 -213q9 -30 24.5 -95.5t30.5 -114t35 -91.5q10 -22 10 -41q0 -33 -32 -57q-52 -37 -122 -37q-110 0 -141 53q-21 37 -36.5 94.5 t-32 141.5t-27.5 126q-25 87 -68 134t-125 47h-123l-88 -500q-15 -96 -151 -96q-59 0 -93 22q-28 18 -28 55q0 9 2 19zM442 811h263q83 0 140.5 54t72.5 139q4 25 4 47q0 55 -26 89q-38 48 -124 48h-227q-36 0 -41 -35z" />
<glyph unicode="S" horiz-adv-x="1122" d="M-8 351q0 49 29 81q30 34 83 45q24 5 45 5q31 0 57 -10q44 -18 54 -71q15 -91 71 -141.5t146 -50.5q102 0 178.5 51t94.5 152q3 17 3 32q1 28 -9 51q-14 35 -56 59t-67 33.5t-78 24.5l-4.5 1.5t-4 1t-4.5 1.5q-94 25 -160 53.5t-132.5 77.5t-92.5 127q-15 46 -15 100 q0 38 7 79q23 126 107.5 220t196 139.5t231.5 45.5q71 0 132 -10.5t117 -35.5t97.5 -64t69 -98t34.5 -134v-7q0 -41 -32 -73q-36 -34 -95 -41q-18 -2 -33 -2q-92 0 -106 66q-23 86 -70 125t-147 39q-52 0 -97.5 -15t-83 -54.5t-48.5 -98.5q-4 -27 2 -50t15 -39t31 -31.5 t35.5 -23.5t44 -18.5t40.5 -13.5t40 -11q79 -21 133 -40t117 -55.5t98 -80.5q35 -42 53 -112q10 -38 10 -81q0 -36 -7 -75q-36 -210 -195 -331.5t-387 -121.5q-88 0 -165.5 23t-140 67.5t-100.5 118.5q-42 82 -42 171z" />
<glyph unicode="T" horiz-adv-x="1024" d="M158 1311q24 123 108 123h791q68 0 68 -76q0 -21 -5 -47q-20 -123 -106 -123h-260l-197 -1110q-15 -96 -151 -96q-54 0 -90 22q-30 18 -30 56q0 8 1 18l196 1110h-260q-69 0 -69 81q0 19 4 42z" />
<glyph unicode="U" horiz-adv-x="1300" d="M116 271q-8 45 -8 97q0 67 13 148l147 832q15 94 152 94q59 0 93 -22q28 -17 28 -54q0 -9 -2 -18l-152 -856q-7 -36 -7 -67q0 -75 37 -127q52 -74 169 -74.5t195 73.5t100 195l151 856q15 94 152 94q59 0 93 -22q28 -17 28 -54q0 -9 -2 -18l-148 -832 q-49 -274 -211 -406.5t-401 -132.5q-115 0 -202.5 30.5t-147 96t-77.5 167.5z" />
<glyph unicode="V" horiz-adv-x="1146" d="M172 1348q-1 8 -1 15q-1 37 29 57q36 22 87 22q26 0 40.5 -0.5t39 -5.5t38 -14.5t25.5 -28.5t14 -47l84 -789q11 -94 11 -182q39 112 71 180l365 791q16 34 38.5 55t52.5 29t49.5 10t53.5 2q49 0 75 -22q13 -12 13 -31q0 -18 -12 -41l-590 -1264q-27 -57 -73.5 -78.5 t-112.5 -21.5q-65 0 -102.5 21.5t-44.5 78.5z" />
<glyph unicode="W" horiz-adv-x="1714" d="M168 1339v9q0 44 38 68q42 26 91 26q145 0 147 -96l37 -771q8 -102 8 -192q61 168 72 192l301 771q42 96 144 96q106 0 106 -96l31 -771q5 -39 5 -112q0 -36 -1 -80q15 42 44.5 111.5t33.5 80.5l313 771q13 33 34 53.5t49 29t48.5 11t50.5 2.5q51 0 82 -26q18 -15 18 -39 q0 -17 -8 -38l-530 -1255q-42 -100 -195 -100q-65 0 -102 21t-41 79l-39 602q-7 63 -7 118q0 18 1 36q-6 -19 -57 -154l-252 -602q-24 -58 -70 -79t-112 -21q-32 0 -56.5 3.5t-48 13.5t-37.5 30t-16 49z" />
<glyph unicode="X" horiz-adv-x="1110" d="M-65 38q1 19 20 48l477 643l-237 614q-9 29 -3.5 48t25.5 30t42 16t46 5q84 0 120 -19.5t56 -76.5l144 -365l270 365q41 57 85 76.5t128 19.5q24 0 44.5 -5t36 -15.5t15.5 -31t-20 -47.5l-457 -614l252 -643q9 -29 2.5 -48t-27 -31.5t-43.5 -18t-47 -6.5h-14 q-67 0 -108 18q-45 20 -64 72l-143 397l-283 -397q-38 -52 -90 -72q-47 -18 -115 -18h-14q-24 1 -45 6.5t-37.5 18t-15.5 31.5z" />
<glyph unicode="Y" horiz-adv-x="1071" d="M156 1333q-7 19 -7 35q0 27 21 45q34 29 84 29q87 0 123.5 -19t58.5 -75l160 -437l313 437q39 54 88 74t136 20q31 0 49 -10q22 -13 22 -38q0 -22 -26 -57l-488 -655l-106 -604q-15 -96 -152 -96q-122 0 -122 78q0 8 1 18l107 604z" />
<glyph unicode="Z" horiz-adv-x="1028" d="M-51 121q10 69 51 121l631 809q66 86 112 137h-516q-69 0 -69 81q0 19 4 42q24 123 108 123h740q78 0 78 -85q0 -16 -3 -36q-13 -66 -53 -121l-624 -813q-54 -70 -115 -131h516q67 0 67 -81q0 -20 -4 -44q-20 -123 -106 -123h-741q-80 0 -80 81q0 18 4 40z" />
<glyph unicode="[" horiz-adv-x="573" d="M-4 -193l258 1463q13 79 62.5 121.5t127.5 42.5h193q73 0 59 -95q-19 -100 -96 -100h-96q-19 0 -27.5 -6.5t-11.5 -24.5l-238 -1339q-3 -18 4 -24.5t27 -6.5h96q41 0 54.5 -28t5.5 -72q-18 -94 -92 -94h-193q-78 0 -112 42t-21 121z" />
<glyph unicode="\" horiz-adv-x="1019" d="M152 1313q-15 48 13 79.5t81 34.5q54 1 81.5 -16.5t41.5 -58.5l479 -1612q12 -40 -6.5 -70t-63.5 -37q-123 -22 -147 68z" />
<glyph unicode="]" horiz-adv-x="575" d="M-137 -262q19 100 94 100h98q19 0 26.5 6t10.5 25l238 1339q3 18 -3.5 24.5t-25.5 6.5h-98q-41 0 -54.5 28t-5.5 72q18 95 93 95h194q78 0 112.5 -42t20.5 -122l-258 -1463q-13 -79 -62.5 -121t-127.5 -42h-195q-71 0 -57 94z" />
<glyph unicode="^" horiz-adv-x="1026" d="M114.5 807q-4.5 39 28.5 84l326 448q45 64 88 92.5t109 28.5t99.5 -28.5t57.5 -92.5l166 -448q18 -45 0.5 -84t-65.5 -49q-59 -12 -91 2t-53 57l-162 369l-292 -369q-34 -43 -71.5 -57t-90.5 -2q-45 10 -49.5 49z" />
<glyph unicode="_" horiz-adv-x="1112" d="M-131 -223q20 112 98 112h932q42 0 55 -32t4 -80q-20 -115 -100 -115h-932q-77 0 -57 115z" />
<glyph unicode="`" horiz-adv-x="452" d="M215 1385q14 35 68 45q20 4 82 4q83 0 102 -62l39 -151q9 -38 -12 -58t-52 -24q-75 -14 -112 35l-101 137q-28 39 -14 74z" />
<glyph unicode="a" horiz-adv-x="1089" d="M25 475q25 149 95 263.5t172 184t223.5 104t258.5 34.5h94q100 0 140 -54q30 -40 30 -98q0 -20 -4 -43l-108 -616q-9 -55 -9 -105q0 -38 5 -73q1 -7 1 -13q-1 -35 -29 -57q-34 -26 -85 -31q-11 -1 -22 -1q-97 0 -134 93q-52 -41 -132 -66.5t-150 -25.5q-211 0 -299 131 q-60 90 -60 232q0 65 13 141zM304 320q4 -64 37 -100t97 -36q46 0 85.5 18.5t66 47t47.5 68t33.5 77t19.5 78.5l51 289q12 41 3.5 56.5t-58.5 15.5q-70 0 -130 -22.5t-101 -59t-72 -85t-48 -98t-24 -100.5q-7 -63 -8 -114q0 -19 1 -35z" />
<glyph unicode="b" horiz-adv-x="1198" d="M45 84l223 1266q15 98 154 98q59 0 94 -22q28 -18 28 -57q0 -9 -1 -19l-60 -338q36 32 113 55t141 23q357 0 357 -373q0 -82 -17 -182q-23 -125 -67 -226t-109.5 -176t-158 -115.5t-205.5 -40.5q-70 0 -134.5 26t-101.5 69q-32 -90 -149 -90q-58 0 -88 24q-22 18 -22 52 q0 12 3 26zM383 381q5 -51 19 -93.5t49 -70t84 -27.5q48 0 88 22t66.5 54.5t47.5 81t32.5 91.5t21.5 96q14 81 14 143q0 199 -150 199q-53 0 -98 -29t-74.5 -76.5t-48.5 -98.5t-28 -104l-17 -90q-8 -32 -8 -67q0 -15 2 -31z" />
<glyph unicode="c" horiz-adv-x="1042" d="M61 530q97 551 568 551q174 0 272 -83q91 -77 91 -201q0 -10 -1 -21q-3 -61 -35.5 -87.5t-103.5 -26.5q-52 2 -78.5 17.5t-32.5 55.5q-8 70 -42.5 102.5t-108.5 32.5q-52 0 -94.5 -21.5t-69.5 -53.5t-48 -80.5t-32 -90t-20 -94.5q-14 -77 -14 -137q0 -203 159 -203 q121 0 203 134q43 72 145 75h9q56 -1 81 -25q15 -15 15 -38q0 -18 -9 -41q-59 -146 -183 -230.5t-298 -84.5q-390 0 -390 378q0 78 17 172z" />
<glyph unicode="d" horiz-adv-x="1157" d="M48 310q-3 28 -3 58q0 78 18 167q96 555 543 555q130 0 219 -78l60 338q15 98 153 98q122 0 122 -79q0 -9 -1 -19l-223 -1266q-18 -102 -143 -102q-53 0 -85.5 19t-31.5 71q-55 -45 -125 -70t-139 -25q-117 0 -197.5 41t-118.5 115.5t-48 176.5zM350 535 q-16 -87 -16 -151q0 -194 145 -194q64 0 120.5 48.5t88.5 112.5t43 128l17 90q7 40 7 81q0 37 -8 77q-8 42 -24 75t-47.5 54t-75.5 21q-48 0 -87.5 -21.5t-65 -54t-46 -81t-31.5 -91t-20 -94.5z" />
<glyph unicode="e" d="M50 392v16q0 63 13 129q20 113 63 208.5t111.5 174t170.5 123t227 44.5q207 0 303 -120q69 -86 69 -214q0 -49 -10 -104q-18 -99 -68.5 -137.5t-148.5 -38.5h-452q-7 -36 -7 -72q0 -15 1 -29q4 -50 18 -89t53 -63q37 -23 94 -23h5q62 0 103.5 26t80.5 82q34 49 121 49 q18 0 37 -2q41 -5 60 -24t17.5 -41t-14.5 -45q-62 -129 -182 -200t-269 -71q-83 0 -150 21.5t-112 59.5t-76.5 90.5t-43.5 116t-14 133.5zM371 664h336q17 0 29.5 11t15.5 34q1 12 1 24q-1 63 -33 100q-38 44 -110 44q-87 0 -149 -57t-90 -156z" />
<glyph unicode="f" horiz-adv-x="690" d="M-190 -215q10 57 42 77q25 16 62 16q10 0 20 -1q11 -1 22 -1q61 0 98 25q42 29 55 103l147 836h-68q-80 0 -80 76q0 15 3 34q20 111 116 111h68l6 37q16 89 45 152.5t79.5 112t128.5 72t185 23.5q57 0 90 -8q39 -10 50 -40q5 -14 5 -34.5t-5 -46.5q-10 -55 -39 -81 q-28 -25 -63 -25h-5q-5 1 -12.5 1t-16 -0.5t-12.5 -0.5q-39 0 -67.5 -8t-54.5 -36t-34 -77l-6 -41h90q52 0 69 -31q12 -21 12 -49q0 -15 -3 -31q-20 -110 -119 -110h-88l-143 -813q-38 -209 -162 -310q-96 -78 -238 -78q-43 0 -89 7q-92 12 -92 101q0 17 4 38z" />
<glyph unicode="g" horiz-adv-x="1157" d="M10 -211q18 55 54 81q22 16 47 16q15 0 30 -5q76 -29 162 -37q22 -1 44 -1l128 16q70 21 119 73.5t63 133.5q-46 -36 -111 -56t-130 -20q-371 0 -371 368q0 77 16 170q97 557 547 557q68 0 130.5 -25t99.5 -67q30 88 149 88q57 0 86 -23q23 -19 23 -57q0 -10 -2 -22 l-156 -881q-36 -204 -154.5 -328.5t-300.5 -158.5q-85 -18 -179 -18q-18 0 -36 1q-114 4 -205 33q-64 21 -64 93q0 30 11 69zM334 376.5q0 -38.5 9 -68.5t25.5 -54.5t46 -37.5t70.5 -13q53 0 98.5 28t75 73.5t48 93.5t26.5 96l17 90q7 29 7 61q0 16 -2 33q-5 50 -19 93 t-48.5 72t-83.5 29q-196 0 -256 -344q-7 -42 -10.5 -77.5t-3.5 -74z" />
<glyph unicode="h" horiz-adv-x="1153" d="M43 80l223 1266q10 54 53.5 78t102.5 24q122 0 122 -81q0 -9 -1 -19l-66 -371q143 119 307 119q168 0 241 -91q50 -63 50 -170q0 -48 -10 -106l-115 -649q-15 -98 -153 -98q-59 0 -94 22q-28 18 -28 57q0 9 1 19l104 590q6 35 7 62t-5 56.5t-28.5 45.5t-61.5 16 q-55 0 -101 -19.5t-77.5 -50.5t-55.5 -74t-38 -85t-23 -89l-80 -452q-15 -98 -153 -98q-59 0 -94 22q-28 18 -28 57q0 9 1 19z" />
<glyph unicode="i" horiz-adv-x="565" d="M55 80l160 903q18 98 156 98q59 0 93 -22q27 -17 27 -53q0 -11 -2 -23l-159 -903q-15 -98 -154 -98q-122 0 -122 79q0 9 1 19zM262 1313q11 67 49.5 101t122.5 34q82 0 110 -34q20 -25 20 -66q0 -16 -3 -35q-12 -68 -50.5 -106t-125.5 -38q-87 -1 -111 37q-16 25 -16 64 q0 20 4 43z" />
<glyph unicode="j" horiz-adv-x="573" d="M-211 -215q10 61 45 89t100 28q59 0 86 37.5t33 83.5l170 960q18 98 156 98q61 0 95 -22q26 -17 26 -53q0 -11 -2 -23l-179 -1016q-32 -174 -155 -258q-101 -69 -238 -69q-30 0 -63 4q-50 6 -67 45q-11 25 -11 56q0 19 4 40zM270 1313q11 67 49.5 101t122.5 34t111 -34 q19 -24 19 -65q0 -17 -3 -36q-12 -69 -50 -106.5t-126 -37.5q-86 0 -111 37q-16 26 -16 65q0 19 4 42z" />
<glyph unicode="k" horiz-adv-x="1032" d="M45 82l223 1266q6 37 30.5 60.5t55 31.5t66.5 8q61 0 97 -23q29 -19 29 -58q0 -9 -1 -19l-113 -633l334 291q86 78 180 78q27 0 55 -7q39 -11 56.5 -34t9.5 -51.5t-39 -55.5l-338 -289l223 -543q7 -16 7 -30q0 -30 -30 -55q-45 -37 -112 -42q-13 -1 -24 -1q-32 0 -53 6 q-28 8 -40.5 25t-25.5 52l-160 404l-102 -90l-51 -291q-18 -100 -160 -100q-58 0 -92 22q-27 17 -27 55q0 11 2 23z" />
<glyph unicode="l" horiz-adv-x="540" d="M43 80l225 1268q8 54 51.5 77t102.5 23q122 0 123 -81q0 -9 -2 -19l-226 -1268q-15 -98 -153 -98q-59 0 -94 22q-28 18 -28 57q0 9 1 19z" />
<glyph unicode="m" horiz-adv-x="1732" d="M43 80l160 905q8 50 47 74t92 24q60 1 88 -21q25 -19 25 -68v-11v-25q136 138 329 138q196 0 260 -160q158 160 347 160q163 0 225 -92q40 -61 40 -164q0 -54 -11 -119l-115 -641q-15 -98 -154 -98q-59 0 -94 22q-28 18 -28 57q0 9 1 19l105 590q5 28 7 49t0 47.5 t-11 43.5t-30 28.5t-52 11.5q-59 0 -107 -24.5t-78.5 -66.5t-49 -89t-27.5 -101l-88 -489q-15 -98 -154 -98q-56 0 -94 22q-31 19 -30 58q0 8 1 18l103 575q7 42 7 74q0 121 -98 121q-56 0 -102 -24.5t-76 -66.5t-49 -91t-29 -105l-86 -483q-15 -98 -153 -98q-122 0 -122 79 q0 9 1 19z" />
<glyph unicode="n" horiz-adv-x="1153" d="M43 80l160 905q8 50 47.5 73t91.5 23q62 -1 90 -21q25 -19 25 -66v-11v-25q136 138 327 138q168 0 241 -91q50 -63 51 -170q0 -48 -11 -106l-115 -649q-15 -98 -153 -98q-59 0 -94 22q-28 18 -28 57q0 9 1 19l104 590q5 37 5 74q-1 4 -1 7q0 40 -26.5 69.5t-77.5 29.5 q-62 0 -111.5 -24t-82 -65.5t-52.5 -90t-31 -105.5l-86 -485q-15 -98 -153 -98q-59 0 -94 22q-28 18 -28 57q0 9 1 19z" />
<glyph unicode="o" horiz-adv-x="1081" d="M61 530q97 551 568 551q387 0 386 -378q0 -78 -16 -173q-97 -550 -565 -550q-390 0 -390 378q0 78 17 172zM314 375q0 -41 9 -72.5t26 -58t48 -40.5t74 -14q52 0 94 21.5t69 53.5t48 80t32.5 90.5t20.5 94.5q6 37 10 67q4 31 5 67v14q0 28 -3 50q-4 28 -14.5 55.5 t-28.5 46t-47 29.5t-67 11q-52 0 -94.5 -21.5t-69 -53.5t-47 -80.5t-31.5 -90t-20 -94.5q-8 -42 -12 -78q-3 -32 -3 -67q1 -5 1 -10z" />
<glyph unicode="p" horiz-adv-x="1159" d="M-20 -283l223 1264q19 104 143 104q53 0 85.5 -19.5t31.5 -70.5q47 41 119.5 66.5t142.5 25.5q121 0 202.5 -40.5t119.5 -114t47 -175.5q2 -26 2 -53q0 -80 -19 -172q-22 -125 -66 -225.5t-111 -175.5t-161.5 -115.5t-210.5 -40.5q-144 0 -215 80l-59 -338 q-18 -98 -154 -98q-38 0 -65 7.5t-44.5 30.5t-10.5 60zM384 392q4 -54 18 -99.5t50.5 -75t88.5 -29.5q48 0 87.5 22t64.5 54t45 81t30.5 91t19.5 96q10 53 14 96q3 25 3 52q0 19 -1 38q-3 48 -16.5 80.5t-45.5 54t-80 21.5q-95 0 -165 -88.5t-89 -197.5l-17 -92 q-8 -36 -8 -75q0 -14 1 -29z" />
<glyph unicode="q" horiz-adv-x="1159" d="M48 308q-3 32 -3 66q0 74 16 158q100 558 549 558q70 0 134 -26t96 -67q18 50 56.5 67t92.5 17q59 0 88 -21q22 -16 22 -51q0 -12 -3 -26l-224 -1264q-8 -54 -51 -77t-102 -23q-61 0 -96 23q-27 17 -27 54q0 11 2 23l59 336q-89 -78 -241 -78q-116 0 -196.5 41 t-120.5 114.5t-51 175.5zM336 413q-1 -12 -1 -24q0 -41 7 -83q8 -55 42.5 -85.5t94.5 -30.5q52 0 98 29t77 76t51.5 99t29.5 104l17 90q7 32 7 66q0 16 -1 34q-6 51 -22 93t-51.5 69t-84.5 27q-48 0 -87.5 -22t-64.5 -54t-45.5 -81.5t-31.5 -91.5t-21 -96q-12 -67 -14 -119z " />
<glyph unicode="r" horiz-adv-x="753" d="M43 80l160 905q16 96 133 96q104 0 115 -73l4 -27q44 50 105 79t120 34q15 1 27 1q58 0 80 -22q19 -19 19 -57q0 -15 -3 -33q-12 -76 -35 -109t-86 -36q-123 -6 -188 -70t-86 -182l-91 -506q-15 -98 -153 -98q-59 0 -94 22q-28 18 -28 57q0 9 1 19z" />
<glyph unicode="s" horiz-adv-x="972" d="M23 221q-5 20 -5 38q0 34 18 61q26 41 97 53q18 2 33 2q81 0 100 -66q40 -116 174 -116q56 0 106.5 29t63.5 83q2 10 2 19q0 40 -38 62q-46 26 -168 52q-34 7 -63 15.5t-60.5 20.5t-55.5 25.5t-48 33t-38 41.5t-26 51t-11.5 62.5t5.5 74.5q19 103 92 179.5t168.5 112.5 t197.5 36q140 0 233.5 -56t114.5 -174q2 -12 2 -22q0 -38 -20 -60q-25 -28 -84 -35q-22 -3 -41 -3q-85 0 -115 55q-43 82 -129 82q-142 0 -159 -93q-3 -21 4 -38t25.5 -29t34 -20t44 -15t39.5 -9.5t35 -6.5q40 -8 72.5 -16.5t68 -20.5t61 -26t51.5 -33.5t40 -42.5 q16 -23 28 -53q12 -27 11 -59v-5q-1 -35 -6 -78q-20 -114 -93.5 -197.5t-172 -122.5t-208.5 -39q-149 0 -250 59.5t-130 188.5z" />
<glyph unicode="t" horiz-adv-x="784" d="M94 950q20 111 119 111h66l32 182q15 98 154 98q122 0 122 -79q0 -9 -1 -19l-33 -182h115q80 0 80 -76q0 -16 -3 -35q-7 -48 -34.5 -79t-81.5 -31h-115l-84 -475q-4 -21 -4 -39q0 -46 24 -68q25 -25 85 -24q18 0 40 2q13 1 24 1q46 1 63 -23q14 -19 14 -55q0 -18 -4 -40 q-17 -87 -82 -115q-59 -22 -148 -22q-99 0 -164.5 26.5t-95.5 74.5q-30 47 -38 115q-3 22 -3 47q0 48 11 103l88 492h-66q-82 0 -82 81q0 13 2 29z" />
<glyph unicode="u" horiz-adv-x="1140" d="M68 336l114 647q18 98 156 98q61 0 95 -22q26 -17 26 -53q0 -11 -2 -23l-103 -588q-6 -35 -7 -62t5 -56.5t28.5 -45.5t61.5 -16q61 0 110 22.5t81.5 62t52.5 87.5t31 105l86 491q18 98 155 98q59 0 94 -22q27 -17 27 -54q0 -10 -2 -22l-157 -899q-10 -54 -50 -78t-94 -24 q-56 0 -81.5 23t-28.5 75l-2 22q-139 -133 -314 -133q-168 1 -241 91q-51 63 -51 171q0 48 10 105z" />
<glyph unicode="v" horiz-adv-x="1005" d="M106 985q-1 7 -1 13q0 28 18 47q22 23 52.5 30.5t68.5 7.5q145 0 155 -98l50 -457q4 -34 5.5 -103t4.5 -97q12 28 37 97t41 103l211 457q45 98 190 98q28 0 50 -4.5t40.5 -15.5t20 -30t-10.5 -48l-450 -905q-25 -53 -78 -75.5t-113 -22.5q-61 0 -106 22.5t-53 75.5z" />
<glyph unicode="w" horiz-adv-x="1476" d="M106 983q-1 6 -1 12q0 45 34 65q38 22 99 21q41 0 70 -5.5t53.5 -27t27.5 -59.5l33 -459q3 -36 3 -94q0 -35 -1 -78q41 109 68 166l202 465q35 80 129 80q92 0 101 -80l39 -465q6 -100 7 -152q0 -7 -1 -14q40 119 63 172l199 459q40 92 175 92h11q103 0 103 -56 q0 -18 -11 -42l-395 -881q-29 -64 -73.5 -92t-129.5 -28q-72 0 -105.5 36.5t-39.5 106.5l-23 270q-9 83 -9 140q0 22 1 40q-5 -23 -18 -57t-31 -76.5t-20 -46.5l-121 -270q-60 -143 -195 -143q-85 0 -120.5 28t-41.5 92z" />
<glyph unicode="x" horiz-adv-x="944" d="M-60 38q-3 8 -2 17q0 33 37 78l344 420l-172 385q-11 26 -11 47q0 28 20 47q35 32 104 37q35 1 64.5 1t54 -13.5t33.5 -42.5l92 -258l180 258q20 29 49.5 42.5t59.5 13.5t65 -1q41 -3 66 -17q24 -14 28 -42q0 -3 1 -6q0 -27 -33 -66l-306 -385l195 -420q15 -30 15 -54 q0 -23 -13 -41q-26 -38 -100 -42q-39 -1 -71.5 -1t-59.5 16t-41 50l-107 293l-211 -293q-24 -34 -56.5 -50t-66 -16t-73.5 1q-71 4 -85 42z" />
<glyph unicode="y" horiz-adv-x="983" d="M-57 -223q21 115 113 115q10 0 20 -1q9 -1 18 -1q37 0 74 20q45 26 68 70l45 90l-177 854q-4 21 -4 39q0 97 119 108q26 3 48 3q34 0 59 -6q41 -11 49 -54l102 -563l293 563q21 43 65 54q26 6 60 6q23 0 49 -3q65 -6 78 -38q3 -8 3 -20q0 -31 -26 -83l-563 -1065 q-116 -223 -344 -223q-42 0 -88 8q-65 10 -65 86q0 18 4 41z" />
<glyph unicode="z" horiz-adv-x="849" d="M-53 111q11 68 49 116l424 502q63 75 108 111h-333q-82 0 -82 81q0 13 2 29q20 111 118 111h562q80 0 80 -76q0 -16 -3 -35q-10 -66 -57 -121l-414 -491q-75 -83 -120 -117h376q81 0 82 -76q0 -15 -4 -34q-20 -111 -117 -111h-587q-87 0 -87 78q0 15 3 33z" />
<glyph unicode="{" horiz-adv-x="604" d="M63 539q16 85 74 102q60 17 82 127l62 354q28 159 132.5 237t262.5 75q69 0 49 -99q-17 -98 -82 -98q-68 -1 -99 -31.5t-42 -99.5l-62 -344q-11 -66 -46 -126.5t-91 -96.5q44 -32 58 -98.5t-1 -127.5l-59 -344q-12 -69 8 -98.5t88 -32.5q64 0 47 -98q-16 -98 -84 -98 q-160 -3 -236.5 75.5t-47.5 237.5l61 352q18 109 -37 129q-52 18 -37 103z" />
<glyph unicode="|" horiz-adv-x="466" d="M-25 -311l297 1685q11 70 113 70q44 0 69.5 -15.5t18.5 -54.5l-297 -1685q-7 -38 -39 -55t-74 -17q-44 0 -69.5 17t-18.5 55z" />
<glyph unicode="}" horiz-adv-x="604" d="M-137 -260q7 41 28 69.5t56 28.5q66 3 96.5 32.5t42.5 98.5l59 344q13 69 49 131.5t91 94.5q-43 36 -57 96.5t-3 126.5l62 344q11 70 -8.5 100t-85.5 31q-36 0 -47.5 28.5t-4.5 69.5q20 99 86 99q159 3 236 -75.5t49 -236.5l-61 -354q-22 -109 36 -127q52 -19 37 -102 q-15 -85 -73 -103q-64 -20 -82 -129l-62 -352q-28 -158 -133 -237t-262 -76q-65 0 -49 98z" />
<glyph unicode="~" horiz-adv-x="1157" d="M62.5 645q1.5 33 29.5 62q132 135 285 157q132 17 287 -51q88 -43 163 -43q86 0 160 55q80 61 135 -6q42 -48 -22 -119q-121 -133 -273 -155q-130 -17 -282 53q-94 41 -164 41q-85 3 -160 -55q-82 -62 -135 2q-25 26 -23.5 59z" />
<glyph unicode="&#xa2;" horiz-adv-x="1040" d="M47 -266l143 303q-196 120 -129 493q97 553 568 553h41l149 316q20 53 101 49q41 0 52 -28t-9 -66l-142 -312q178 -80 172 -264q-6 -63 -37.5 -87.5t-105.5 -24.5q-50 0 -78.5 15t-36.5 54q0 55 -18 76l-279 -616q6 -2 33 -2q67 0 114.5 32.5t90.5 96.5q36 70 139 77 q66 3 92.5 -24t5.5 -80q-60 -147 -182 -229t-297 -82q-42 0 -96 4l-135 -293q-14 -33 -48 -47.5t-65 -9.5q-86 3 -43 96zM313 313l262 561q-49 -4 -88.5 -27.5t-65.5 -56t-46 -79.5t-31 -88.5t-20 -92.5q-22 -127 -11 -217z" />
<glyph unicode="&#xa3;" horiz-adv-x="1175" d="M-2 53q-20 51 1 97.5t75 74.5q100 59 166.5 180.5t68.5 204.5h-55q-49 0 -72.5 34.5t-15.5 86.5q8 46 40 80.5t81 34.5q-1 19 -3 55t-2.5 58.5t1.5 55.5t8 64q48 188 189.5 285.5t334.5 97.5q185 0 281 -86.5t90 -245.5q2 -56 -28.5 -95.5t-86.5 -45.5 q-59 -6 -102.5 15.5t-46.5 66.5q-3 39 -8 62.5t-20 47.5t-46 35t-80 11q-89 -3 -138.5 -45t-62.5 -111q-13 -34 -14.5 -72t3.5 -84.5t5 -66.5h244q50 0 73.5 -33t14.5 -84q-8 -51 -43.5 -86t-85.5 -35h-184q-6 -92 -43.5 -168.5t-108.5 -158.5q112 10 217 -19 q91 -30 147.5 -30t122.5 34q57 25 99 10.5t59 -67.5q13 -44 -4 -86.5t-59 -73.5q-101 -67 -242 -67q-69 0 -171.5 32.5t-135.5 38.5q-24 6 -46 9t-46.5 0.5t-40.5 -4.5t-44.5 -11.5t-41.5 -14t-48.5 -19t-48.5 -19.5q-36 -20 -66.5 -13.5t-50 25t-30.5 45.5z" />
<glyph unicode="&#xa5;" horiz-adv-x="1073" d="M39 270q7 48 35 80.5t84 32.5h209l16 84h-209q-99 0 -82 106q19 113 121 113h205l-262 643q-20 52 15 82.5t87 34.5q83 1 121.5 -21t58.5 -84l160 -430l309 430q41 61 92.5 84t139.5 21q28 -2 44.5 -12.5t20.5 -34.5t-26 -62l-482 -651h203q105 0 86 -113 q-7 -43 -38.5 -74.5t-86.5 -31.5h-203l-16 -84h203q56 0 75.5 -33t12.5 -80q-8 -48 -39.5 -81t-87.5 -33h-203l-14 -76q-14 -94 -154 -94q-63 0 -96 20.5t-25 73.5l15 76h-209q-100 0 -80 114z" />
<glyph unicode="&#xa8;" horiz-adv-x="696" d="M178 1311q11 60 44.5 91.5t101.5 31.5q66 0 87.5 -32t10.5 -91q-10 -61 -42 -91t-99 -30q-68 0 -90.5 30t-12.5 91zM522 1311q23 123 144 123q129 0 106 -123q-10 -60 -43.5 -90.5t-105.5 -30.5q-64 0 -87 31t-14 90z" />
<glyph unicode="&#xa9;" horiz-adv-x="1585" d="M94 711q27 151 108.5 288.5t195.5 236.5t258 157.5t290 58.5q140 0 261.5 -58t203 -156.5t116.5 -236.5t9 -290q-26 -144 -106 -279.5t-192.5 -238t-258.5 -164.5t-295 -62q-146 0 -269.5 59t-202.5 158.5t-112 237.5t-6 289zM279 711q-27 -150 22 -277.5t159.5 -201.5 t256.5 -74q140 0 276.5 73.5t234 201.5t124.5 278q24 143 -24 269.5t-159 204t-258 77.5q-146 0 -282.5 -73.5t-230 -200.5t-119.5 -277zM439.5 543.5q-9.5 80.5 9.5 171.5q17 93 51.5 171.5t88.5 141t134 98t178 35.5q106 0 183 -57t94 -160q8 -53 -13.5 -78t-70.5 -35 q-58 -12 -87.5 3t-39.5 67q-6 36 -32 57t-67 21q-50 0 -90 -25.5t-64.5 -67.5t-38.5 -84t-22 -87q-10 -42 -8 -88t12 -83.5t41 -62t80 -24.5q40 0 79.5 25t62.5 67q23 44 51.5 57t75.5 10q33 -3 50.5 -17t18 -34.5t-4.5 -39t-15 -38.5q-47 -97 -144 -156t-207 -59 q-98 1 -165.5 36t-99 95t-41 140.5z" />
<glyph unicode="&#xab;" horiz-adv-x="770" d="M66 549q1 9 5 18.5t7.5 15.5t10.5 16.5t9 14.5l176 232q51 67 132 39q32 -9 39 -33.5t-11 -56.5l-115 -213q-10 -14 -14 -33q-3 -16 2 -35l41 -211q5 -33 -11 -57t-50 -33q-92 -28 -117 39l-94 229q-13 50 -10 68zM360 549q4 23 33 65l174 232q52 65 133 39 q32 -9 39 -33.5t-12 -56.5l-113 -213q-10 -14 -14 -33q-3 -16 2 -35l39 -211q6 -33 -9 -57t-50 -33q-90 -27 -119 39l-92 229q-15 43 -11 68z" />
<glyph unicode="&#xad;" horiz-adv-x="716" d="M63 535q7 49 31 81.5t66 32.5h415q78 0 62 -114q-21 -113 -100 -113h-416q-42 0 -54.5 32.5t-3.5 80.5z" />
<glyph unicode="&#xae;" horiz-adv-x="1585" d="M94 711q27 151 108.5 288.5t195.5 236.5t258 157.5t290 58.5q196 0 344.5 -99t214.5 -269.5t31 -372.5q-36 -202 -162.5 -373t-310 -271t-379.5 -100q-146 0 -269.5 59t-202.5 158.5t-112 237.5t-6 289zM279 711q-27 -150 22 -277.5t159.5 -201.5t256.5 -74t282.5 74 t231 201.5t121.5 277.5q20 112 -5 214t-84 176t-151 117.5t-201 43.5q-146 0 -282.5 -73.5t-230 -200.5t-119.5 -277zM471 371l111 622q12 70 61.5 108t122.5 38h170q125 0 193 -72.5t45 -196.5q-12 -69 -58.5 -122t-109.5 -74q33 -28 47.5 -75t24.5 -106t26 -94 q18 -39 -16.5 -63.5t-77.5 -28.5q-30 -1 -54.5 -1t-45 12t-31.5 38q-18 45 -25 131q-2 61 -19.5 93t-66.5 32h-53l-43 -243q-13 -74 -111 -74q-46 -2 -71.5 15t-18.5 61zM745 788h109q44 0 75 21t38 63q14 82 -78 82h-90q-24 0 -27 -24z" />
<glyph unicode="&#xb4;" horiz-adv-x="475" d="M210.5 1175q-4.5 18 12.5 46l99 151q22 33 49 47.5t69 14.5q55 0 80 -4q35 -7 46.5 -25.5t1 -42.5t-39.5 -51l-143 -137q-56 -50 -125 -35q-20 2 -32.5 10t-17 26z" />
<glyph unicode="&#xb8;" horiz-adv-x="602" d="M-100 -297q17 32 46.5 46t63.5 -5q60 -25 121 -25q36 0 57.5 15.5t26.5 40.5q6 31 -12 43t-53 14q-18 0 -44.5 -1t-31.5 -1q-45 -4 -58 20.5t9 65.5l49 96h178l-41 -61q98 -2 154.5 -40.5t44.5 -127.5q-22 -120 -146 -182q-71 -29 -153 -29q-126 0 -187 31 q-50 30 -24 100z" />
<glyph unicode="&#xbb;" horiz-adv-x="770" d="M18.5 246.5q-6.5 24.5 12.5 56.5l114 211q13 34 13 35v33l-41 213q-6 33 9 57t50 33q93 28 117 -39l92 -232q17 -34 12 -65q-4 -23 -35 -68l-174 -229q-46 -67 -131 -39q-32 9 -38.5 33.5zM313.5 246.5q-6.5 24.5 12.5 56.5l112 211q14 27 15 35q2 8 -2 33l-39 213 q-6 33 9 57t50 33q91 27 117 -39l92 -232q17 -34 12 -65q-4 -23 -35 -68l-174 -229q-48 -66 -131 -39q-32 9 -38.5 33.5z" />
<glyph unicode="&#x2c6;" horiz-adv-x="751" d="M178.5 1180.5q-2.5 29.5 34.5 64.5l152 154q22 22 37 28.5t44 6.5h156q29 0 43 -6.5t33 -28.5l90 -154q28 -35 15.5 -64.5t-66.5 -41.5q-72 -17 -109 26l-112 123l-148 -123q-57 -43 -119 -26q-48 12 -50.5 41.5z" />
<glyph unicode="&#x2dc;" horiz-adv-x="833" d="M179.5 1200.5q-7.5 27.5 0.5 50.5q26 71 101 125q68 49 147 49q48 0 86.5 -15.5t59 -33.5t49.5 -33.5t59 -15.5q56 0 96 62q23 48 90 36q61 -17 35 -73q-38 -92 -90.5 -137.5t-138.5 -45.5q-52 0 -97 23.5t-87 46.5t-87 23q-55 0 -96 -64q-13 -13 -21 -19.5t-20.5 -13.5 t-26 -5.5t-28.5 9.5q-24 4 -31.5 31.5z" />
<glyph unicode="&#x401;" horiz-adv-x="1054" d="M61 87.5q-10 37.5 0 92.5l189 1073q10 55 33.5 92.5t56.5 56t66.5 25.5t76.5 7h564q87 0 63 -123q-20 -123 -106 -123h-457q-19 0 -28.5 -7.5t-12.5 -27.5l-51 -289h415q47 0 60.5 -35t3.5 -88q-20 -123 -107 -123h-415l-60 -337q-4 -20 3 -27.5t26 -7.5h457 q83 0 63 -123t-106 -123h-564q-43 0 -74 7t-58.5 25t-37.5 55.5zM469 1651q10 57 39 84.5t96 27.5t87.5 -27.5t10.5 -84.5q-10 -58 -39.5 -87.5t-97.5 -29.5q-67 0 -86.5 30t-9.5 87zM807 1651q10 57 38.5 84.5t96.5 27.5q66 0 87 -28t11 -84q-10 -58 -39.5 -87.5 t-97.5 -29.5q-67 0 -86.5 30t-9.5 87z" />
<glyph unicode="&#x402;" horiz-adv-x="1515" d="M129 1313q20 121 107 121h794q84 0 64 -121q-24 -125 -107 -125h-264l-55 -316q171 80 331 80q106 2 192.5 -28.5t148.5 -90.5t86 -159t1 -225q-28 -141 -113.5 -250t-201 -165.5t-240.5 -56.5q-167 0 -254 68q-59 51 -6 133q14 23 35 37t49.5 17t59.5 -15 q54 -29 133 -22q120 4 196 75.5t97 190.5q22 123 -35.5 195t-177.5 77q-173 7 -340 -78l-103 -579q-15 -92 -149 -92q-61 0 -95 21t-26 71l197 1112h-260q-47 0 -60.5 35.5t-3.5 89.5z" />
<glyph unicode="&#x403;" horiz-adv-x="929" d="M43 76l207 1177q10 57 32.5 94.5t56 55.5t66.5 24.5t78 6.5h480q85 0 65 -121q-24 -125 -108 -125h-375q-33 0 -39 -35l-191 -1077q-15 -92 -151 -92q-61 0 -95 21t-26 71zM608 1610l94 159q42 71 127 68q39 0 97 -8q33 -8 44.5 -26.5t2 -42.5t-36.5 -50l-156 -143 q-61 -55 -137 -35q-73 14 -35 78z" />
<glyph unicode="&#x404;" horiz-adv-x="1249" d="M67.5 472.5q2.5 107.5 26.5 244.5q25 137 60 245t92.5 203t133.5 157.5t184 98t243 35.5q248 0 361.5 -125t99.5 -336q-1 -47 -47.5 -74t-108.5 -24q-69 2 -101.5 20t-35.5 70q-5 120 -49.5 175t-161.5 55q-61 0 -111.5 -19.5t-86.5 -51t-65.5 -78.5t-48 -94t-34.5 -106 h375q85 0 65 -123q-24 -122 -108 -122h-379q-8 -65 -9 -118.5t10 -108t35 -91.5t70 -61t111 -25q203 -5 284 213q21 56 63.5 79.5t115.5 25.5q77 0 105.5 -29t8.5 -92q-59 -201 -215 -320t-403 -119q-135 0 -231 36t-150 99t-77.5 158t-21 202.5z" />
<glyph unicode="&#x405;" horiz-adv-x="1122" d="M-8 348q-1 51 29 84.5t83 44.5q58 13 102 -5.5t54 -70.5q15 -91 71 -141.5t146 -50.5q102 0 178.5 51t94.5 152q8 48 -6.5 83t-56 59t-66.5 33.5t-78 24.5l-4.5 1.5t-4 1t-4.5 1.5q-94 25 -160 53.5t-132.5 77.5t-92.5 126.5t-8 179.5q23 126 107.5 220t196 139.5 t231.5 45.5q71 0 132 -10.5t117 -35.5t97.5 -64t69 -98t34.5 -134q3 -46 -32.5 -80.5t-94.5 -40.5q-123 -13 -139 64q-23 86 -70 125t-147 39q-52 0 -97.5 -15t-83 -54.5t-48.5 -98.5q-4 -27 2 -50t15 -39t31 -31.5t35.5 -23.5t44 -18.5t40.5 -13.5t40 -11q79 -21 133 -40 t117 -55.5t98 -80t53 -113t3 -155.5q-36 -210 -195 -331.5t-387 -121.5q-88 0 -165.5 23t-140 67.5t-100.5 118.5t-42 168z" />
<glyph unicode="&#x406;" horiz-adv-x="538" d="M43 78l225 1270q15 94 152 94q59 0 94 -21.5t27 -72.5l-226 -1270q-15 -96 -153 -96q-59 0 -93 22t-26 74z" />
<glyph unicode="&#x407;" horiz-adv-x="589" d="M70 78l223 1268q18 96 153 96q59 0 93 -22t24 -74l-223 -1268q-15 -96 -152 -96q-59 0 -92.5 22t-25.5 74zM199 1651q10 57 38.5 84.5t96.5 27.5q66 0 87 -28t11 -84q-10 -57 -40 -87t-97 -30t-86.5 30t-9.5 87zM535 1651q10 57 39 84.5t96 27.5t87.5 -27.5t10.5 -84.5 q-10 -58 -39.5 -87.5t-97.5 -29.5q-67 0 -86.5 30t-9.5 87z" />
<glyph unicode="&#x408;" horiz-adv-x="868" d="M-57 170q18 48 56.5 73.5t78.5 10.5q81 -31 164 -27q159 2 190 189l166 932q15 94 152 94q59 0 93.5 -21.5t26.5 -72.5l-174 -979q-19 -107 -73.5 -188t-129 -125.5t-163 -65t-177 -14.5t-169.5 34q-89 33 -41 160z" />
<glyph unicode="&#x409;" horiz-adv-x="1886" d="M-63 100q5 49 28 81t64 36q85 14 125 143q44 152 119 490.5t92 394.5q30 106 95.5 147.5t166.5 41.5h426q23 0 42 -1.5t39.5 -6.5t35 -13.5t28 -22t18.5 -32.5t8 -45t-5 -60l-64 -360h291q190 0 289 -126t65 -323q-35 -195 -178.5 -319.5t-331.5 -124.5h-360q-43 0 -74 7 t-58.5 25t-37.5 56t0 94l172 971q6 35 -29 35h-254q-33 0 -39 -35q-14 -54 -54.5 -228.5t-84 -342t-86.5 -293.5q-51 -157 -130 -230.5t-208 -70.5q-65 0 -92 26.5t-18 85.5zM1049 283q-3 -20 4 -26.5t26 -6.5h226q86 0 143 52.5t72 141.5q14 87 -24.5 144t-121.5 57h-262z " />
<glyph unicode="&#x40a;" horiz-adv-x="1927" d="M43 76l225 1272q15 96 154 96q58 0 92.5 -22t26.5 -74l-84 -465h461l83 465q15 96 154 96q59 0 93 -22t26 -74l-84 -465h291q189 0 291 -122t69 -317q-35 -194 -181 -319t-333 -125h-362q-28 0 -50.5 2.5t-46 10t-38 20t-27 33t-12.5 49t4 67.5l82 457h-461l-101 -563 q-15 -92 -151 -92t-121 92zM1085 283q-3 -19 4 -26t25 -7h229q84 0 140 52.5t71 141.5q14 87 -23.5 141t-117.5 54h-264z" />
<glyph unicode="&#x40b;" horiz-adv-x="1527" d="M129 1313q20 121 107 121h792q47 0 62 -34.5t6 -86.5q-24 -125 -111 -125h-260l-55 -316q165 80 331 80q240 6 352.5 -120.5t71.5 -356.5l-69 -399q-15 -92 -152 -92q-60 0 -93.5 21t-25.5 71l72 405q46 255 -184 262q-159 6 -342 -88l-103 -579q-15 -92 -149 -92 q-61 0 -95 21t-26 71l197 1112h-262q-47 0 -60.5 35.5t-3.5 89.5z" />
<glyph unicode="&#x40c;" horiz-adv-x="1161" d="M43 76l225 1272q15 96 152 96q59 0 93 -22t26 -74l-82 -459q155 0 260 139q32 42 107 158t104 151q36 45 57 64t55 31t88 12q82 0 105.5 -29t-23.5 -88q-29 -36 -108 -154t-131 -188q-36 -47 -60.5 -75.5t-65 -62t-81.5 -50.5q47 -15 84 -52.5t57 -79.5t33 -92 q17 -73 41 -242t41 -220q20 -69 -18.5 -96t-129.5 -27q-63 0 -90 18t-41 60q-23 78 -38 227.5t-25 200.5q-18 100 -85 137t-177 24l-103 -579q-15 -92 -151 -92q-59 0 -93 21t-26 71zM666 1610l98 159q42 71 125 68q46 0 92 -8q35 -8 47.5 -26.5t2.5 -42.5t-40 -50 l-153 -143q-57 -57 -133 -35q-77 15 -39 78z" />
<glyph unicode="&#x40e;" d="M115 115q7 50 31 74t65 30q33 5 51 19t43 61l117 203l-258 827q-17 52 19 81t98 32q83 3 114 -17.5t45 -78.5l158 -525l295 525q33 57 68.5 76.5t115.5 19.5q25 -1 44 -5t37.5 -14.5t19 -29t-12.5 -47.5l-633 -1127q-128 -233 -294 -233q-69 0 -101.5 27t-21.5 102z M446 1653q-21 79 41 114q69 39 103 -4q34 -41 70.5 -58t91.5 -17q57 0 99.5 17t88.5 58q25 22 54.5 23.5t52.5 -17.5q49 -37 0 -116q-38 -60 -127.5 -107t-200.5 -47q-110 0 -184 47.5t-89 106.5z" />
<glyph unicode="&#x40f;" horiz-adv-x="1255" d="M57 114.5q0 28.5 4 67.5l209 1178q15 94 152 94q58 0 92.5 -21.5t26.5 -72.5l-191 -1077q-3 -20 3 -26.5t24 -6.5h381q18 0 27 7t12 26l190 1077q15 94 154 94q58 0 92.5 -21.5t26.5 -72.5l-209 -1178q-10 -56 -32.5 -94t-56.5 -56t-67.5 -25t-77.5 -7h-180l-53 -295 q-7 -42 -42.5 -60t-82.5 -18q-49 0 -79.5 18t-23.5 60l54 295h-179q-28 0 -50.5 2.5t-46 10t-38 20t-27 33t-12.5 49z" />
<glyph unicode="&#x410;" horiz-adv-x="1236" d="M-63.5 40q-0.5 18 12.5 42l647 1270q26 52 73.5 77t102.5 25q122 0 139 -102l201 -1270q4 -30 -7 -50t-34.5 -29.5t-46.5 -13t-53 -3.5q-60 0 -93.5 18.5t-41.5 77.5l-37 246h-451l-123 -246q-31 -59 -71.5 -77.5t-100.5 -18.5q-23 0 -41.5 2t-37 8t-28 16t-10 28z M469 567h291l-45 299q-15 104 -13 197q-34 -102 -81 -197z" />
<glyph unicode="&#x411;" horiz-adv-x="1153" d="M61 87.5q-10 37.5 0 92.5l189 1073q10 55 33.5 92.5t56.5 56t66.5 25.5t76.5 7h590q47 0 60.5 -35t3.5 -88q-20 -123 -107 -123h-483q-19 0 -28.5 -7.5t-12.5 -27.5l-51 -289h276q188 0 283 -117.5t61 -314.5q-35 -194 -171.5 -313t-323.5 -119h-349q-43 0 -74 7 t-58.5 25t-37.5 55.5zM352 281q-4 -20 3 -27.5t26 -7.5h213q84 0 134 48.5t65 137.5q14 88 -19 137t-115 49h-247z" />
<glyph unicode="&#x412;" horiz-adv-x="1228" d="M61 87.5q-10 37.5 0 92.5l189 1073q10 55 33.5 92.5t56.5 56t66.5 25.5t76.5 7h348q193 0 290 -100.5t63 -291.5q-17 -91 -69.5 -164t-125.5 -114q182 -95 141 -332q-35 -194 -172.5 -313t-324.5 -119h-402q-43 0 -74 7t-58.5 25t-37.5 55.5zM352 281q-4 -20 3 -27.5 t26 -7.5h266q84 0 134 48.5t65 137.5q33 186 -158 186h-276zM455 864h247q82 0 131.5 43t63.5 119q28 162 -137 162h-213q-19 0 -28.5 -7.5t-12.5 -27.5z" />
<glyph unicode="&#x413;" horiz-adv-x="907" d="M43 78l207 1175q20 105 80.5 143t152.5 38h478q87 0 63 -123q-20 -123 -106 -123h-373q-36 0 -41 -35l-191 -1075q-15 -96 -151 -96q-59 0 -93 22t-26 74z" />
<glyph unicode="&#x414;" horiz-adv-x="1318" d="M-139 -215l47 281q11 60 41 100t88 67q57 28 99.5 129.5t90.5 280.5q25 105 52.5 230.5t50.5 237.5t30 142q13 56 37.5 93.5t58.5 55.5t67 25t75 7h479q28 0 50.5 -2.5t46 -9.5t37.5 -20t26.5 -33t12.5 -48.5t-5 -67.5l-178 -1009q27 -1 47.5 -5.5t41 -16t30.5 -31 t15 -50.5t-5 -75l-49 -281q-15 -94 -146 -94q-59 0 -89.5 20.5t-20.5 73.5l31 178q4 21 -1.5 29t-23.5 8h-709q-37 0 -45 -37l-30 -178q-17 -94 -144 -94q-57 0 -86.5 21t-21.5 73zM360 244h439l162 907q3 21 -3 28t-24 7h-277q-18 0 -27.5 -7t-15.5 -28q-58 -272 -129 -578 q-61 -246 -125 -329z" />
<glyph unicode="&#x415;" horiz-adv-x="1054" d="M61 87.5q-10 37.5 0 92.5l189 1073q10 55 33.5 92.5t56.5 56t66.5 25.5t76.5 7h564q87 0 63 -123q-20 -123 -106 -123h-457q-19 0 -28.5 -7.5t-12.5 -27.5l-51 -289h415q47 0 60.5 -35t3.5 -88q-20 -123 -107 -123h-415l-60 -337q-4 -20 3 -27.5t26 -7.5h457 q83 0 63 -123t-106 -123h-564q-43 0 -74 7t-58.5 25t-37.5 55.5z" />
<glyph unicode="&#x416;" horiz-adv-x="1599" d="M-31 33.5q-7 25.5 17 68.5q41 75 105 227.5t110 231.5q99 170 245 230q-48 24 -74 59t-53 98q-25 57 -65 185.5t-64 179.5q-28 59 11.5 94t122.5 35q52 0 82 -11.5t44.5 -31t34.5 -62.5q10 -26 32.5 -119t37.5 -137q13 -39 19.5 -57t21 -45.5t29.5 -40.5t40 -25.5 t58 -17.5l78 451q18 96 151 96q58 0 91.5 -22t23.5 -74l-78 -451q42 7 73.5 21t61 43t46.5 51t51 71q25 37 81 132t78 124q50 62 87 83.5t112 21.5q83 0 108.5 -34t-22.5 -95q-44 -53 -128.5 -181.5t-127.5 -183.5q-35 -44 -55 -66.5t-53 -48t-72 -42.5q123 -60 166 -230 q19 -82 27 -236t20 -223q11 -63 -22.5 -88.5t-108.5 -27.5q-77 -1 -104 20t-40 84q-8 34 -15.5 194t-23.5 226q-15 70 -59 105.5t-123 39.5l-102 -577q-15 -96 -150 -96q-131 0 -116 96l102 577q-156 -6 -236 -145q-38 -66 -103 -225t-85 -195q-35 -63 -69.5 -84t-110.5 -20 q-49 1 -74.5 11.5t-32.5 36z" />
<glyph unicode="&#x417;" horiz-adv-x="1132" d="M14 371q6 45 40 73.5t85 36.5q61 11 99 -5.5t41 -59.5q7 -102 58.5 -150.5t149.5 -48.5q97 0 172.5 55t90.5 140q12 66 -1 109.5t-51 64.5t-83.5 29t-112.5 8q-44 0 -59 34.5t-5 90.5q19 113 113 122q242 8 276 191q13 78 -31.5 120t-133.5 42q-103 0 -161.5 -40.5 t-86.5 -125.5q-14 -42 -63 -61t-103 -11q-55 6 -80.5 39t-11.5 76q53 175 192 268.5t352 93.5q91 0 169.5 -22.5t140 -68t89.5 -123.5t11 -179q-39 -208 -246 -305q102 -43 145 -139t19 -215q-42 -209 -198 -322t-394 -113q-121 0 -220.5 44t-157.5 136t-44 216z" />
<glyph unicode="&#x418;" horiz-adv-x="1286" d="M43 78l223 1268q18 96 150 96q56 0 91 -22t25 -74l-151 -861q14 25 29.5 49.5t24 37.5t27.5 39t25 34l539 717q33 44 67 62t87 18q54 0 85 -22t21 -74l-223 -1268q-15 -96 -145 -96q-56 0 -91.5 22t-27.5 74l149 848q-50 -88 -106 -162l-535 -711q-29 -39 -61.5 -55 t-79.5 -16q-57 0 -94 22t-29 74z" />
<glyph unicode="&#x419;" horiz-adv-x="1286" d="M43 78l223 1268q18 96 150 96q56 0 90 -22t24 -74l-151 -861q39 69 108 160l539 717q33 44 66.5 62t85.5 18q55 0 86.5 -22t21.5 -74l-223 -1268q-15 -96 -145 -96q-56 0 -91.5 22t-27.5 74l149 848q-53 -92 -108 -162l-533 -711q-29 -39 -62 -55t-81 -16q-57 0 -93 22 t-28 74zM541 1665q-21 79 41 115q68 38 102 -4t70.5 -59t91.5 -17q57 0 99.5 17.5t88.5 58.5q25 22 54.5 23.5t52.5 -17.5q49 -37 0 -117q-38 -60 -127.5 -107t-200.5 -47q-110 0 -183.5 47.5t-88.5 106.5z" />
<glyph unicode="&#x41a;" horiz-adv-x="1159" d="M43 78l223 1268q18 96 154 96q59 0 94 -22t25 -74l-80 -455q156 0 258 135q33 44 108 160t103 151q36 43 58 62.5t56 31t86 11.5q83 0 106.5 -29.5t-24.5 -89.5q-31 -37 -110.5 -155t-130.5 -185q-111 -146 -203 -186q121 -39 172 -226q19 -77 41 -244t39 -218 q22 -67 -17 -95t-127 -28q-64 0 -91 19t-42 63q-24 79 -39.5 232t-23.5 196q-18 98 -83 133.5t-177 27.5l-103 -579q-15 -96 -153 -96q-59 0 -93 22t-26 74z" />
<glyph unicode="&#x41b;" horiz-adv-x="1234" d="M-63 98q14 108 90 121q85 12 123 141q46 154 122.5 492t92.5 391q30 104 97 147.5t165 43.5h424q28 0 50.5 -2.5t46 -9.5t37.5 -19.5t27 -32.5t13 -48t-4 -67l-209 -1179q-15 -94 -152 -94q-59 0 -93 21t-26 73l191 1077q3 20 -4 27.5t-25 7.5h-254q-33 0 -43 -35 q-11 -42 -53.5 -227.5t-84.5 -349.5t-83 -289q-53 -155 -131.5 -228.5t-206.5 -72.5q-65 0 -91 27t-19 85z" />
<glyph unicode="&#x41c;" horiz-adv-x="1439" d="M43 78l223 1268q10 51 51 74.5t97 23.5q76 0 104 -55q12 -23 69.5 -186.5t108.5 -315.5l52 -152q415 603 456 654q47 55 127 55q56 0 87.5 -23t21.5 -75l-223 -1268q-8 -52 -50 -74t-98 -22t-90.5 22t-26.5 74l148 829q-28 -54 -109 -176l-211 -311q-34 -47 -96 -47 q-66 0 -82 47l-102 311q-38 127 -45 176l-148 -829q-8 -52 -50.5 -74t-98.5 -22t-89.5 22t-25.5 74z" />
<glyph unicode="&#x41d;" horiz-adv-x="1269" d="M43 78l223 1268q18 96 154 96q59 0 93 -22t24 -74l-86 -490h460l86 490q18 96 154 96q59 0 94 -22t25 -74l-223 -1268q-15 -96 -154 -96q-59 0 -93 22t-26 74l94 532h-460l-95 -532q-15 -96 -151 -96q-59 0 -93 22t-26 74z" />
<glyph unicode="&#x41e;" horiz-adv-x="1306" d="M94 717q24 135 62 245t97.5 203.5t137 156.5t183 98.5t233.5 35.5t221 -35.5t148 -99t81 -156.5t25 -203t-25 -245q-30 -169 -82.5 -299.5t-136.5 -232t-208 -155t-283 -53.5q-583 0 -453 740zM352.5 490.5q0.5 -59.5 14.5 -106t39 -85t71.5 -59.5t110.5 -21 q76 0 138 31.5t102.5 79t72 117.5t48.5 132.5t30 137.5q11 62 16 115t5 113t-14 106t-39 85t-72 60t-111 21q-77 0 -139.5 -31.5t-102.5 -79t-71.5 -118t-48 -133t-29.5 -138.5q-11 -61 -16 -114t-4.5 -112.5z" />
<glyph unicode="&#x41f;" horiz-adv-x="1255" d="M43 78l207 1175q20 105 80.5 143t152.5 38h588q34 0 60 -4t52.5 -15.5t39 -31.5t20 -52t-3.5 -78l-207 -1175q-15 -96 -151 -96q-59 0 -94 22t-27 74l190 1075q3 20 -3 27.5t-23 7.5h-379q-36 0 -41 -35l-191 -1075q-15 -96 -151 -96q-59 0 -93 22t-26 74z" />
<glyph unicode="&#x420;" horiz-adv-x="1179" d="M43 78l207 1175q10 55 33.5 92.5t56.5 56t66.5 25.5t76.5 7h363q186 0 287 -125t67 -320q-35 -196 -179.5 -322t-332.5 -126h-291l-82 -463q-15 -96 -153 -96q-59 0 -93 22t-26 74zM440 788h262q82 0 139.5 57.5t73.5 143.5q15 89 -21 144t-120 55h-227q-19 0 -28.5 -7.5 t-12.5 -27.5z" />
<glyph unicode="&#x421;" horiz-adv-x="1220" d="M94 717q132 739 715 739q120 0 207.5 -34.5t136.5 -97.5t69 -144t13 -181q-4 -45 -48.5 -71.5t-101.5 -26.5q-64 -2 -96 17t-33 71q-5 119 -47.5 173.5t-154.5 54.5q-74 0 -134.5 -31.5t-99 -79t-69 -118t-47 -132.5t-29.5 -139q-9 -52 -14.5 -97.5t-6.5 -98t4.5 -94.5 t21 -82t40.5 -67t65 -43t93 -16q58 0 104 17.5t80 52.5t56.5 71.5t45.5 88.5q40 85 162 88q155 0 109 -121q-25 -69 -61 -130.5t-89 -119t-117 -99t-149.5 -66t-181.5 -24.5q-573 0 -443 740z" />
<glyph unicode="&#x422;" horiz-adv-x="1024" d="M158 1311q24 123 108 123h791q87 0 63 -123q-20 -123 -106 -123h-260l-197 -1110q-15 -96 -151 -96q-54 0 -90.5 22t-28.5 74l196 1110h-260q-85 0 -65 123z" />
<glyph unicode="&#x423;" d="M115 115q7 50 31 74t65 30q33 5 51 19t43 61l117 203l-258 827q-17 52 19 81t98 32q83 3 114 -17.5t45 -78.5l158 -525l295 525q33 57 68.5 76.5t115.5 19.5q25 -1 44 -5t37.5 -14.5t19 -29t-12.5 -47.5l-633 -1127q-128 -233 -294 -233q-69 0 -101.5 27t-21.5 102z" />
<glyph unicode="&#x424;" horiz-adv-x="1521" d="M82 707q20 113 75 215t139 184.5t202.5 136t255.5 64.5l14 86q17 92 150 92q38 0 64.5 -7t43.5 -28.5t10 -56.5l-14 -86q177 -15 292 -101t155.5 -213t13.5 -278q-20 -111 -77 -212.5t-142 -180t-201.5 -129.5t-247.5 -62l-14 -82q-17 -94 -152 -94q-58 0 -92.5 21 t-24.5 73l15 82q-128 11 -227 61t-156.5 127.5t-79 177t-2.5 210.5zM352 707q-27 -155 34.5 -260.5t195.5 -120.5l135 776q-136 -17 -236.5 -128.5t-128.5 -266.5zM850 326q139 15 237 124t125 265q27 154 -34.5 262t-192.5 125z" />
<glyph unicode="&#x425;" horiz-adv-x="1110" d="M-65 38q1 19 20 48l477 643l-237 614q-9 29 -3.5 48t25.5 30t42 16t46 5q84 0 120 -19.5t56 -76.5l144 -365l270 365q41 57 85 76.5t128 19.5q24 0 44.5 -5t36 -15.5t15.5 -31t-20 -47.5l-457 -614l252 -643q9 -29 2.5 -48t-27 -31.5t-43.5 -18t-47 -6.5 q-77 -2 -122 17.5t-64 72.5l-143 397l-283 -397q-39 -53 -90.5 -72.5t-128.5 -17.5q-24 1 -45 6.5t-37.5 18t-15.5 31.5z" />
<glyph unicode="&#x426;" horiz-adv-x="1339" d="M60.5 87.5q-9.5 37.5 0.5 92.5l207 1178q18 94 154 94q59 0 94 -21.5t25 -72.5l-189 -1077q-4 -20 2.5 -27.5t24.5 -7.5h436l193 1100q18 96 153 96q59 0 93 -22t24 -74l-193 -1100q79 -2 115 -40.5t17 -139.5l-50 -279q-15 -94 -145 -94q-57 0 -87 21t-22 73l33 178 q3 20 -3 27.5t-23 7.5h-689q-44 0 -75 7t-58.5 25t-37 55.5z" />
<glyph unicode="&#x427;" horiz-adv-x="1177" d="M137 842l88 504q18 96 154 96q59 0 93 -22t24 -74l-82 -474q-9 -48 1.5 -82t36 -50.5t54 -23.5t63.5 -7q120 0 234 49l102 588q18 96 154 96q59 0 94 -22t25 -74l-224 -1268q-15 -96 -153 -96q-59 0 -93 22t-26 74l76 426q-138 -43 -271 -43q-189 0 -286 99t-64 282z" />
<glyph unicode="&#x428;" horiz-adv-x="1861" d="M60.5 87.5q-9.5 37.5 0.5 92.5l207 1178q18 94 154 94q59 0 93 -21.5t24 -72.5l-189 -1077q-8 -35 29 -35h356l193 1100q18 96 153 96q59 0 93 -22t24 -74l-192 -1100h356q18 0 27.5 7.5t13.5 27.5l188 1077q18 94 154 94q59 0 94 -21.5t25 -72.5l-207 -1178 q-10 -55 -32.5 -92.5t-56 -55.5t-67 -25t-76.5 -7h-1194q-44 0 -75 7t-58.5 25t-37 55.5z" />
<glyph unicode="&#x429;" horiz-adv-x="1923" d="M60.5 87.5q-9.5 37.5 0.5 92.5l207 1178q18 94 154 94q59 0 94 -21.5t25 -72.5l-189 -1077q-4 -20 2.5 -27.5t24.5 -7.5h356l193 1100q18 96 153 96q60 0 94.5 -22t24.5 -74l-192 -1100h389l192 1100q18 96 156 96q59 0 93 -22t24 -74l-193 -1100q78 -2 114 -40.5 t17 -139.5l-49 -279q-15 -94 -145 -94q-57 0 -88 21t-23 73l33 178q3 20 -3.5 27.5t-25.5 7.5h-1268q-44 0 -75 7t-58.5 25t-37 55.5z" />
<glyph unicode="&#x42a;" horiz-adv-x="1333" d="M127 1305q23 129 117 129h272q57 0 92 -14t48 -38.5t16 -58t-6 -72.5l-64 -358h289q188 0 289 -126.5t67 -322.5q-35 -195 -180 -319.5t-332 -124.5h-360q-44 0 -75 7t-58.5 25t-37 55.5t0.5 92.5l170 965q3 18 -3 25.5t-26 7.5h-147q-94 0 -72 127zM496 281 q-4 -20 2 -27.5t24 -7.5h228q84 0 141 54.5t72 143.5q14 87 -23.5 145t-120.5 58h-260z" />
<glyph unicode="&#x42b;" horiz-adv-x="1652" d="M61 87.5q-10 37.5 0 92.5l207 1178q18 94 156 94q59 0 93 -21.5t24 -72.5l-82 -465h258q188 0 289 -126.5t67 -322.5q-35 -195 -180 -319.5t-332 -124.5h-330q-43 0 -74 7t-58.5 25t-37.5 55.5zM352 281q-4 -20 3 -27.5t26 -7.5h194q84 0 141 54.5t72 143.5 q14 87 -23.5 145t-119.5 58h-229zM1159 78l223 1268q18 96 154 96q59 0 93 -22t24 -74l-223 -1268q-15 -96 -152 -96q-59 0 -93 22t-26 74z" />
<glyph unicode="&#x42c;" horiz-adv-x="1189" d="M60.5 87.5q-9.5 37.5 0.5 92.5l207 1178q18 94 154 94q59 0 93 -21.5t24 -72.5l-82 -465h291q188 0 289 -126.5t67 -322.5q-35 -195 -180 -319.5t-332 -124.5h-361q-44 0 -75 7t-58.5 25t-37 55.5zM350 281q-8 -35 29 -35h227q84 0 141 54.5t72 143.5q14 87 -23.5 145 t-119.5 58h-262z" />
<glyph unicode="&#x42d;" horiz-adv-x="1249" d="M23 416q4 63 43.5 92t115.5 29q72 -2 105.5 -25.5t36.5 -79.5q3 -103 51 -159.5t157 -53.5q66 1 121 25t92 61t67 91.5t47.5 108t31.5 118.5h-377q-87 0 -63 122q20 123 106 123h375q31 349 -223 349q-117 0 -182.5 -55t-112.5 -175q-19 -52 -57.5 -70t-106.5 -20 q-65 -3 -101.5 23.5t-23.5 74.5q60 211 219.5 336t407.5 125q112 0 197 -24t139.5 -71t88 -110.5t44 -148.5t5 -178.5t-25.5 -206.5q-24 -137 -58.5 -244.5t-91 -203t-132 -158t-183.5 -98.5t-243 -36q-249 0 -365.5 119.5t-103.5 319.5z" />
<glyph unicode="&#x42e;" horiz-adv-x="1816" d="M43 78l223 1268q18 96 156 96q59 0 93 -22t24 -74l-84 -478h182q159 588 680 588q128 0 221 -35.5t148 -99t81 -156.5t25 -203t-25 -245q-30 -169 -82.5 -299.5t-136.5 -232t-208 -155t-283 -53.5q-546 0 -467 646h-178l-97 -545q-15 -96 -151 -96q-59 0 -94 22t-27 74z M862.5 490.5q0.5 -59.5 14.5 -106t39 -85t71.5 -59.5t110.5 -21q76 0 138 31.5t102.5 79t72 117.5t48.5 132.5t30 137.5q11 62 16 115t5 113t-14 106t-39 85t-72 60t-111 21q-77 0 -139.5 -31.5t-102.5 -79t-71.5 -118t-48 -133t-29.5 -138.5q-11 -61 -16 -114t-4.5 -112.5z " />
<glyph unicode="&#x42f;" horiz-adv-x="1228" d="M-60.5 57.5q1.5 26.5 27.5 59.5q27 34 56 76t45.5 69t49 81.5t44.5 74.5q84 140 196 213q-101 41 -154 138.5t-28 234.5q33 194 176 312t332 118h360q34 0 60 -4t52.5 -15.5t39 -31.5t20 -52t-3.5 -78l-206 -1175q-15 -96 -152 -96q-59 0 -93 22t-26 74l88 500h-123 q-82 0 -141 -48.5t-110 -134.5q-26 -41 -73 -124.5t-84 -141t-73 -94.5q-51 -58 -158 -53q-31 1 -58 9.5t-46 24t-17.5 42zM459 1004q-15 -85 22.5 -139t120.5 -54h262l62 342q3 20 -4 27.5t-25 7.5h-227q-86 0 -141 -48.5t-70 -135.5z" />
<glyph unicode="&#x430;" horiz-adv-x="1089" d="M25 475q25 149 95 263.5t172 184t223.5 104t258.5 34.5h94q99 0 139.5 -54t26.5 -141l-108 -616q-16 -96 -4 -178q6 -44 -27.5 -70t-85.5 -31q-115 -11 -156 92q-52 -41 -132 -66.5t-150 -25.5q-211 0 -298.5 131t-47.5 373zM304.5 320.5q3.5 -63.5 36.5 -100t97 -36.5 q46 0 85.5 18.5t66 47t47.5 68t33.5 77t19.5 78.5l51 289q12 41 3.5 56.5t-58.5 15.5q-70 0 -130 -22.5t-101 -59t-72 -85t-48 -98t-24 -100.5q-10 -85 -6.5 -148.5z" />
<glyph unicode="&#x431;" horiz-adv-x="1148" d="M77 359.5q-3 85.5 9 185.5q20 139 61 262.5t109 239.5t173.5 210.5t240.5 155.5q61 27 181 75l130 52q52 24 95.5 11.5t56.5 -62.5q33 -119 -80 -178q-38 -21 -86.5 -38.5t-112.5 -36.5t-96 -30q-101 -36 -173.5 -83.5t-115.5 -123.5q37 32 115 51t131 19q446 0 352 -539 q-21 -123 -64.5 -220.5t-111.5 -173t-169 -116t-228 -40.5q-104 0 -182.5 27t-127 77t-76.5 120t-31 155.5zM350 441.5q-2 -43.5 5.5 -89.5t25.5 -80.5t54 -56.5t87 -22q210 2 269 337q11 60 11.5 111t-12.5 100.5t-54 78t-107 28.5q-54 0 -97 -20t-70.5 -50t-48.5 -75 t-32.5 -84.5t-20.5 -88.5q-8 -45 -10 -88.5z" />
<glyph unicode="&#x432;" horiz-adv-x="1019" d="M33 363q-2 83 12 174q20 115 66 212t116.5 172t171.5 118.5t222 45.5q56 1 110.5 -10t102 -36.5t80.5 -61.5t46.5 -88t0.5 -113q-12 -65 -58.5 -120t-116.5 -87q70 -28 106.5 -92t27.5 -149q-20 -164 -149 -259.5t-322 -93.5q-102 0 -181.5 29.5t-127.5 81.5t-76.5 123 t-30.5 154zM305 345q5 -47 21.5 -83.5t53.5 -59t89 -22.5q68 -2 118.5 41t59.5 115q5 39 -9.5 65t-44 37.5t-57 16t-61.5 4.5q-76 -3 -164 -19q-11 -48 -6 -95zM360 655q82 4 132 11q37 4 66.5 11.5t59.5 21.5t50.5 39.5t29.5 60.5q9 40 -19 57.5t-67 17.5q-90 0 -153 -61.5 t-99 -157.5z" />
<glyph unicode="&#x433;" horiz-adv-x="917" d="M12 330q6 63 29 112t56 81.5t82.5 57t97.5 39t112 27.5q3 1 39 7.5t50 10t46 13.5t48 20.5t32 28t21 39.5q12 57 -29 82.5t-102 25.5q-39 0 -74.5 -16t-50.5 -30t-44 -44l-8 -8q-49 -54 -139 -35q-62 14 -75 56.5t20 97.5q53 99 154 145.5t229 46.5q63 0 122.5 -15 t110 -46t86.5 -73t52 -100.5t6 -125.5q-10 -68 -44 -117.5t-90.5 -81t-113 -50t-135.5 -34.5q-124 -27 -174.5 -55.5t-51.5 -85.5q0 -53 43.5 -83t98.5 -30q137 0 202 117q44 79 150 64q68 -12 86.5 -54.5t-10.5 -97.5q-42 -88 -114 -145t-153 -80t-178 -23 q-109 0 -198.5 39t-144 122.5t-44.5 197.5z" />
<glyph unicode="&#x434;" horiz-adv-x="1128" d="M33 359q-3 84 12 180q43 242 184.5 387t358.5 145q61 0 133.5 -21.5t114.5 -74.5q2 118 -53 188t-167 82q-100 12 -215 -22q-60 -18 -90 4t-28 80q0 49 21 78.5t69 48.5q142 50 311 32q129 -12 210 -65t126 -152q106 -243 10 -696q-28 -131 -70 -230t-108.5 -179 t-165.5 -122t-229 -42q-103 0 -182.5 27.5t-129.5 78t-79.5 120t-32.5 153.5zM322 539q-65 -344 145 -346q51 0 95 22.5t74.5 58t55 83t38.5 92t22 90.5q8 49 11 88t-2.5 82.5t-23 73t-53.5 48.5t-90 19q-218 0 -272 -311z" />
<glyph unicode="&#x435;" d="M50 391.5q-2 70.5 13 145.5q20 113 63 208.5t111.5 174t170.5 123t227 44.5q208 0 303.5 -120t58.5 -318q-18 -99 -68.5 -137.5t-148.5 -38.5h-452q-10 -51 -6 -100.5t18 -89t53 -63.5t99 -23q62 0 103.5 26t80.5 82q41 59 158 47q41 -5 60 -24t17.5 -41t-14.5 -45 q-62 -129 -182 -200t-269 -71q-83 0 -150 21.5t-112 59.5t-76.5 90.5t-43.5 115.5t-14 133.5zM371 664h336q17 0 29.5 11t15.5 34q7 80 -31.5 124t-110.5 44q-87 0 -149 -57t-90 -156z" />
<glyph unicode="&#x436;" horiz-adv-x="1452" d="M-50 14.5q-16 28.5 15 77.5q27 42 59 110t58 124t61 113t84.5 98t110.5 59q-44 21 -71.5 68t-55.5 124q-35 112 -64 175q-26 56 6.5 84t100.5 30q57 2 91 -9.5t56 -43.5q25 -37 56 -135q2 -5 10.5 -31.5t11 -33.5t12 -29t15.5 -30l18 -24t24 -23.5t29 -16t37 -13.5 l52 295q18 98 147 98q57 0 90 -22t23 -76l-52 -295q52 11 96.5 44.5t64.5 59.5t58 84q6 9 9 13q6 8 22.5 33t25.5 38t24.5 31.5t29.5 32.5q35 32 72 43.5t94 9.5q43 -1 68 -12.5t28.5 -36.5t-30.5 -65q-28 -35 -73 -100.5t-52 -74.5q-107 -156 -193 -192q55 -17 90 -57.5 t49.5 -98t21 -113.5t13.5 -124.5t19 -110.5q27 -101 -107 -112q-150 -14 -166 112q-4 32 -8.5 79t-7 73t-8 61t-13 54t-21.5 41t-33 32t-47.5 17t-65.5 6l-68 -377q-15 -98 -148 -98q-55 0 -87.5 22t-24.5 76l67 377q-38 1 -68.5 -6t-53.5 -17.5t-44.5 -31.5t-36 -40.5 t-32.5 -54t-30 -61.5t-33 -72.5t-37 -79.5q-56 -126 -203 -112q-69 6 -85 34.5z" />
<glyph unicode="&#x437;" horiz-adv-x="925" d="M-6 225q-5 59 25 97.5t102 42.5q47 4 78.5 -11.5t42.5 -68.5q10 -49 42.5 -75t82.5 -26q70 0 121.5 36t62.5 104q12 66 -31.5 96.5t-113.5 30.5q-58 0 -75.5 24t-8.5 76q5 30 15 50.5t21 31.5t28.5 17t30.5 7.5t34 1.5q65 0 105.5 31t49.5 86q10 53 -22 75.5t-90 22.5 q-61 0 -100.5 -23t-71.5 -79q-16 -27 -57.5 -39.5t-80.5 -7.5q-49 7 -71 31.5t-2 68.5q58 136 175 200.5t259 64.5q72 0 134 -18.5t109 -54.5t68 -96t8 -135q-21 -135 -147 -221q59 -38 81 -104t9 -144q-20 -109 -94 -190t-171 -118.5t-202 -37.5q-89 0 -162 24.5t-125 83.5 t-59 146z" />
<glyph unicode="&#x438;" horiz-adv-x="1116" d="M63 389l105 594q18 98 156 98q59 0 93.5 -22t26.5 -76l-104 -590q-6 -35 -7 -62t5 -56.5t29.5 -45.5t62.5 -16q117 0 183 77t89 199l86 494q18 98 156 98q59 0 94 -22t25 -76l-158 -901q-10 -54 -49.5 -78t-93.5 -24q-55 0 -80.5 22.5t-28.5 75.5l-2 22 q-142 -133 -293 -133q-368 0 -295 422z" />
<glyph unicode="&#x439;" horiz-adv-x="1116" d="M63 389l105 594q18 98 156 98q59 0 93.5 -22t26.5 -76l-104 -590q-6 -35 -7 -62t5 -56.5t29.5 -45.5t62.5 -16q117 0 183 77t89 199l86 494q18 98 156 98q59 0 94 -22t25 -76l-158 -901q-10 -54 -49.5 -78t-93.5 -24q-55 0 -80.5 22.5t-28.5 75.5l-2 22 q-142 -133 -293 -133q-368 0 -295 422zM352 1315q-6 25 3.5 52t35.5 46q31 22 65.5 21t49.5 -23q54 -72 147 -72q90 0 172 76q24 24 62 22.5t65 -28.5q21 -19 25.5 -46.5t-10.5 -51.5q-50 -73 -144 -115.5t-192 -42.5q-102 0 -180 48t-99 114z" />
<glyph unicode="&#x43a;" horiz-adv-x="1044" d="M43 78l160 905q18 98 155 98q59 0 94 -22t25 -76l-51 -297q56 10 104.5 43t75 64t74 95.5t72.5 94.5q47 55 97.5 78.5t119.5 19.5q43 -2 70.5 -16.5t33 -41.5t-30.5 -67q-32 -36 -104 -131t-130.5 -155t-117.5 -82q59 -17 97 -57t54.5 -96.5t24 -111.5t15.5 -123.5 t20 -109.5q32 -101 -106 -113q-155 -14 -172 113q-2 19 -7 55q-5 42 -7.5 62t-8.5 54.5t-11.5 51t-15 41.5t-20.5 37t-27.5 27t-37 21t-47 10.5t-58.5 3.5l-66 -375q-15 -98 -153 -98q-136 0 -121 98z" />
<glyph unicode="&#x43b;" horiz-adv-x="1110" d="M-66 88q9 54 35.5 85t59.5 36q29 3 58.5 28t43.5 68q24 73 51 182.5t52 224.5t34 150q49 199 228 199h381q100 0 132 -53t17 -146l-139 -784q-15 -98 -154 -98q-136 0 -121 98l127 721q7 41 -28 41h-154q-40 0 -47 -41q-12 -46 -50 -210t-63 -251q-27 -85 -56 -145 t-71 -112t-101 -78t-136 -26q-59 0 -82 25.5t-17 85.5z" />
<glyph unicode="&#x43c;" horiz-adv-x="1290" d="M43 78l158 897q10 55 52.5 80.5t100.5 25.5q49 0 79 -15t44 -52l162 -463l326 463q46 67 147 67q57 0 90 -25.5t23 -80.5l-158 -897q-8 -52 -50.5 -75t-101.5 -23q-60 0 -93 22t-25 76l88 491q-50 -85 -64 -104l-129 -182q-43 -60 -110 -60q-70 0 -90 60l-66 180 q-17 51 -25 106l-88 -491q-15 -98 -151 -98q-60 0 -93.5 22.5t-25.5 75.5z" />
<glyph unicode="&#x43d;" horiz-adv-x="1146" d="M43 78l160 905q18 98 155 98q59 0 94 -22t25 -76l-55 -313h332l55 313q18 98 156 98q60 0 94 -22t24 -76l-159 -905q-15 -98 -154 -98q-59 0 -94 22t-27 76l66 371h-332l-66 -371q-15 -98 -153 -98q-136 0 -121 98z" />
<glyph unicode="&#x43e;" horiz-adv-x="1081" d="M61 530q97 551 568 551q467 0 370 -551q-97 -550 -565 -550q-470 0 -373 550zM313.5 375q0.5 -41 9.5 -72.5t26 -58t48 -40.5t74 -14q52 0 94 21.5t69 53.5t48 80t32.5 90.5t20.5 94.5q6 37 10 67t5 66.5t-3 64.5t-14.5 55.5t-28.5 46t-47 29.5t-67 11q-52 0 -94.5 -21.5 t-69 -53.5t-47 -80.5t-31.5 -90t-20 -94.5q-8 -42 -11.5 -78t-3 -77z" />
<glyph unicode="&#x43f;" horiz-adv-x="1132" d="M33 78l160 905q16 94 137 98q60 2 88.5 -20.5t25.5 -79.5v-25q136 138 328 138q76 0 132.5 -20.5t88.5 -57t50 -87t17 -110.5t-11 -127l-109 -614q-18 -98 -156 -98q-59 0 -93.5 22t-24.5 76l102 590q5 41 4.5 81t-27 69.5t-77.5 29.5q-62 0 -111.5 -24t-82 -65.5 t-52.5 -90t-31 -105.5l-84 -485q-18 -98 -155 -98q-55 0 -91 23t-28 75z" />
<glyph unicode="&#x440;" horiz-adv-x="1159" d="M-20 -283l223 1264q19 104 143 104q53 0 85.5 -19.5t31.5 -70.5q47 41 119.5 66.5t142.5 25.5q121 0 202.5 -40.5t119.5 -114t46.5 -175.5t-16.5 -225q-22 -125 -66 -225.5t-111 -175.5t-161.5 -115.5t-210.5 -40.5q-144 0 -215 80l-59 -338q-18 -98 -154 -98 q-38 0 -65 7.5t-44.5 30.5t-10.5 60zM384 392.5q4 -54.5 18 -100t50.5 -75t88.5 -29.5q48 0 87.5 22t64.5 54t45 81t30.5 91t19.5 96q10 53 14.5 95.5t1.5 90.5t-16.5 80.5t-45.5 54t-80 21.5q-95 0 -165 -88.5t-89 -197.5l-17 -92q-11 -49 -7 -103.5z" />
<glyph unicode="&#x441;" horiz-adv-x="1042" d="M61 530q97 551 568 551q174 0 272 -83t90 -222q-3 -61 -35.5 -87.5t-103.5 -26.5q-52 2 -78.5 17.5t-32.5 55.5q-8 70 -42.5 102.5t-108.5 32.5q-52 0 -94.5 -21.5t-69.5 -53.5t-48 -80.5t-32 -90t-20 -94.5q-60 -340 145 -340q121 0 203 134q43 72 145 75q63 2 90 -24.5 t6 -79.5q-59 -146 -183 -230.5t-298 -84.5q-470 0 -373 550z" />
<glyph unicode="&#x442;" horiz-adv-x="1714" d="M33 78l160 905q16 94 137 98q60 2 88.5 -20.5t25.5 -79.5v-25q136 138 328 138q104 0 159 -43.5t89 -130.5q92 95 185.5 134.5t172.5 39.5q75 0 128.5 -23t82 -60.5t41.5 -91t11.5 -109t-13.5 -120.5l-106 -612q-18 -98 -156 -98q-136 0 -121 98l105 590q5 28 7 49 t0 47.5t-11 43.5t-30 28.5t-52 11.5q-60 0 -108.5 -24.5t-79 -66.5t-49.5 -89t-28 -101l-86 -489q-18 -98 -155 -98q-59 0 -94 22t-25 76l100 575q34 195 -92 195q-56 0 -101.5 -24.5t-75 -67t-48.5 -91t-29 -104.5l-86 -483q-18 -98 -155 -98q-59 0 -94 22t-25 76z" />
<glyph unicode="&#x443;" horiz-adv-x="983" d="M-57 -223q22 125 133 114q46 -6 91.5 19.5t68.5 69.5l45 90l-177 854q-26 134 115 147q65 7 106.5 -3.5t49.5 -53.5l102 -563l293 563q21 43 65 53.5t109 3.5q65 -6 78 -38t-23 -103l-563 -1065q-138 -264 -432 -215q-81 13 -61 127z" />
<glyph unicode="&#x444;" horiz-adv-x="1396" d="M41 528q43 243 192.5 382.5t415.5 156.5l51 281q15 94 150 94q57 0 91 -21.5t26 -72.5l-52 -281q241 -15 352 -152.5t68 -386.5q-42 -245 -197 -378.5t-411 -153.5l-45 -258q-18 -96 -150 -96q-59 0 -92.5 22t-23.5 74l45 258q-508 29 -420 532zM330 537 q-27 -152 15.5 -230t152.5 -104l114 655q-117 -21 -186 -96t-96 -225zM764 203q119 26 189.5 104t97.5 230q27 149 -18 224.5t-154 96.5z" />
<glyph unicode="&#x445;" horiz-adv-x="944" d="M-59.5 37.5q-13.5 38.5 34.5 95.5l344 420l-172 385q-26 62 9 94t104 37q35 1 64.5 1t54 -13.5t33.5 -42.5l92 -258l180 258q20 29 49.5 42.5t59.5 13.5t65 -1q41 -3 65.5 -16.5t29 -42t-32.5 -72.5l-306 -385l195 -420q28 -57 2 -95.5t-100 -41.5q-39 -1 -71.5 -1 t-59.5 16t-41 50l-107 293l-211 -293q-24 -34 -56.5 -50t-66 -16t-73.5 1q-71 3 -84.5 41.5z" />
<glyph unicode="&#x446;" horiz-adv-x="1169" d="M66 201l137 782q18 98 155 98q59 0 94 -22t25 -76l-127 -721q-7 -41 31 -41h266l133 762q18 98 156 98q59 0 94 -22t25 -76l-133 -762q85 -6 116 -49.5t17 -122.5l-35 -194q-10 -55 -43.5 -77t-89.5 -22q-58 0 -85.5 22t-17.5 77l19 104q7 41 -29 41h-561 q-183 0 -147 201z" />
<glyph unicode="&#x447;" horiz-adv-x="1075" d="M106 664l56 319q18 98 155 98q61 0 95 -22t24 -76l-51 -293q-13 -76 16.5 -111.5t104.5 -35.5q81 0 160 49l69 391q18 98 156 98q61 0 96 -22t25 -76l-160 -905q-15 -98 -156 -98q-59 0 -94 22t-27 76l54 297q-104 -36 -219 -39q-167 -5 -250 81.5t-54 246.5z" />
<glyph unicode="&#x448;" horiz-adv-x="1636" d="M66 201l137 782q18 98 155 98q59 0 94 -22t25 -76l-127 -721q-7 -41 31 -41h235l134 762q18 98 155 98q61 0 95 -22t24 -76l-133 -762h237q36 0 43 41l127 721q18 98 156 98q59 0 94 -22t25 -76l-137 -782q-36 -201 -219 -201h-1004q-183 0 -147 201z" />
<glyph unicode="&#x449;" horiz-adv-x="1687" d="M66 201l137 782q18 98 155 98q59 0 94 -22t25 -76l-127 -721q-7 -41 31 -41h235l134 762q18 98 155 98q61 0 95 -22t24 -76l-133 -762h274l133 762q18 98 156 98q59 0 94 -22t25 -76l-133 -762q85 -6 116 -49.5t17 -122.5l-35 -194q-10 -55 -43.5 -77t-89.5 -22 q-58 0 -85 22t-17 77l18 104q7 41 -29 41h-1079q-183 0 -147 201z" />
<glyph unicode="&#x44a;" horiz-adv-x="1107" d="M74 950q20 111 116 111h207q103 0 141 -43t23 -129l-33 -189h226q71 0 125.5 -16.5t87 -45t53 -63t27.5 -76t6.5 -77t-6.5 -72.5q-8 -44 -25.5 -88.5t-51.5 -92.5t-79 -85t-112.5 -60.5t-147.5 -23.5h-318q-183 0 -147 201l104 598q7 41 -28 41h-90q-94 0 -78 110z M449 252q-7 -41 26 -41h150q48 0 91 35.5t56 103.5q11 67 -20.5 102t-79.5 35h-183z" />
<glyph unicode="&#x44b;" horiz-adv-x="1472" d="M66 201l137 782q18 98 155 98q59 0 94 -22t25 -76l-49 -283h203q71 0 126 -16.5t87.5 -45t53 -63t27 -76t6 -77t-6.5 -72.5q-8 -44 -25.5 -88.5t-51.5 -92.5t-79 -85t-112.5 -60.5t-147.5 -23.5h-295q-183 0 -147 201zM348 252q-7 -41 27 -41h127q48 0 91 35.5t56 103.5 q11 67 -20.5 102t-79.5 35h-160zM975 78l160 905q18 98 155 98q59 0 94 -22t25 -76l-160 -905q-15 -98 -153 -98q-136 0 -121 98z" />
<glyph unicode="&#x44c;" horiz-adv-x="1013" d="M66 201l137 782q18 98 155 98q61 0 95 -22t24 -76l-49 -283h231q71 0 125.5 -16.5t87 -45t53 -63t27.5 -76t6.5 -77t-6.5 -72.5q-8 -44 -25.5 -88.5t-51.5 -92.5t-78.5 -84.5t-112 -60.5t-147.5 -24h-324q-183 0 -147 201zM348 252q-7 -41 29 -41h153q48 0 91.5 35.5 t56.5 103.5q11 67 -20.5 102t-79.5 35h-189z" />
<glyph unicode="&#x44d;" horiz-adv-x="1042" d="M16 233q-8 53 26 89.5t97 42.5q106 10 129 -56q21 -56 58.5 -87.5t105.5 -31.5q98 -1 158.5 69t87.5 177h-240q-98 0 -78 111q7 47 35 78.5t82 31.5h236q10 94 -29 152.5t-133 58.5q-69 0 -113.5 -26.5t-81.5 -83.5q-30 -46 -66.5 -59.5t-84.5 -6.5q-138 15 -60 156 q59 107 169.5 169t273.5 62q469 0 373 -551q-96 -548 -566 -548q-168 0 -266 67.5t-113 185.5z" />
<glyph unicode="&#x44e;" horiz-adv-x="1591" d="M43 78l160 905q18 98 155 98q61 0 95 -22t24 -76l-55 -313h182q66 195 198.5 303t336.5 108q466 0 370 -551q-96 -548 -565 -548q-218 0 -311 121.5t-72 345.5h-178l-66 -371q-15 -98 -153 -98q-59 0 -94 22t-27 76zM836 530q-60 -337 145 -337q52 0 94 21t69 53t48 79.5 t32.5 89.5t20.5 94q6 36 10 67t5 66.5t-3 64t-15 56t-29 46t-46.5 29.5t-66.5 11q-52 0 -94.5 -21.5t-69.5 -53.5t-48 -80.5t-32 -90t-20 -94.5z" />
<glyph unicode="&#x44f;" horiz-adv-x="1081" d="M-39 52.5q-6 28.5 29 64.5t72 90.5t63 97t69 88t95 74.5q-60 16 -101 60.5t-55 98t-6 105.5q8 43 25.5 85.5t51 88t78 79t112 55.5t147.5 22h309q67 0 104.5 -27t43.5 -71t-1 -101l-139 -784q-15 -98 -153 -98q-136 0 -121 98l57 317h-76q-42 0 -80 -21.5t-70.5 -61 t-55.5 -75.5t-52 -86t-43 -71q-38 -58 -80.5 -78.5t-113.5 -15.5q-42 3 -72.5 20.5t-36.5 46zM401 731q-11 -67 19.5 -95t81.5 -28h176l35 201q7 41 -27 41h-141q-51 0 -91.5 -27t-52.5 -92z" />
<glyph unicode="&#x451;" d="M50 391.5q-2 70.5 13 145.5q20 113 63 208.5t111.5 174t170.5 123t227 44.5q208 0 303.5 -120t58.5 -318q-18 -99 -68.5 -137.5t-148.5 -38.5h-452q-10 -51 -6 -100.5t18 -89t53 -63.5t99 -23q62 0 103.5 26t80.5 82q41 59 158 47q41 -5 60 -24t17.5 -41t-14.5 -45 q-62 -129 -182 -200t-269 -71q-83 0 -150 21.5t-112 59.5t-76.5 90.5t-43.5 115.5t-14 133.5zM371 664h336q17 0 29.5 11t15.5 34q7 80 -31.5 124t-110.5 44q-87 0 -149 -57t-90 -156zM373 1313q20 129 151 129q68 0 91.5 -33t13.5 -96q-11 -63 -46 -97t-106 -34t-93 33.5 t-11 97.5zM719 1313q20 129 149 129q69 0 92 -33t13 -96q-11 -63 -46 -97t-106 -34t-92 33.5t-10 97.5z" />
<glyph unicode="&#x452;" horiz-adv-x="1173" d="M61 76l191 1083h-94q-57 0 -41 84q12 80 69 80h95l4 20q18 101 157 101q58 0 93.5 -23t25.5 -78l-4 -20h182q57 0 45 -80q-16 -84 -73 -84h-183l-30 -182q140 119 309 119q165 0 238 -90t40 -275l-149 -854q-13 -73 -48 -129.5t-82 -88t-97 -47.5t-101 -18 q-104 0 -143 35.5t-27 91.5q8 28 33 48t55 20q73 -3 99 19t37 86l137 778q32 176 -88 176q-69 0 -122.5 -28t-86.5 -76t-52.5 -99t-29.5 -110l-82 -459q-8 -52 -51.5 -74t-102.5 -22q-63 0 -97 21.5t-26 74.5z" />
<glyph unicode="&#x453;" horiz-adv-x="825" d="M43 76l139 784q32 201 215 201h383q51 0 69 -31.5t9 -77.5q-8 -49 -36.5 -80.5t-80.5 -31.5h-254q-36 0 -43 -41l-127 -723q-8 -52 -51.5 -74t-101.5 -22q-61 0 -95 21.5t-26 74.5zM493 1214.5q1 15.5 13 34.5l94 156q25 35 53.5 48t71.5 13q55 0 80 -6q33 -6 44 -23 t1 -40t-39 -49l-139 -140q-33 -28 -62 -37t-67 -2q-13 3 -23 7.5t-19 13.5t-8 24.5z" />
<glyph unicode="&#x454;" horiz-adv-x="1042" d="M61 528q97 553 568 553q162 0 250 -62.5t110 -170.5q27 -141 -115 -156q-50 -7 -81.5 6.5t-44.5 59.5q-16 56 -52 83t-106 27q-94 0 -153 -58.5t-83 -152.5h236q96 0 80 -110q-20 -111 -119 -111h-240q-7 -47 -0.5 -91.5t22.5 -79t51.5 -55.5t86.5 -20q68 0 115.5 31 t91.5 88q50 66 147 56q60 -6 82 -42.5t-4 -89.5q-60 -119 -180.5 -186t-288.5 -67q-469 0 -373 548z" />
<glyph unicode="&#x455;" horiz-adv-x="972" d="M23 221q-14 58 12.5 99t97.5 53q111 15 133 -64q40 -116 174 -116q56 0 106.5 29t63.5 83q10 56 -35.5 81.5t-168.5 51.5q-34 7 -63 15.5t-60.5 20.5t-55.5 25.5t-48 33t-38 41.5t-26 51t-11.5 62.5t5.5 74.5q19 103 92 179.5t168.5 112.5t197.5 36q140 0 233.5 -56 t114.5 -174q7 -54 -18 -81.5t-84 -35.5q-120 -15 -156 52q-43 82 -129 82q-142 0 -159 -93q-3 -21 4 -38t25.5 -29t34 -20t44 -15t39.5 -9.5t35 -6.5q40 -8 72.5 -16.5t68 -20.5t61 -26t51.5 -33.5t40.5 -42.5t27 -52.5t11.5 -64.5t-6 -78q-20 -114 -93.5 -197.5 t-172 -122.5t-208.5 -39q-149 0 -250 59.5t-130 188.5z" />
<glyph unicode="&#x456;" horiz-adv-x="565" d="M55 80l160 903q18 98 156 98q59 0 93.5 -22t24.5 -76l-159 -903q-15 -98 -154 -98q-136 0 -121 98zM262 1313q11 67 49.5 101t122.5 34q83 0 110.5 -34.5t16.5 -100.5q-12 -68 -50.5 -106t-125.5 -38q-88 0 -111.5 37.5t-11.5 106.5z" />
<glyph unicode="&#x457;" horiz-adv-x="587" d="M68 78l159 905q18 98 156 98q59 0 94 -22t25 -76l-160 -905q-15 -98 -154 -98q-135 0 -120 98zM139 1321q11 59 44.5 90t99.5 31t87.5 -31t10.5 -90q-20 -125 -143 -125q-66 0 -87.5 32t-11.5 93zM467 1321q11 59 44 90t99 31q64 0 86 -31t11 -90q-10 -60 -42.5 -92.5 t-99.5 -32.5t-87.5 32t-10.5 93z" />
<glyph unicode="&#x458;" horiz-adv-x="573" d="M-211 -215q10 61 45 89t100 28q59 0 86 37.5t33 83.5l170 960q18 98 156 98q61 0 95 -22t24 -76l-179 -1016q-32 -174 -155.5 -258t-300.5 -65q-50 6 -67 45t-7 96zM270 1313q11 67 49.5 101t122.5 34t111 -34t16 -101q-12 -69 -50 -106.5t-126 -37.5q-86 0 -110.5 37.5 t-12.5 106.5z" />
<glyph unicode="&#x459;" horiz-adv-x="1583" d="M-66 88q4 55 31 86.5t64 36.5q29 3 57.5 27t44.5 67q32 95 81 311.5t56 243.5q48 201 228 201h381q101 0 133.5 -53.5t17.5 -147.5l-29 -160h232q70 0 124.5 -16.5t86.5 -45t52.5 -63.5t27 -76t6 -77.5t-7.5 -73.5q-7 -43 -25 -87.5t-51.5 -92t-78.5 -84.5t-111.5 -60.5 t-145.5 -23.5h-326q-183 0 -147 201l104 598q7 41 -28 41h-156q-38 0 -45 -41q-15 -51 -52 -214t-63 -247t-55 -145t-71.5 -112t-102 -77.5t-135.5 -26.5q-60 0 -83 26.5t-14 84.5zM920 252q-7 -41 26 -41h152q50 0 92 35t53 102q13 67 -17.5 103t-80.5 36h-184z" />
<glyph unicode="&#x45a;" horiz-adv-x="1622" d="M43 76l160 909q18 96 155 96q61 0 95 -21.5t24 -74.5l-51 -291h334l51 291q18 96 156 96q61 0 95.5 -22t24.5 -74l-51 -291h232q71 0 125.5 -16t87 -44t53 -62t27 -74.5t6 -76.5t-7.5 -73q-8 -43 -25 -87.5t-50 -92.5t-77.5 -84.5t-112 -60t-147.5 -23.5h-324 q-185 0 -149 201l49 280h-334l-72 -405q-15 -96 -153 -96q-58 0 -93.5 22t-27.5 74zM958 252q-7 -41 29 -41h154q47 0 89.5 35t53.5 102q12 66 -18 99.5t-78 33.5h-189z" />
<glyph unicode="&#x45b;" horiz-adv-x="1193" d="M80 76l190 1083h-90q-59 0 -43 84q12 80 72 80h90l4 20q18 101 158 101q60 0 94.5 -23t24.5 -78l-5 -20h183q63 0 51 -80q-7 -36 -26.5 -60t-53.5 -24h-182l-31 -182q147 119 309 119q167 0 240.5 -90t40.5 -275l-115 -655q-15 -96 -157 -96q-58 0 -93.5 22t-27.5 74 l104 596q6 34 7 60.5t-5 55t-28.5 44.5t-61.5 16q-67 0 -120.5 -28t-87 -75.5t-53.5 -99t-30 -110.5l-82 -459q-15 -96 -153 -96q-61 0 -96 22t-27 74z" />
<glyph unicode="&#x45c;" horiz-adv-x="1046" d="M43 76l160 909q18 96 155 96q59 0 93 -22t24 -74l-51 -297q46 8 84 27.5t71.5 52.5t56.5 61t59.5 77.5t60.5 78.5q87 107 215 96q42 -2 70.5 -16.5t34.5 -40.5t-29 -63q-35 -38 -107 -134t-130.5 -156.5t-117.5 -82.5q59 -17 96.5 -56.5t54.5 -96.5t25 -111.5t16.5 -124 t20.5 -111.5q29 -97 -108 -111q-161 -11 -174 111l-6 51q-4 39 -6.5 57.5t-7 51t-9 48t-12 40t-16.5 36.5t-21.5 28.5t-28.5 24t-36 15.5t-44.5 10t-54.5 1l-66 -375q-15 -96 -151 -96q-59 0 -94 22t-27 74zM553 1202q-6 17 12 43l97 156q44 66 124 63q58 0 78 -8 q34 -6 46 -22.5t2.5 -39.5t-38.5 -51l-145 -139q-58 -52 -121 -39q-21 3 -35 11.5t-20 25.5z" />
<glyph unicode="&#x45e;" horiz-adv-x="983" d="M-57 -223q22 125 133 114q46 -6 91.5 19.5t68.5 69.5l45 90l-177 854q-26 134 115 147q65 7 106.5 -3.5t49.5 -53.5l102 -563l293 563q21 43 65 53.5t109 3.5q65 -6 78 -38t-23 -103l-563 -1065q-138 -264 -432 -215q-81 13 -61 127zM342 1313q-7 23 5 49.5t40 46.5 t62 23t51 -17q57 -76 151 -76q99 0 178 76q26 20 58.5 17t54.5 -23q20 -20 22.5 -46.5t-12.5 -49.5q-44 -65 -138.5 -113.5t-195.5 -48.5q-100 0 -178 48.5t-98 113.5z" />
<glyph unicode="&#x45f;" horiz-adv-x="1144" d="M66 201l137 784q18 96 157 96q60 0 94.5 -22t24.5 -74l-127 -723q-7 -41 29 -41h256q36 0 43 41l127 723q18 96 156 96q59 0 93.5 -22t24.5 -74l-137 -784q-17 -94 -68 -147.5t-151 -53.5h-129l-35 -195q-15 -88 -143 -88q-54 0 -84.5 19.5t-22.5 68.5l35 195h-131 q-185 0 -149 201z" />
<glyph unicode="&#x490;" horiz-adv-x="980" d="M43 76l207 1177q8 46 26 79.5t39 52.5t51 30.5t57 15t62 3.5h359q31 0 45 14t20 49l47 262q13 78 119 78q47 0 73 -18t19 -60l-65 -375q-36 -196 -244 -196h-311q-35 0 -41 -35l-191 -1077q-15 -92 -153 -92q-59 0 -93 21t-26 71z" />
<glyph unicode="&#x491;" horiz-adv-x="886" d="M43 76l139 784q32 201 217 201h308q20 0 30.5 8.5t16.5 36.5l49 276q10 66 108 66q36 0 63.5 -16t22.5 -50l-63 -350q-19 -112 -73 -152t-146 -40h-228q-38 0 -45 -41l-127 -723q-15 -96 -151 -96t-121 96z" />
<glyph unicode="&#x2000;" horiz-adv-x="918" />
<glyph unicode="&#x2001;" horiz-adv-x="1837" />
<glyph unicode="&#x2002;" horiz-adv-x="918" />
<glyph unicode="&#x2003;" horiz-adv-x="1837" />
<glyph unicode="&#x2004;" horiz-adv-x="612" />
<glyph unicode="&#x2005;" horiz-adv-x="459" />
<glyph unicode="&#x2006;" horiz-adv-x="306" />
<glyph unicode="&#x2007;" horiz-adv-x="306" />
<glyph unicode="&#x2008;" horiz-adv-x="229" />
<glyph unicode="&#x2009;" horiz-adv-x="367" />
<glyph unicode="&#x200a;" horiz-adv-x="102" />
<glyph unicode="&#x2010;" horiz-adv-x="716" d="M63 535q7 49 31 81.5t66 32.5h415q78 0 62 -114q-21 -113 -100 -113h-416q-42 0 -54.5 32.5t-3.5 80.5z" />
<glyph unicode="&#x2011;" horiz-adv-x="716" d="M63 535q7 49 31 81.5t66 32.5h415q78 0 62 -114q-21 -113 -100 -113h-416q-42 0 -54.5 32.5t-3.5 80.5z" />
<glyph unicode="&#x2012;" horiz-adv-x="716" d="M63 535q7 49 31 81.5t66 32.5h415q78 0 62 -114q-21 -113 -100 -113h-416q-42 0 -54.5 32.5t-3.5 80.5z" />
<glyph unicode="&#x2013;" horiz-adv-x="1163" d="M86 668q20 112 100 112h861q79 0 59 -112q-21 -113 -100 -113h-861q-80 0 -59 113z" />
<glyph unicode="&#x2014;" horiz-adv-x="1757" d="M61 528q20 107 91 107h1468q75 0 55 -107q-20 -104 -92 -104h-1468q-74 0 -54 104z" />
<glyph unicode="&#x2018;" horiz-adv-x="501" d="M178.5 949q3.5 39 30.5 85l190 332q48 81 136 78q48 -3 64.5 -31t2.5 -74l-121 -372q-45 -126 -188 -117q-62 4 -90 32t-24.5 67z" />
<glyph unicode="&#x2019;" horiz-adv-x="501" d="M180 954l121 373q42 126 188 117q61 -4 89 -32t25 -67t-30 -85l-192 -332q-46 -81 -133 -78q-98 6 -68 104z" />
<glyph unicode="&#x201a;" horiz-adv-x="563" d="M-25 -201l123 373q42 126 189 117q61 -4 89 -32t24.5 -67.5t-31.5 -85.5l-191 -331q-26 -43 -56.5 -62t-76.5 -16q-48 3 -66 31t-4 73z" />
<glyph unicode="&#x201c;" horiz-adv-x="796" d="M112 1039.5q3 39.5 29 86.5l193 330q26 43 57.5 62t77.5 16q48 -3 65 -30.5t3 -73.5l-123 -373q-41 -125 -187 -115q-62 3 -90 30.5t-25 67zM489 1039.5q3 39.5 29 86.5l193 330q26 43 57.5 62t77.5 16q48 -3 64.5 -30.5t2.5 -73.5l-122 -373q-41 -125 -187 -115 q-62 3 -90 30.5t-25 67z" />
<glyph unicode="&#x201d;" horiz-adv-x="796" d="M139 954l123 373q39 126 189 117q60 -4 88 -32t24.5 -67t-31.5 -85l-192 -332q-43 -81 -131 -78q-50 3 -67 30.5t-3 73.5zM516 954l123 373q39 126 188 117q60 -4 87.5 -32t24.5 -67t-30 -85l-192 -332q-46 -81 -131 -78q-100 6 -70 104z" />
<glyph unicode="&#x201e;" horiz-adv-x="940" d="M-25 -201l123 373q42 126 189 117q61 -4 89 -32t24.5 -67.5t-31.5 -85.5l-191 -331q-46 -81 -133 -78q-48 3 -66 31t-4 73zM352 -201l123 373q42 126 189 117q61 -4 88 -32t23.5 -67.5t-30.5 -85.5l-190 -331q-25 -42 -56 -60.5t-77 -17.5q-50 3 -67 30.5t-3 73.5z" />
<glyph unicode="&#x2022;" horiz-adv-x="909" d="M158 727q23 133 134 227.5t245 94.5q133 0 210 -94t54 -228q-23 -132 -134.5 -226.5t-244.5 -94.5t-210 94.5t-54 226.5z" />
<glyph unicode="&#x2026;" horiz-adv-x="1802" d="M55 143q13 77 54.5 116.5t130.5 39.5t113.5 -38t11.5 -118q-13 -78 -52.5 -118.5t-128.5 -40.5q-92 0 -118 39t-11 120zM668 143q13 78 54 117t130 39q87 0 113.5 -39t13.5 -117t-53 -118.5t-129 -40.5q-92 0 -118 39t-11 120zM1280 143q13 78 53 117t127 39 q91 0 117.5 -38.5t13.5 -117.5q-13 -78 -54 -118.5t-132 -40.5q-92 0 -116 38.5t-9 120.5z" />
<glyph unicode="&#x202f;" horiz-adv-x="367" />
<glyph unicode="&#x2039;" horiz-adv-x="581" d="M29.5 517q5.5 34 33.5 63l314 346q53 59 129 53q49 -8 65 -37.5t-16 -75.5l-252 -327q-20 -23 -8 -45l137 -328q18 -44 -10 -75t-80 -36q-76 -9 -109 56l-190 344q-19 28 -13.5 62z" />
<glyph unicode="&#x203a;" horiz-adv-x="583" d="M-13 90q-17 30 15 76l252 328q15 26 8 45l-137 327q-18 43 10.5 74t81.5 39q79 6 111 -53l190 -346q17 -29 11.5 -63t-31.5 -62l-314 -344q-56 -65 -131 -56q-49 5 -66 35z" />
<glyph unicode="&#x205f;" horiz-adv-x="459" />
<glyph unicode="&#x20ac;" horiz-adv-x="1415" d="M14 571q40 105 115 105h156l10 63h-111q-72 0 -32 105q40 102 114 102h82q81 237 235 363.5t404 126.5q252 0 362 -122.5t81 -338.5q-6 -46 -50 -70t-102 -24q-69 -2 -100.5 13.5t-30.5 66.5q3 116 -43 175.5t-160 59.5q-208 0 -311 -250h303q73 0 33 -102 q-40 -105 -115 -105h-281l-10 -63h236q68 0 32 -105q-46 -102 -114 -102h-170q4 -270 223 -270q188 0 274 213q23 55 64 79.5t109 22.5q75 -2 103.5 -29.5t8.5 -89.5q-23 -69 -59 -131t-89.5 -118.5t-119 -98t-151.5 -66t-183 -24.5q-132 0 -225 35.5t-146.5 104.5 t-76 160.5t-17.5 211.5h-215q-73 0 -33 102z" />
<glyph unicode="&#x2122;" horiz-adv-x="1718" d="M176 1350q6 38 32 61t66 23h488q44 0 62 -22.5t12 -61.5q-6 -35 -35 -59.5t-70 -24.5h-158l-94 -535q-6 -41 -36 -61.5t-74 -20.5q-40 0 -65 22.5t-19 59.5l94 535h-135q-37 0 -55.5 24.5t-12.5 59.5zM774 727l111 623q7 45 39 69.5t77 24.5q93 0 107 -70l111 -493 l286 493q39 70 133 70q97 0 82 -94l-110 -623q-6 -36 -36.5 -59t-68.5 -23q-42 0 -65 21.5t-17 60.5l52 295l-172 -301q-37 -70 -125 -76q-39 0 -65 21.5t-34 54.5l-67 297l-51 -291q-6 -38 -36.5 -60t-70.5 -22q-39 0 -62.5 23t-17.5 59z" />
<glyph unicode="&#x25fc;" horiz-adv-x="1075" d="M0 0v1075h1075v-1075h-1075z" />
</font>
</defs>
</svg>
