<?xml version="1.0" standalone="no"?>
<!DOCTYPE svg PUBLIC "-//W3C//DTD SVG 1.1//EN" "http://www.w3.org/Graphics/SVG/1.1/DTD/svg11.dtd" >
<svg xmlns="http://www.w3.org/2000/svg" xmlns:xlink="http://www.w3.org/1999/xlink" version="1.1">
<metadata></metadata>
<defs>
<font id="fregatbold" horiz-adv-x="1060" >
<font-face units-per-em="2048" ascent="1638" descent="-410" />
<missing-glyph horiz-adv-x="675" />
<glyph horiz-adv-x="0" />
<glyph horiz-adv-x="682" />
<glyph unicode=" "  horiz-adv-x="675" />
<glyph unicode="&#x09;" horiz-adv-x="675" />
<glyph unicode="&#xa0;" horiz-adv-x="675" />
<glyph unicode="!" horiz-adv-x="538" d="M115 1309q-4 68 38.5 99.5t116.5 31.5t116 -31.5t38 -99.5l-62 -858q-5 -68 -92 -68q-89 0 -94 68zM121 125q0 72 32 107.5t117 35.5q87 0 118.5 -35.5t31.5 -107.5q0 -75 -32 -113.5t-118 -38.5q-88 0 -118.5 38t-30.5 114z" />
<glyph unicode="&#x22;" horiz-adv-x="878" d="M115 954l57 373q17 126 168 117q46 -3 76.5 -19.5t42.5 -42.5t11 -57t-15 -65l-133 -332q-29 -81 -119 -78q-50 3 -72 30.5t-16 73.5zM492 954l57 373q17 126 168 117q61 -4 94 -32t34.5 -67t-14.5 -85l-133 -332q-18 -42 -45 -60.5t-73 -17.5q-101 6 -88 104z" />
<glyph unicode="#" horiz-adv-x="1243" d="M55 516q20 109 105 109h114l35 192h-116q-47 0 -61 31.5t-5 77.5q20 108 104 108h115l55 305q8 51 46.5 73t89.5 22q52 0 82 -21.5t20 -73.5l-55 -305h184l55 305q8 51 46 73t89 22q52 0 81.5 -21.5t21.5 -73.5l-53 -305h114q46 0 60.5 -31t5.5 -77q-21 -109 -105 -109 h-114l-35 -192h115q87 0 67 -109q-7 -46 -32 -77t-72 -31h-115l-59 -332q-15 -94 -136 -94q-51 0 -80.5 21.5t-21.5 72.5l57 332h-182l-59 -332q-15 -94 -135 -94q-51 0 -81 21.5t-22 72.5l58 332h-115q-86 0 -66 108zM512 625h184l35 192h-184z" />
<glyph unicode="$" horiz-adv-x="1155" d="M33 354q-7 43 17 79t87 44q106 11 127 -82q14 -72 61.5 -119.5t118.5 -68.5v430q-64 19 -115.5 41.5t-103 57t-85.5 77t-55.5 102.5t-21.5 132q0 164 109 269t272 130v41q0 94 115 94q117 0 117 -94v-45q144 -27 241 -112t123 -236q8 -48 -15 -75t-75 -30 q-117 -8 -137 58q-45 132 -137 172v-379q69 -20 123 -42t109.5 -57.5t92 -78.5t59.5 -106t23 -140q0 -186 -106 -298.5t-301 -137.5v-64q0 -96 -117 -96q-115 0 -115 96v68q-77 12 -144 39t-123.5 71t-94 110.5t-49.5 149.5zM313 1049q3 -93 131 -146v322 q-58 -20 -94.5 -65.5t-36.5 -110.5zM676 205q145 44 145 192q0 120 -145 174v-366z" />
<glyph unicode="%" horiz-adv-x="1341" d="M51 1116q0 142 69.5 231t213.5 89q74 0 129.5 -25t88 -70t48.5 -101.5t16 -123.5q0 -141 -69 -230t-213 -89t-213.5 88.5t-69.5 230.5zM200 22.5q-13 29.5 7 67.5l719 1268q19 42 49.5 59.5t85.5 16.5q51 -2 74 -34.5t0 -80.5l-719 -1268q-43 -87 -160 -65 q-43 7 -56 36.5zM250 1116q0 -28 2 -46.5t9 -44.5t25.5 -40t47.5 -14t47.5 14t25.5 40t9 44.5t2 46.5q0 23 -0.5 36.5t-5 37t-12.5 37t-25 24.5t-41 11t-41 -11t-25 -24.5t-12.5 -37t-5 -37t-0.5 -36.5zM725 299q0 142 69.5 229.5t213.5 87.5t213 -88t69 -229t-69 -230 t-213 -89t-213.5 88.5t-69.5 230.5zM924 299q0 -22 1 -37t5.5 -37.5t12.5 -36t25 -24t40 -10.5t40 10.5t25 24t12.5 36t5.5 37.5t1 37q0 28 -2 46.5t-9 44.5t-25.5 40t-47.5 14q-20 0 -35 -6.5t-24 -20t-14.5 -25.5t-7.5 -32t-2.5 -31t-0.5 -30z" />
<glyph unicode="&#x26;" horiz-adv-x="1310" d="M72 428q0 246 301 434q-35 75 -49 113q-24 67 -27 134t17.5 125t60 103t103 71t143.5 26q151 0 239 -75.5t78 -225.5q-3 -56 -26 -110t-61 -98.5t-78.5 -79.5t-86.5 -65q75 -116 213 -280q32 98 35 192q3 47 34 71.5t81 18.5q59 -7 89 -42.5t27 -90.5q-12 -175 -96 -340 q25 -27 88.5 -92.5t95.5 -101.5q29 -30 26 -56t-25 -44t-58 -29q-107 -36 -170 30l-100 105q-151 -139 -365 -139q-101 -1 -190 29.5t-155 86.5t-104.5 141t-39.5 189zM344 428q0 -99 62.5 -162t164.5 -63q118 0 203 88q-171 200 -285 373q-145 -100 -145 -236zM527 1134 q2 -41 15.5 -82.5t32.5 -68.5q124 92 115 178q-5 31 -23.5 51t-48.5 21q-47 1 -70 -28.5t-21 -70.5z" />
<glyph unicode="'" horiz-adv-x="501" d="M115 954l55 373q20 126 168 117q47 -3 77.5 -19.5t42.5 -42.5t11.5 -57t-14.5 -65l-133 -332q-18 -42 -46 -60.5t-75 -17.5q-50 3 -71 30.5t-15 73.5z" />
<glyph unicode="(" horiz-adv-x="565" d="M72 528q0 461 295 867q23 27 64 32.5t73 -8.5q83 -33 28 -123q-206 -340 -206 -768t206 -768q55 -89 -28 -122q-32 -14 -73 -8.5t-64 32.5q-295 370 -295 866z" />
<glyph unicode=")" horiz-adv-x="565" d="M33 -240q205 339 205 768t-205 768q-57 92 26 123q34 15 75 9.5t63 -33.5q146 -182 221.5 -406t75.5 -461q0 -240 -75 -462t-222 -404q-22 -28 -63 -33.5t-75 9.5q-82 31 -26 122z" />
<glyph unicode="*" horiz-adv-x="1001" d="M81.5 1040.5q-20.5 49.5 4.5 104.5q22 48 60.5 65t84.5 -4l175 -82l-25 191q-6 53 27 88t90 35q59 0 92.5 -34.5t27.5 -88.5l-24 -191l172 80q55 23 96.5 3.5t59.5 -72.5q18 -56 -4.5 -101t-79.5 -55l-185 -35l127 -137q39 -43 33.5 -90.5t-53.5 -79.5 q-43 -32 -92.5 -25.5t-77.5 56.5l-92 166l-90 -168q-27 -49 -76 -56.5t-94 27.5q-48 34 -54 81t33 89l129 137l-186 37q-58 10 -78.5 59.5z" />
<glyph unicode="+" horiz-adv-x="1161" d="M72 709q0 114 78 114h317v316q0 80 113 80q114 0 114 -80v-316h316q80 0 80 -114q0 -113 -80 -113h-316v-317q0 -80 -114 -80q-48 0 -80.5 19t-32.5 61v317h-317q-42 0 -60 32.5t-18 80.5z" />
<glyph unicode="," horiz-adv-x="563" d="M94 -201l58 373q17 126 167 117q46 -3 76.5 -20t42.5 -43t11 -57t-15 -65l-133 -331q-18 -43 -45.5 -62t-73.5 -16q-50 3 -72 30.5t-16 73.5z" />
<glyph unicode="-" horiz-adv-x="716" d="M72 535q0 114 78 114h415q42 0 61 -32.5t19 -81.5q0 -113 -80 -113h-415q-42 0 -60 32.5t-18 80.5z" />
<glyph unicode="." horiz-adv-x="575" d="M133 135q0 77 33.5 115.5t120.5 38.5q89 0 122 -38.5t33 -115.5q0 -80 -33 -121t-122 -41q-90 0 -122 40.5t-32 121.5z" />
<glyph unicode="/" horiz-adv-x="1017" d="M16 -328q-13 30 7 70l761 1612q21 41 52 59t84 17q53 -3 75.5 -35t-0.5 -80l-764 -1612q-43 -89 -159 -68q-43 7 -56 37z" />
<glyph unicode="0" horiz-adv-x="1323" d="M82 713q0 108 20.5 210.5t66 197t111.5 165.5t164.5 113.5t217.5 42.5t217 -42.5t164 -113t111.5 -165.5t66 -197.5t20.5 -210.5t-20.5 -210.5t-66 -197.5t-111.5 -165.5t-164 -113t-217 -42.5t-217.5 42.5t-164.5 113.5t-111.5 165.5t-66 197t-20.5 210.5zM362 713 q0 -51 5 -101t17 -108t34.5 -107t54.5 -90t80.5 -64.5t108.5 -23.5t108 23.5t80 64.5t54.5 90t34.5 107t17 108.5t5 100.5q0 62 -7 122.5t-27.5 130t-52 121t-86.5 85.5t-126 34q-72 0 -127 -34t-87 -85.5t-52 -121t-27 -130t-7 -122.5z" />
<glyph unicode="1" horiz-adv-x="763" d="M45.5 1202q9.5 39 46.5 58l275 157q40 25 96 25q127 0 127 -94v-1264q0 -94 -127 -94t-127 94v1071q-22 -22 -64 -39l-110 -43q-32 -12 -63.5 3.5t-45.5 49.5q-17 37 -7.5 76z" />
<glyph unicode="2" horiz-adv-x="1085" d="M41 156q0 38 12.5 72t23.5 50t32 41q57 65 130 132.5t122.5 107t144.5 113.5q50 38 87.5 72.5t74 76.5t56 87t19.5 89q0 102 -59.5 158.5t-167.5 56.5q-79 0 -134 -44t-75 -128q-11 -51 -52 -72t-95 -14q-53 5 -78 29.5t-25 77.5q8 123 74.5 213.5t166.5 134t218 43.5 q105 0 194.5 -26t159 -76.5t109 -133t39.5 -188.5q0 -78 -21.5 -146t-65 -127.5t-89.5 -105t-113 -100.5q-37 -31 -111 -87t-130.5 -102.5t-100.5 -91.5q-7 -6 -5 -14t13 -8h543q86 0 86 -123t-86 -123h-760q-80 0 -108.5 32.5t-28.5 123.5z" />
<glyph unicode="3" horiz-adv-x="1085" d="M39 337.5q18 45.5 72 68.5q46 21 92 9t67 -57q39 -78 96.5 -111.5t147.5 -33.5q105 0 168 67t66 171q2 66 -20 114t-60 73t-89 39.5t-106 13t-111 -6.5q-37 -4 -68.5 17.5t-43.5 58.5q-31 72 33 143l194 209q23 28 80 78h-414q-88 0 -88 121q0 123 88 123h705 q49 0 66.5 -32t15.5 -91q-1 -23 -10.5 -44.5t-18.5 -33.5t-27 -33l-286 -282q-6 -6 -3 -15t13 -10q190 -6 308 -124t116 -298q0 -222 -145 -358t-369 -136q-159 2 -281.5 66t-181.5 195q-24 54 -6 99.5z" />
<glyph unicode="4" horiz-adv-x="1155" d="M23 410q-1 34 5.5 57t26.5 53l520 826q38 59 80 82.5t109 23.5q166 0 166 -106v-820h84q80 0 80 -116q0 -115 -80 -115h-84v-219q0 -94 -135 -94q-136 0 -136 94v219h-532q-49 0 -75 27t-29 88zM313 526h346v553q-25 -65 -55 -114l-198 -316q-50 -83 -93 -123z" />
<glyph unicode="5" horiz-adv-x="1122" d="M86 244q-47 103 59 151q113 52 172 -39q47 -76 101 -111.5t139 -35.5q105 0 166 72t61 176q1 91 -42.5 154t-112.5 89.5t-152 26t-164 -30.5q-42 -17 -84.5 -13t-76 19.5t-51.5 53t-11 88.5l53 405q14 108 45 146.5t117 38.5h553q86 0 86 -121q0 -125 -86 -125h-424 q-22 0 -28 -7.5t-11 -33.5l-24 -174q-6 -36 9 -47t48 -4q86 18 166.5 15.5t151 -19t128.5 -55.5t99.5 -92.5t64 -131t21.5 -170.5q-1 -146 -65.5 -258.5t-179 -173t-261.5 -60.5q-160 0 -284 66t-183 201z" />
<glyph unicode="6" horiz-adv-x="1142" d="M82 623q0 197 77 372t221.5 300t332.5 169q121 27 176 -67q28 -50 10.5 -87.5t-72.5 -52.5q-98 -26 -182 -70t-158.5 -119.5t-107.5 -170.5q99 74 246 74q203 0 329.5 -140t126.5 -350q0 -212 -142 -356.5t-357 -144.5q-108 0 -194 34.5t-142.5 94t-94 142.5t-53.5 175 t-16 197zM360 469q0 -66 23.5 -126t75 -102t121.5 -42q111 0 170 81.5t59 194.5q0 121 -54.5 189.5t-170.5 68.5q-108 0 -166 -78t-58 -186z" />
<glyph unicode="7" horiz-adv-x="966" d="M41 1311q0 123 86 123h713q86 0 86 -123q0 -29 -17 -82l-395 -1151q-33 -94 -168 -94q-60 0 -90.5 21t-11.5 73l385 1073q7 22 1 29.5t-26 7.5h-477q-86 0 -86 123z" />
<glyph unicode="8" horiz-adv-x="1193" d="M82 414q5 117 52 213.5t142 150.5q-131 112 -131 269q0 128 63 223t164.5 141.5t225.5 46.5t225.5 -46.5t164.5 -141.5t63 -223q0 -154 -131 -269q95 -55 143.5 -152.5t48.5 -211.5q0 -141 -70 -243.5t-185 -152t-259 -49.5q-145 0 -259.5 49.5t-184.5 152t-72 243.5z M362 426q0 -101 65.5 -166t170.5 -65q104 0 170 65.5t66 165.5q0 101 -65 171.5t-171 70.5t-171 -70.5t-65 -171.5zM406 1047q3 -71 55.5 -117.5t136.5 -46.5q85 0 137.5 47t52.5 117q0 85 -52.5 130.5t-137.5 45.5t-138 -45.5t-54 -130.5z" />
<glyph unicode="9" horiz-adv-x="1128" d="M61 956q0 141 58.5 254.5t171.5 180.5t262 67q134 0 232.5 -50.5t154 -140.5t81.5 -200t26 -244q0 -206 -77.5 -383t-221.5 -299t-334 -168q-37 -8 -67 -9.5t-55.5 17.5t-43.5 60q-48 115 51 147q81 24 144 53t121.5 71t101.5 100t71 133q-83 -62 -229 -62 q-136 1 -238.5 64t-155.5 169t-53 240zM326 961q2 -119 56 -189t165 -70q100 0 163.5 78.5t63.5 186.5q0 53 -13.5 102t-39.5 89t-68.5 63.5t-95.5 23.5q-112 0 -171.5 -84.5t-59.5 -199.5z" />
<glyph unicode=":" horiz-adv-x="575" d="M133 135q0 77 34 115.5t122 38.5t120.5 -38.5t32.5 -115.5q0 -80 -32 -121t-121 -41q-91 0 -123.5 40.5t-32.5 121.5zM133 911q0 77 34 116.5t122 39.5t120.5 -38.5t32.5 -117.5t-32 -120t-121 -41q-91 0 -123.5 41t-32.5 120z" />
<glyph unicode=";" horiz-adv-x="583" d="M94 -201l58 373q17 126 167 117q46 -3 76.5 -20t42 -43t10.5 -57t-14 -65l-133 -331q-18 -43 -45.5 -62t-75.5 -16q-50 3 -71 30.5t-15 73.5zM129 911q0 77 34 116.5t122 39.5t120.5 -38.5t32.5 -117.5t-32 -120t-121 -41q-91 0 -123.5 41t-32.5 120z" />
<glyph unicode="&#x3c;" horiz-adv-x="1034" d="M20 537q0 95 105 147l704 338q60 31 95.5 11.5t36.5 -91.5q1 -54 -13 -79.5t-55 -45.5l-545 -280l545 -283q38 -20 53.5 -46t14.5 -77q-1 -72 -36.5 -91.5t-95.5 11.5l-704 338q-51 25 -78 59.5t-27 88.5z" />
<glyph unicode="=" horiz-adv-x="1161" d="M72 516q0 115 78 115h862q78 0 78 -115q0 -48 -18 -80.5t-60 -32.5h-862q-42 0 -60 32.5t-18 80.5zM72 872q0 115 78 115h862q78 0 78 -115q0 -112 -78 -112h-862q-78 0 -78 112z" />
<glyph unicode="&#x3e;" horiz-adv-x="1034" d="M74 131q-1 51 14 77t53 46l547 283l-547 280q-40 21 -54 46.5t-13 78.5q6 141 131 80l704 -338q105 -49 105 -147q0 -54 -26 -88.5t-79 -59.5l-704 -338q-125 -61 -131 80z" />
<glyph unicode="?" horiz-adv-x="993" d="M34 1162.5q-6 35.5 15 68.5q64 97 175 150t239 55q190 3 325 -99q78 -60 118 -145.5t34 -183.5q-3 -56 -20 -104t-49.5 -91t-64.5 -75t-81 -74q-113 -91 -172 -215q-34 -66 -117 -56q-89 10 -80 88q2 23 7 44.5t16 45t17 39t24.5 40.5t25 35t30.5 37t28 32t32 34.5 t29 30.5q99 103 99 199q1 90 -59 142t-152 52q-138 0 -230 -112q-33 -39 -76 -37.5t-79 37.5q-28 27 -34 62.5zM311 125q0 71 33 107t117 36q87 0 118 -35.5t31 -107.5q0 -75 -31.5 -113.5t-117.5 -38.5q-88 0 -119 38t-31 114z" />
<glyph unicode="@" horiz-adv-x="1536" d="M72 705q0 144 54.5 280t148.5 239t229.5 165.5t288.5 62.5q134 0 258 -51t215.5 -139t145 -213.5t50.5 -266.5q-2 -110 -42.5 -215.5t-119.5 -169.5q-95 -79 -225 -73q-104 6 -145 98q-39 -43 -93.5 -69t-113.5 -27q-131 -3 -215.5 85.5t-87.5 225.5q-2 85 22.5 163.5 t72 142t126 102t176.5 38.5h162q86 0 114.5 -46.5t18.5 -143.5l-31 -287q-5 -50 22 -66.5t77 27.5q69 64 73 205q3 198 -129 332.5t-336 134.5q-137 -2 -252 -76.5t-180 -197t-65 -263.5q0 -143 68.5 -262.5t190.5 -189.5t271 -70q181 0 363 82q40 17 73.5 0.5t51.5 -59.5 q39 -104 -49 -146q-211 -94 -437 -94q-150 0 -287.5 56t-239.5 153t-163 236.5t-61 296.5zM645 663q0 -29 6.5 -58t28 -47t55.5 -17q120 0 139 200l13 117q2 9 -4 16t-15 7h-49q-67 0 -111 -45t-57 -115q-6 -29 -6 -58z" />
<glyph unicode="A" horiz-adv-x="1236" d="M32 39.5q-6 17.5 5 42.5l424 1270q18 52 60 77t97 25t97.5 -25t60.5 -77l424 -1270q11 -25 5 -42.5t-16 -28t-31 -16t-39.5 -7.5t-41.5 -2q-60 0 -96.5 18.5t-56.5 77.5l-80 246h-451l-80 -246q-20 -59 -56.5 -77.5t-96.5 -18.5q-23 0 -41.5 2t-39.5 7.5t-31 16t-16 28z M473 567h291l-98 299q-35 105 -48 197q-14 -98 -47 -197z" />
<glyph unicode="B" horiz-adv-x="1228" d="M133 180v1073q0 55 16.5 92.5t46.5 56t62.5 25.5t75.5 7h348q192 0 307 -100.5t115 -291.5q0 -91 -40 -164t-106 -114q199 -96 199 -332q0 -194 -117.5 -313t-304.5 -119h-401q-43 0 -75.5 7t-62.5 25t-46.5 55.5t-16.5 92.5zM406 281q0 -20 7.5 -27.5t26.5 -7.5h267 q165 0 165 186t-190 186h-276v-337zM406 864h247q82 0 124 43t42 119q0 162 -166 162h-213q-19 0 -26.5 -7.5t-7.5 -27.5v-289z" />
<glyph unicode="C" horiz-adv-x="1220" d="M72 717q0 739 583 739q120 0 213.5 -34.5t153.5 -97.5t94.5 -144t44.5 -181v-8q0 -39 -35 -63q-39 -26 -96 -27h-12q-54 0 -86 17q-36 19 -47 71q-25 118 -77.5 173t-164.5 55q-62 0 -111 -21t-79.5 -60t-51.5 -84.5t-31 -106t-14 -113t-4 -115.5q0 -75 5.5 -137.5 t24 -132.5t48.5 -118q32 -47 86 -79q53 -31 123 -31h4q58 0 101 17.5t70.5 52.5t43.5 71t31 89q13 45 48 65.5t97 22.5q75 0 109 -29q25 -21 25 -61q0 -14 -3 -31q-13 -69 -38 -130.5t-68 -119t-100 -99t-138.5 -66t-177.5 -24.5q-571 0 -571 740z" />
<glyph unicode="D" horiz-adv-x="1255" d="M133 182v1071q0 55 16 92.5t46 56t63 25.5t76 7h282q118 0 213.5 -38t161 -104.5t109.5 -158t64 -195.5t20 -221t-19.5 -221t-63.5 -196t-108.5 -158t-161 -104t-215.5 -38h-282q-44 0 -76 7t-62.5 25t-46.5 56t-16 94zM403 283q0 -20 8.5 -27.5t26.5 -7.5h178 q66 0 117.5 30t83 77t52 110.5t28.5 125t8 126.5q0 64 -8.5 126.5t-29.5 126t-52.5 111t-83 77.5t-115.5 30h-178q-18 0 -26.5 -7.5t-8.5 -27.5v-870z" />
<glyph unicode="E" horiz-adv-x="1054" d="M133 180v1073q0 55 16.5 92.5t46.5 56t62.5 25.5t75.5 7h563q86 0 86 -123t-86 -123h-457q-19 0 -26.5 -7.5t-7.5 -27.5v-289h415q86 0 86 -123t-86 -123h-415v-337q0 -20 7.5 -27.5t26.5 -7.5h457q86 0 86 -123t-86 -123h-563q-43 0 -75.5 7t-62.5 25t-46.5 55.5 t-16.5 92.5z" />
<glyph unicode="F" horiz-adv-x="1024" d="M133 78v1175q0 55 16.5 92.5t46.5 56t62.5 25.5t75.5 7h553q86 0 86 -123t-86 -123h-447q-18 0 -26 -7.5t-8 -27.5v-297h382q86 0 86 -123t-86 -123h-382v-532q0 -96 -136 -96q-137 0 -137 96z" />
<glyph unicode="G" horiz-adv-x="1273" d="M72 719q0 706 571 737q215 0 346 -96.5t166 -278.5q3 -14 3 -27q0 -36 -21 -62q-28 -34 -101 -34q-83 0 -118 17.5t-46 58.5q-24 92 -77 137.5t-152 45.5q-62 0 -110.5 -21.5t-79 -60.5t-51.5 -85.5t-31.5 -106.5t-14.5 -112t-4 -112q0 -53 3.5 -100.5t13.5 -108.5 t30.5 -109.5t51 -91t80 -66.5t112.5 -24q67 0 118 20.5t78.5 49t44.5 69.5t22.5 72.5t6.5 67.5q2 39 -10 53t-47 14h-158q-82 0 -82 117q0 49 19 82t63 33h291q106 0 147 -43t44 -133q1 -23 1 -45q0 -83 -12 -157q-15 -94 -54 -175.5t-100 -139.5t-153 -91t-209 -33 q-123 0 -221.5 38t-165 104t-110.5 160t-64 202.5t-20 234.5z" />
<glyph unicode="H" horiz-adv-x="1269" d="M133 78v1268q0 96 135 96t135 -96v-490h461v490q0 96 135 96q138 0 138 -96v-1268q0 -96 -138 -96q-135 0 -135 96v532h-461v-532q0 -96 -135 -96t-135 96z" />
<glyph unicode="I" horiz-adv-x="538" d="M133 78v1270q0 94 135 94q138 0 138 -94v-1270q0 -96 -138 -96q-135 0 -135 96z" />
<glyph unicode="J" horiz-adv-x="868" d="M16 170q9 47 44 73q21 16 47 16q14 0 30 -5q76 -27 149 -27h19q47 1 79.5 16.5t49 43.5t23 58.5t6.5 70.5v932q0 94 135 94q137 0 137 -94v-979q0 -107 -40.5 -188t-106.5 -125.5t-151 -65.5q-66 -15 -135 -15q-20 0 -40 1q-90 6 -176 34q-75 26 -75 113q0 22 5 47z" />
<glyph unicode="K" horiz-adv-x="1185" d="M133 76v1272q0 94 137 94q136 0 136 -94v-445l378 430q41 46 66 68t67 35q25 8 54 8q20 0 43 -4q66 -12 90 -54q9 -16 8 -32q0 -28 -25 -58l-366 -415l446 -777q17 -28 17 -50q0 -8 -2 -14q-9 -26 -36.5 -38.5t-68.5 -13.5h-19q-66 0 -110 19q-50 22 -84 79l-334 582 l-124 -140v-452q0 -94 -136 -94q-137 0 -137 94z" />
<glyph unicode="L" horiz-adv-x="960" d="M133 182v1176q0 94 135 94q138 0 138 -94v-1075q0 -21 7 -28t25 -7h406q86 0 86 -125q0 -123 -86 -123h-510q-44 0 -76 7t-62.5 25t-46.5 56t-16 94z" />
<glyph unicode="M" horiz-adv-x="1439" d="M133 78v1268q0 51 36.5 74.5t92.5 23.5q77 0 115 -55q16 -23 102 -186.5t164 -315.5l78 -152q309 603 342 654q38 55 117 55q56 0 91.5 -23t35.5 -75v-1268q0 -52 -37.5 -74t-93.5 -22t-95 22t-39 74v829q-15 -48 -75 -176l-158 -311q-24 -47 -88 -47q-66 0 -90 47 l-156 311q-55 108 -78 176v-829q0 -52 -38.5 -74t-94.5 -22t-93.5 22t-37.5 74z" />
<glyph unicode="N" horiz-adv-x="1318" d="M133 78v1270q0 35 22.5 57t52 29.5t66.5 7.5q109 0 146 -68l403 -684q60 -95 97 -184v842q0 94 133 94t133 -94v-1270q0 -52 -42.5 -74t-101.5 -22q-104 0 -145 67l-403 684q-54 91 -95 193v-848q0 -96 -133 -96t-133 96z" />
<glyph unicode="O" horiz-adv-x="1306" d="M72 717q0 135 18.5 245t61 203.5t109 156.5t165.5 98.5t227 35.5t227 -35.5t165.5 -99t109.5 -156.5t61.5 -203t18.5 -245q0 -134 -18.5 -244t-61 -203.5t-109 -157.5t-166 -99.5t-227.5 -35.5t-227.5 35.5t-165.5 99.5t-108.5 157.5t-61 203.5t-18.5 244zM350 717 q0 -61 4.5 -114t15.5 -112.5t33 -106t54 -85t82 -59.5t114 -21t114 21t82 59.5t54 85t33 106t15.5 112.5t4.5 114q0 53 -2.5 98.5t-11 98t-22 94.5t-36.5 82t-54.5 67t-76.5 43.5t-100 16.5q-77 0 -134 -31.5t-88.5 -79t-50.5 -118t-24.5 -132.5t-5.5 -139z" />
<glyph unicode="P" horiz-adv-x="1179" d="M133 78v1175q0 55 16.5 92.5t46.5 56t62.5 25.5t75.5 7h362q186 0 309 -125t123 -320q0 -196 -122 -322t-310 -126h-290v-463q0 -96 -138 -96q-135 0 -135 96zM406 788h262q82 0 129 57t47 144q0 89 -46 144t-130 55h-228q-19 0 -26.5 -7.5t-7.5 -27.5v-365z" />
<glyph unicode="Q" horiz-adv-x="1306" d="M72 719q0 134 18.5 243.5t61 203t109 156.5t165.5 98.5t227 35.5q582 0 582 -737q0 -473 -229 -641l143 -182q25 -31 25 -55v-9q-6 -26 -35 -42t-80 -23q-22 -3 -42 -3q-37 0 -65 11q-43 17 -75 67l-91 148q-51 -10 -133 -10q-129 0 -228.5 35.5t-165.5 98.5t-108.5 157 t-60.5 203.5t-18 244.5zM350 719q0 -491 291 -500l-18 29q-14 27 -14 46q0 13 6 22q16 24 65 32q19 3 37 3q71 0 112 -52l9 -12q118 113 118 432q0 76 -5.5 137.5t-24.5 132t-50.5 118t-88.5 79t-134 31.5q-55 0 -100.5 -16.5t-76.5 -43.5t-54 -67t-36.5 -82t-22 -94 t-11 -97.5t-2.5 -97.5z" />
<glyph unicode="R" horiz-adv-x="1249" d="M133 78v1175q0 55 16 92.5t46 56t63 25.5t76 7h360q189 0 311.5 -118t122.5 -312q0 -137 -71 -234.5t-178 -138.5q92 -66 159 -213q11 -26 32 -75t34 -79.5t34 -71.5t42 -75q19 -29 19 -52q1 -26 -23 -46q-44 -37 -115 -37q-111 0 -150 53q-28 37 -54 94t-58 143t-49 125 q-39 86 -90.5 133.5t-133.5 47.5h-123v-500q0 -96 -135 -96t-135 96zM403 811h263q83 0 130.5 54t47.5 139q0 87 -46 135.5t-132 48.5h-228q-18 0 -26.5 -7.5t-8.5 -27.5v-342z" />
<glyph unicode="S" horiz-adv-x="1122" d="M35 348q-3 15 -3 28q0 32 18 56q24 34 73 45q24 5 46 5q31 0 58 -10q47 -18 66 -71q31 -90 96.5 -141t155.5 -51q102 0 168.5 51t66.5 152q0 39 -16.5 70.5t-39.5 51t-59.5 36t-64 25t-64.5 18.5l-12 3q-77 20 -135 40t-124.5 56t-109 79.5t-71.5 111t-29 150.5 q0 126 68 220t171.5 139.5t223.5 45.5q89 0 166.5 -17.5t146.5 -56t120.5 -106.5t76.5 -162q4 -13 4 -26q0 -30 -21 -54q-29 -34 -87 -41q-17 -2 -33 -2q-92 0 -119 66q-37 86 -91.5 125t-154.5 39q-52 0 -94.5 -15t-73 -54.5t-30.5 -98.5q0 -27 10.5 -50t22 -39t36.5 -31.5 t39.5 -23.5t47.5 -18.5t43 -13.5t42 -11q57 -15 99.5 -27.5t95.5 -34t91 -44t77 -56.5t63.5 -73.5t40 -93t15.5 -115.5q0 -210 -137 -331.5t-365 -121.5q-119 0 -223 39t-184.5 126t-106.5 212z" />
<glyph unicode="T" horiz-adv-x="1024" d="M31 1311q0 123 86 123h790q86 0 86 -123t-86 -123h-260v-1110q0 -96 -135 -96q-34 0 -62 7.5t-50.5 30t-22.5 58.5v1110h-260q-86 0 -86 123z" />
<glyph unicode="U" horiz-adv-x="1300" d="M133 516v832q0 94 135 94t135 -94v-856q0 -121 64.5 -195t181.5 -74t182.5 74.5t65.5 194.5v856q0 94 135 94t135 -94v-832q0 -274 -139.5 -406.5t-378.5 -132.5q-115 0 -208 31t-162.5 95t-107.5 168.5t-38 244.5z" />
<glyph unicode="V" horiz-adv-x="1146" d="M37 1348q-5 17 -5 30q0 28 20 42q32 22 83 22q33 0 52 -2t48 -10t47.5 -29t28.5 -55l224 -789q23 -85 40 -182q18 100 41 180l226 791q10 34 28 55t47 29t48 10t53 2q48 0 78 -22q19 -15 20 -41q0 -14 -6 -31l-367 -1264q-17 -57 -59.5 -78.5t-108.5 -21.5 q-65 0 -106.5 21.5t-58.5 78.5z" />
<glyph unicode="W" horiz-adv-x="1714" d="M35 1339q-3 13 -3 24q0 33 27 53q36 26 86 26q146 0 166 -96l172 -771q36 -155 43 -192q21 132 37 192l166 771q22 96 125 96q106 0 125 -96l166 -771q20 -66 39 -192q4 32 11.5 66t18 74t13.5 52l178 771q7 33 24.5 53.5t43.5 29t46 11t50 2.5q51 0 87 -26 q27 -19 26 -52q0 -11 -3 -25l-309 -1255q-24 -100 -176 -100q-66 0 -107 21t-55 79l-145 602q-25 91 -33 154q-4 -28 -31 -154l-145 -602q-14 -58 -56 -79t-108 -21q-151 0 -174 96z" />
<glyph unicode="X" horiz-adv-x="1110" d="M43 86l365 643l-347 614q-13 24 -13 42q0 21 18 33q34 24 88 24q84 0 123.5 -19.5t70.5 -76.5l207 -365l207 365q31 57 70.5 76.5t123.5 19.5q55 0 89 -24q19 -13 19 -34q0 -18 -13 -41l-349 -614l365 -643q13 -23 13 -41q0 -21 -18 -35q-34 -26 -91 -28h-14 q-67 0 -111 18q-48 20 -78 72l-213 397l-213 -397q-30 -52 -78 -72q-44 -18 -111 -18h-14q-57 2 -91 28q-19 14 -18 35q0 18 13 41z" />
<glyph unicode="Y" horiz-adv-x="1071" d="M24 1413q28 29 78 29q87 0 127.5 -19t71.5 -75l238 -437l235 437q30 54 75 74t132 20q31 0 51.5 -10.5t27.5 -33.5q1 -5 1 -11q0 -21 -17 -50l-370 -655v-604q0 -96 -135 -96q-138 0 -138 96v604l-376 651q-15 26 -15 47q0 19 14 33z" />
<glyph unicode="Z" horiz-adv-x="1028" d="M31 121q0 73 30 121l488 809q51 86 88 137h-516q-86 0 -86 123t86 123h739q96 0 96 -121q0 -65 -30 -121l-482 -813q-49 -80 -92 -131h516q86 0 86 -125q0 -123 -86 -123h-741q-96 0 -96 121z" />
<glyph unicode="[" horiz-adv-x="573" d="M133 -193v1463q0 79 42 121.5t120 42.5h192q76 0 76 -95q0 -100 -78 -100h-96q-19 0 -27 -6.5t-8 -24.5v-1339q0 -18 8 -24.5t27 -6.5h96q78 0 78 -100q0 -94 -76 -94h-192q-78 0 -120 42t-42 121z" />
<glyph unicode="\" horiz-adv-x="1019" d="M22.5 1392.5q22.5 31.5 75.5 34.5q53 1 83.5 -16.5t51.5 -58.5l764 -1612q20 -40 6 -70t-57 -37q-117 -22 -160 68l-763 1612q-23 48 -0.5 79.5z" />
<glyph unicode="]" horiz-adv-x="575" d="M10 -262q0 100 78 100h98q19 0 26 6.5t7 24.5v1339q0 18 -7 24.5t-26 6.5h-98q-78 0 -78 100q4 95 76 95h195q78 0 119.5 -42.5t41.5 -121.5v-1463q0 -79 -41.5 -121t-119.5 -42h-195q-72 0 -76 94z" />
<glyph unicode="^" horiz-adv-x="1026" d="M75.5 806.5q-11.5 38.5 14.5 84.5l246 448q33 63 71 92t105 29q66 0 104.5 -28.5t73.5 -92.5l246 -448q26 -46 14.5 -84.5t-57.5 -48.5q-56 -12 -91 2t-63 57l-227 369l-227 -369q-27 -43 -61.5 -57t-90.5 -2q-46 10 -57.5 48.5z" />
<glyph unicode="_" horiz-adv-x="1112" d="M10 -223q0 112 80 112h932q42 0 61 -32.5t19 -79.5q0 -115 -80 -115h-932q-80 0 -80 115z" />
<glyph unicode="`" horiz-adv-x="452" d="M74.5 1385q7.5 35 58.5 45q20 4 82 4q81 0 113 -62l65 -151q17 -38 -0.5 -58t-48.5 -24q-73 -14 -119 35l-123 137q-35 39 -27.5 74z" />
<glyph unicode="a" horiz-adv-x="1085" d="M72 313q0 376 518 376q47 0 98 -3q1 98 -44.5 140t-117.5 42h-11q-47 0 -87 -8q-44 -8 -68 -17t-88 -36q-31 -13 -58 -13q-43 0 -73 35q-27 32 -27 75v12q4 50 48 77q160 97 368 97q91 0 166.5 -22t136.5 -67t95.5 -122.5t34.5 -180.5v-473q0 -39 8 -137q1 -7 1 -13 q0 -41 -24 -59q-26 -20 -80 -22q-54 0 -84 20t-53 70q-61 -51 -131.5 -79t-175.5 -28q-94 0 -173.5 39t-129 117t-49.5 180zM348 313q1 -52 40 -83t104 -31q104 -1 157 83q42 66 42 155q0 23 -3 48q-36 1 -80 3h-18q-36 0 -73 -8q-47 -10 -85 -26q-38 -18 -62 -54 q-22 -34 -22 -79v-8z" />
<glyph unicode="b" horiz-adv-x="1198" d="M133 84v1266q0 98 137 98q138 0 138 -98v-338q32 32 104.5 55t136.5 23q436 0 436 -555q0 -168 -45.5 -291t-146.5 -195t-250 -72q-70 0 -139 26t-113 69q-14 -90 -133 -90q-125 0 -125 102zM408 479q0 -49 12 -98t34.5 -93t61.5 -71t88 -27q195 0 195 345 q0 342 -195 342q-53 0 -93 -29t-61.5 -76.5t-31.5 -98.5t-10 -104v-90z" />
<glyph unicode="c" horiz-adv-x="1042" d="M72 530q0 551 469 551q174 0 287 -83t130 -222q1 -13 1 -24q0 -44 -21 -64q-27 -26 -98 -26q-54 2 -83 17.5t-42 55.5q-21 70 -60.5 102.5t-113.5 32.5q-52 0 -91 -21.5t-60 -53.5t-34 -80t-16.5 -90.5t-3.5 -94.5q0 -340 205 -340q121 0 180 134q17 40 48 56.5t83 18.5 h9q57 -1 86 -25q23 -19 23 -52q0 -12 -3 -27q-33 -145 -142.5 -230t-283.5 -85q-469 0 -469 550z" />
<glyph unicode="d" horiz-adv-x="1157" d="M72 535q0 555 446 555q130 0 232 -78v338q0 98 137 98t137 -98v-1266q0 -102 -125 -102q-119 0 -133 90q-45 -45 -112 -70t-136 -25q-117 0 -204 40.5t-139 116t-77.5 175.5t-25.5 226zM358 535q0 -43 2.5 -79.5t9.5 -78t20.5 -73t34 -58.5t52 -41.5t72.5 -14.5 q64 0 112 48.5t68.5 112.5t20.5 128v90q0 47 -10.5 97t-32.5 99t-63 80.5t-95 31.5q-48 0 -84 -21.5t-56 -54.5t-32 -81t-15.5 -90.5t-3.5 -94.5z" />
<glyph unicode="e" d="M72 537q0 89 16 168t52 150t90 122t135 80.5t182 29.5q208 0 325 -120q115 -118 115 -311v-7q-1 -100 -45 -138t-141 -38h-453q2 -56 12 -101.5t32 -87.5q23 -40 66 -64q41 -23 98 -23h5q61 0 97.5 26t66.5 82q25 49 111 49q18 0 38 -2q61 -8 79 -40q10 -19 10 -39 q0 -15 -5 -31q-39 -129 -146.5 -200t-256.5 -71q-123 1 -218 47t-151 125.5t-84.5 178.5t-29.5 215zM356 664h336q17 0 27.5 11t9.5 34q-6 80 -52 124t-118 44q-87 0 -139.5 -57t-63.5 -156z" />
<glyph unicode="f" horiz-adv-x="702" d="M31 950q0 111 98 111h66v31q0 89 18 152.5t60 112t116 72t182 23.5q58 0 91 -8q40 -10 55.5 -38.5t15.5 -82.5q-2 -59 -21 -83q-19 -23 -65 -23h-4q-12 2 -41 2q-28 -1 -49 -6t-41.5 -17t-31.5 -37.5t-11 -62.5v-35h90q98 0 98 -111q0 -110 -98 -110h-90v-760 q0 -98 -137 -98t-137 98v760h-66q-98 0 -98 110z" />
<glyph unicode="g" horiz-adv-x="1157" d="M72 528q0 557 448 557q68 0 134.5 -25t111.5 -67q14 88 133 88q125 0 125 -102v-881q0 -204 -96.5 -328.5t-272.5 -158.5q-82 -18 -176 -18q-18 0 -37 1q-114 4 -209 33q-83 26 -83 128q0 16 2 34q6 55 38 81q19 16 45 16q15 0 31 -5q81 -29 168 -37q21 -1 43 -1 q64 0 127 16q66 22 106 74t40 133q-40 -36 -102.5 -56t-127.5 -20q-448 0 -448 538zM358 528q0 -51 4 -93t16.5 -86.5t33 -75t57 -50.5t84.5 -20q53 0 93.5 28t62 73.5t31.5 93t10 96.5v90q0 63 -19.5 126t-66.5 112.5t-111 49.5q-195 0 -195 -344z" />
<glyph unicode="h" horiz-adv-x="1153" d="M133 80v1266q0 54 39.5 78t97.5 24q138 0 138 -100v-371q122 119 286 119q168 0 257 -91t89 -276v-649q0 -98 -137 -98t-137 98v590q0 35 -4 62t-15.5 56.5t-37 45.5t-64.5 16q-68 0 -116.5 -28.5t-73.5 -77t-36 -100.5t-11 -112v-452q0 -98 -138 -98q-137 0 -137 98z " />
<glyph unicode="i" horiz-adv-x="565" d="M133 1313q0 67 33 101t117 34q83 0 116 -34.5t33 -100.5q0 -69 -31.5 -106.5t-117.5 -37.5q-88 0 -119 37.5t-31 106.5zM145 80v903q0 98 138 98q137 0 137 -98v-903q0 -98 -137 -98q-138 0 -138 98z" />
<glyph unicode="j" horiz-adv-x="573" d="M-72 -215q0 61 30.5 89t96.5 28q99 0 99 121v960q0 98 137 98t137 -98v-1016q0 -174 -110 -258q-89 -69 -226 -69q-31 0 -65 4q-52 6 -75.5 45t-23.5 96zM141 1313q0 67 33 101t117 34t116.5 -34t32.5 -101q0 -69 -30.5 -106.5t-118.5 -37.5q-87 0 -118.5 37.5 t-31.5 106.5z" />
<glyph unicode="k" horiz-adv-x="1032" d="M133 82v1266q0 54 38.5 77t96.5 23q61 0 101.5 -23t40.5 -77v-633l282 291q74 78 167 78q27 0 56 -7q63 -17 77 -59q4 -11 4 -22q0 -30 -29 -60l-287 -289l319 -543q12 -21 12 -39q1 -25 -21 -46q-38 -37 -105 -42q-13 -1 -24 -1q-49 0 -75 14q-30 18 -59 69l-229 404 l-88 -90v-291q0 -100 -142 -100q-135 0 -135 100z" />
<glyph unicode="l" horiz-adv-x="540" d="M133 80v1268q0 54 39 77t98 23q138 0 138 -100v-1268q0 -98 -138 -98q-137 0 -137 98z" />
<glyph unicode="m" horiz-adv-x="1732" d="M133 80v905q0 50 34.5 74t86.5 24q60 0 92 -21.5t39 -78.5l4 -25q110 138 305 138q196 0 289 -160q130 160 317 160q164 0 242 -92.5t78 -282.5v-641q0 -98 -137 -98t-137 98v590q0 28 -2 49.5t-9 47.5t-19 43t-35 28.5t-54 11.5q-59 0 -102.5 -24.5t-66.5 -66.5 t-33.5 -89t-10.5 -101v-489q0 -98 -137 -98q-56 0 -98 22.5t-42 75.5v575q0 195 -125 195q-56 0 -97 -24.5t-63.5 -67t-33 -91t-10.5 -104.5v-483q0 -98 -138 -98q-137 0 -137 98z" />
<glyph unicode="n" horiz-adv-x="1153" d="M133 80v905q0 50 34.5 73t86.5 23q62 0 94 -20.5t39 -77.5l4 -25q110 138 303 138q168 0 257 -91t89 -276v-649q0 -98 -137 -98t-137 98v590q0 33 -6 62t-19.5 57t-41 44.5t-66.5 16.5q-62 0 -107.5 -24t-70 -65.5t-36 -90t-11.5 -105.5v-485q0 -98 -138 -98 q-137 0 -137 98z" />
<glyph unicode="o" horiz-adv-x="1081" d="M72 530q0 551 469 551t469 -551q0 -550 -469 -550t-469 550zM338 530q0 -52 4 -94.5t16.5 -90t34 -80t59.5 -54t89 -21.5q52 0 90 21.5t59.5 53.5t34.5 80t16.5 90.5t3.5 94.5q0 53 -3.5 94.5t-15.5 90t-33.5 80.5t-60 53.5t-91.5 21.5q-52 0 -90.5 -21.5t-59.5 -53.5 t-33.5 -80.5t-16 -90t-3.5 -94.5z" />
<glyph unicode="p" horiz-adv-x="1159" d="M133 -283v1264q0 104 125 104q118 0 133 -90q40 41 107.5 66.5t138.5 25.5q450 0 450 -555q0 -258 -111.5 -407.5t-338.5 -149.5q-146 0 -229 80v-338q0 -98 -138 -98q-137 0 -137 98zM408 496q0 -52 11.5 -104t34 -99t63.5 -76t93 -29q48 0 84 21.5t55.5 54.5t31 81.5 t15 91t3.5 95.5t-3.5 95.5t-15 90.5t-31 80.5t-55.5 54t-84 21.5q-65 0 -112.5 -45.5t-68.5 -109t-21 -131.5v-92z" />
<glyph unicode="q" horiz-adv-x="1159" d="M72 532q0 127 24.5 226.5t76.5 175t140 116t209 40.5q70 0 138 -26t108 -67q8 50 43 67t90 17q125 0 125 -98v-1264q0 -54 -39 -77t-98 -23q-137 0 -137 100v336q-78 -78 -230 -78q-116 0 -203 40.5t-140.5 115t-80 174.5t-26.5 225zM360 532q0 -52 3.5 -94.5t15 -91 t31 -81t55.5 -54t84 -21.5q52 0 93 29t64 76t34.5 99t11.5 104v90q0 68 -21.5 132t-69 110.5t-112.5 46.5q-41 0 -72.5 -14.5t-51.5 -41.5t-33.5 -58.5t-20 -73t-9 -78t-2.5 -79.5z" />
<glyph unicode="r" horiz-adv-x="753" d="M133 80v905q0 96 115 96q104 0 129 -73l8 -27q35 50 91 79t114 34q15 1 27 1q59 0 85 -22q32 -27 31 -90q0 -31 -1 -49t-6 -38.5t-15 -31t-28.5 -18t-45.5 -8.5q-121 -6 -175 -70t-54 -182v-506q0 -98 -138 -98q-137 0 -137 98z" />
<glyph unicode="s" horiz-adv-x="972" d="M78 762q0 103 60 179.5t149.5 112.5t191.5 36q140 0 243 -56t144 -174q8 -25 8 -45q0 -23 -10 -37q-20 -28 -80 -35q-21 -3 -40 -3q-84 0 -123 55q-56 82 -144 82q-65 0 -104 -23t-39 -70q0 -21 10 -38t30.5 -29t37.5 -20t47 -15t41.5 -9.5t36.5 -6.5q69 -13 120.5 -28 t104 -41t85.5 -60.5t54 -86.5t21 -118q0 -114 -59 -197.5t-150 -122.5t-201 -39q-149 0 -261 59.5t-165 188.5q-14 30 -14 57q0 20 9 40q21 42 89 55q17 2 33 2q81 0 112 -66q59 -116 195 -116q56 0 101 29t48 83q0 56 -50 81.5t-177 51.5q-59 12 -105 27t-95 41t-81 59 t-52.5 83.5t-20.5 113.5z" />
<glyph unicode="t" horiz-adv-x="784" d="M31 950q0 111 98 111h66v182q0 98 137 98t137 -98v-182h115q98 0 98 -111q0 -110 -98 -110h-115v-475q0 -75 39 -107q30 -25 89 -24q18 0 40 2q12 1 23 1q46 1 68 -23q26 -30 26 -95q0 -86 -62 -115q-54 -22 -143 -22q-192 0 -273 95t-81 271v492h-66q-98 0 -98 110z" />
<glyph unicode="u" horiz-adv-x="1140" d="M113 336v647q0 98 137 98t137 -98v-588q0 -35 4 -62t15.5 -56.5t37 -45.5t64.5 -16q61 0 106.5 22.5t70.5 62t36.5 87.5t11.5 105v491q0 98 137 98q138 0 138 -98v-899q0 -54 -35.5 -78t-89.5 -24q-56 0 -85.5 23t-41.5 75l-6 22q-115 -133 -291 -133q-168 0 -257 91 t-89 276z" />
<glyph unicode="v" horiz-adv-x="1005" d="M37 985q-5 17 -5 30q0 29 25 45q37 22 99 23q146 0 174 -98l129 -457q10 -35 24 -104.5t21 -95.5q7 28 20 97t23 103l131 457q28 98 172 98q62 -1 99 -23q25 -15 25 -45q0 -14 -5 -30l-291 -905q-17 -53 -66 -75.5t-108 -22.5q-61 0 -110 22.5t-66 75.5z" />
<glyph unicode="w" horiz-adv-x="1476" d="M37 983q-11 38 4.5 61t43 30t65.5 7q144 0 167 -92l115 -459q18 -72 33 -172q11 68 37 166l121 465q21 80 114 80q94 0 115 -80l121 -465q26 -98 37 -166q16 109 32 172l117 459q23 92 159 92h11q37 0 64 -7t42.5 -30t4.5 -61l-240 -881q-18 -64 -57.5 -92t-124.5 -28 q-72 0 -112 36.5t-58 106.5l-72 270q-34 120 -39 180q-2 -23 -9.5 -57.5t-18 -75.5t-11.5 -47l-71 -270q-18 -70 -58 -106.5t-112 -36.5q-85 0 -125 28t-58 92z" />
<glyph unicode="x" horiz-adv-x="944" d="M37 38q-7 13 -7 28q0 29 25 67l271 420l-240 385q-21 32 -21 56q0 8 3 16q10 28 37 42t69 17q35 1 64.5 1t56 -13.5t41.5 -42.5l137 -258l135 258q22 41 61 50q27 6 66 6q17 0 37 -1q42 -3 69 -17t37 -42q2 -7 2 -15q0 -24 -22 -57l-237 -385l268 -420q25 -37 25 -67 q0 -14 -7 -28q-20 -38 -92 -42q-40 -1 -72.5 -1t-62.5 16t-49 50l-158 293l-160 -293q-18 -34 -48 -50t-63 -16t-73 1q-72 4 -92 42z" />
<glyph unicode="y" horiz-adv-x="983" d="M45 924q-13 36 -13 63q0 74 101 84q25 3 47 3q98 0 119 -60l203 -563l192 563q19 60 117 60q22 0 47 -3q67 -6 86 -38q8 -14 8 -35q0 -28 -14 -68l-375 -1065q-78 -223 -304 -223q-42 0 -89 8q-84 13 -84 127q0 62 26 91q22 24 65 24q10 0 22 -1q9 -1 18 -1q37 0 69 20 q41 26 56 70l31 90z" />
<glyph unicode="z" horiz-adv-x="849" d="M31 111q0 71 28 116l336 502q52 78 88 111h-333q-99 0 -99 110q0 111 99 111h561q98 0 98 -111q0 -69 -37 -121l-328 -491q-54 -77 -100 -117h377q98 0 98 -110q0 -111 -98 -111h-588q-102 0 -102 111z" />
<glyph unicode="{" horiz-adv-x="604" d="M72 539q0 84 55 102q59 18 59 127v354q0 158 90.5 236.5t249.5 75.5q68 0 68 -99q0 -98 -66 -98q-67 -1 -92.5 -31t-25.5 -100v-344q0 -66 -24.5 -126.5t-74.5 -96.5q50 -32 74.5 -94t24.5 -132v-344q0 -69 25 -98.5t93 -32.5q66 0 66 -98t-68 -98q-159 -3 -249.5 76 t-90.5 237v352q0 109 -59 129q-55 18 -55 103z" />
<glyph unicode="|" horiz-adv-x="466" d="M133 -311v1685q0 37 28.5 53.5t71.5 16.5q101 0 101 -70v-1685q0 -38 -29.5 -55t-71.5 -17q-100 0 -100 72z" />
<glyph unicode="}" horiz-adv-x="604" d="M10 -260q0 41 16 69.5t52 28.5q66 3 91.5 32.5t25.5 98.5v344q0 69 24.5 131.5t73.5 94.5q-50 36 -74 96t-24 127v344q0 69 -25.5 99.5t-91.5 31.5q-36 0 -52 28.5t-16 69.5q0 99 68 99q159 3 249.5 -75.5t90.5 -236.5v-354q0 -109 59 -127q55 -18 55 -102 q0 -85 -55 -103q-59 -20 -59 -129v-352q0 -158 -90.5 -237t-249.5 -76q-68 0 -68 98z" />
<glyph unicode="~" horiz-adv-x="1157" d="M53 645q-4 33 19 62q107 135 256 157q130 17 295 -51q98 -43 172 -43q86 0 149 55q70 61 137 -6q51 -48 -2 -119q-45 -64 -108.5 -104t-134.5 -51q-128 -17 -293 53q-102 41 -172 41q-83 3 -150 -55q-71 -62 -135 2q-29 26 -33 59z" />
<glyph unicode="&#xa2;" horiz-adv-x="1040" d="M72 530q0 553 469 553h41l94 316q10 53 92 49q41 0 56.5 -27t2.5 -67l-86 -312q194 -82 217 -264q6 -63 -21 -87.5t-101 -24.5q-49 0 -80 15t-47 54q-9 54 -31 76l-170 -616q6 -2 33 -2q67 0 109 32t73 97q22 70 125 77q66 3 97.5 -24t19.5 -80q-33 -146 -140.5 -228.5 t-283.5 -82.5q-43 0 -97 4l-84 -293q-8 -33 -39.5 -47.5t-62.5 -9.5q-86 3 -61 96l90 303q-215 120 -215 493zM334 530q0 -125 28 -217l162 561q-60 -5 -100 -37t-58.5 -85.5t-25 -104.5t-6.5 -117z" />
<glyph unicode="&#xa3;" horiz-adv-x="1175" d="M75 150.5q12 46.5 62 74.5q90 59 135 180t33 205h-55q-50 0 -79.5 35t-29.5 86q0 46 26 80.5t75 34.5q-4 18 -13 54.5t-13.5 58.5t-8 55.5t-2.5 64.5q13 188 138.5 285.5t318.5 97.5q185 0 295.5 -86.5t132.5 -245.5q11 -57 -12 -96t-79 -45q-57 -6 -104.5 15.5 t-58.5 66.5q-9 39 -18.5 62.5t-28.5 47.5t-52 35t-82 11q-170 -5 -174 -156q-6 -34 -0.5 -72t18.5 -84.5t17 -66.5h244q50 0 79 -33t29 -84t-29.5 -86t-78.5 -35h-185q10 -92 -14 -168.5t-80 -158.5q110 9 221 -19q95 -30 152 -30t117 34q54 25 98 10.5t70 -67.5 q21 -45 11.5 -87t-46.5 -73q-88 -67 -230 -67q-69 0 -177 32.5t-142 38.5q-29 8 -58 9t-47 0.5t-51.5 -11t-43.5 -14t-53.5 -21.5t-51.5 -22q-33 -20 -64.5 -13.5t-54.5 25t-39 45.5q-29 51 -17 97.5z" />
<glyph unicode="&#xa5;" horiz-adv-x="1073" d="M25 1329q-28 52 0.5 82.5t80.5 34.5q83 1 125.5 -21t73.5 -84l236 -430l233 430q30 61 78 84t135 21q28 -2 46.5 -12.5t26.5 -34.5t-16 -62l-366 -651h203q106 0 106 -113q0 -43 -25.5 -74.5t-80.5 -31.5h-203v-84h203q56 0 81 -33t25 -80q0 -49 -25.5 -81.5t-80.5 -32.5 h-203v-76q0 -94 -137 -94q-138 0 -138 94v76h-208q-101 0 -101 114q0 113 101 113h208v84h-208q-101 0 -101 106q0 113 101 113h204z" />
<glyph unicode="&#xa8;" horiz-adv-x="696" d="M51 1311q0 60 27.5 91.5t95.5 31.5q66 0 93.5 -32t27.5 -91q0 -61 -27 -91t-94 -30q-69 0 -96 30t-27 91zM395 1311q0 123 121 123q129 0 129 -123q0 -61 -28.5 -91t-100.5 -30q-121 0 -121 121z" />
<glyph unicode="&#xa9;" horiz-adv-x="1585" d="M72 711q0 202 97 372.5t263 269.5t361 99q140 0 272 -58t230.5 -156.5t158 -236.5t59.5 -290q0 -144 -56 -279.5t-150.5 -238t-229.5 -164.5t-284 -62q-146 0 -279.5 59t-230 158.5t-154 237.5t-57.5 289zM256 711q0 -150 72 -277.5t195.5 -201.5t269.5 -74 q105 0 203 43.5t171.5 117.5t117.5 177t44 215q0 143 -70 269.5t-194.5 204t-271.5 77.5q-146 0 -269.5 -73.5t-195.5 -200.5t-72 -277zM426 715q0 93 21 171.5t64.5 141t117.5 98t172 35.5q106 0 192.5 -57t120.5 -160q19 -53 1.5 -78t-64.5 -35q-56 -12 -88 3t-52 67 q-12 36 -41.5 57t-70.5 21q-50 0 -85.5 -25.5t-52 -68t-23.5 -83.5t-7 -87q0 -47 7.5 -89t25.5 -82t53 -63.5t84 -23.5q41 0 75.5 25t49.5 67q16 44 41.5 57t72.5 10q34 -3 54 -16.5t24.5 -34.5t3 -39.5t-7.5 -38.5q-31 -98 -117 -156.5t-196 -58.5q-98 1 -171.5 35.5 t-117 96t-65 139.5t-21.5 172z" />
<glyph unicode="&#xab;" horiz-adv-x="770" d="M72 549q0 21 22 65l135 232q38 67 123 39q33 -9 44.5 -33t0.5 -57l-78 -213q-8 -19 -8 -33t8 -35l78 -211q11 -33 -0.5 -57t-44.5 -33q-86 -28 -123 39l-135 229q-22 51 -22 68zM367 549q0 28 22 65l133 232q40 66 125 39q33 -9 44.5 -33.5t-1.5 -56.5l-76 -213 q-8 -19 -8 -33t8 -35l76 -211q13 -32 1.5 -56.5t-44.5 -33.5q-86 -27 -125 39l-133 229q-22 42 -22 68z" />
<glyph unicode="&#xad;" horiz-adv-x="716" d="M72 535q0 114 78 114h415q42 0 61 -32.5t19 -81.5q0 -113 -80 -113h-415q-42 0 -60 32.5t-18 80.5z" />
<glyph unicode="&#xae;" horiz-adv-x="1585" d="M72 711q0 202 97 372.5t263 269.5t361 99q147 0 280.5 -58.5t229.5 -157.5t153 -236.5t57 -288.5q0 -202 -96 -373t-262 -271t-362 -100q-146 0 -279.5 59t-230 158.5t-154 237.5t-57.5 289zM256 711q0 -150 72 -277.5t195.5 -201.5t269.5 -74t269.5 74t195 201.5 t71.5 277.5t-71.5 277t-195 200.5t-269.5 73.5t-269.5 -73.5t-195.5 -200.5t-72 -277zM510 371v622q0 70 43 108t115 38h170q125 0 205.5 -72.5t80.5 -196.5q0 -69 -37.5 -122t-97.5 -74q39 -28 62 -75t43.5 -106.5t42.5 -93.5q25 -39 -5.5 -63.5t-72.5 -28.5q-30 -1 -54 -1 t-46.5 12t-38.5 38q-28 49 -48 131q-14 62 -37 93.5t-71 31.5h-53v-243q0 -74 -99 -74q-102 -4 -102 76zM711 788h108q44 0 70 21t26 63q0 82 -92 82h-90q-22 0 -22 -24v-142z" />
<glyph unicode="&#xb4;" horiz-adv-x="475" d="M111 1221l71 151q28 62 109 62q55 0 80 -4q55 -10 61 -45t-31 -74l-120 -137q-47 -50 -119 -35q-32 4 -49.5 23.5t-1.5 58.5z" />
<glyph unicode="&#xb8;" horiz-adv-x="602" d="M55 -297q12 32 39.5 46t65.5 -5q65 -25 125 -25q36 0 54.5 15.5t18.5 40.5q0 31 -19.5 43t-55.5 14q-18 0 -44.5 -1t-31.5 -1q-44 -4 -61.5 20t-2.5 66l31 96h178l-28 -61q222 -4 227 -168q0 -121 -113 -182q-65 -29 -149 -29q-125 0 -191 31q-59 30 -43 100z" />
<glyph unicode="&#xbb;" horiz-adv-x="770" d="M78.5 246.5q-11.5 24.5 1.5 56.5l78 211q6 24 6 35q0 12 -6 33l-78 213q-13 32 -1.5 56.5t44.5 33.5q87 27 125 -39l133 -232q22 -37 22 -65q0 -26 -22 -68l-133 -229q-36 -67 -125 -39q-33 9 -44.5 33.5zM373.5 246.5q-11.5 24.5 1.5 56.5l76 211q8 21 8 35t-8 33 l-76 213q-13 32 -1.5 56.5t44.5 33.5q85 27 125 -39l133 -232q22 -37 22 -65q0 -26 -22 -68l-133 -229q-39 -66 -125 -39q-33 9 -44.5 33.5z" />
<glyph unicode="&#x2c6;" horiz-adv-x="751" d="M73.5 1180.5q-8.5 29.5 22.5 64.5l125 154q19 22 33 28.5t43 6.5h156q29 0 44.5 -6.5t37.5 -28.5l116 -154q34 -35 26.5 -64.5t-59.5 -41.5q-66 -17 -112 26l-133 123l-127 -123q-49 -43 -115 -26q-49 12 -57.5 41.5z" />
<glyph unicode="&#x2da;" horiz-adv-x="491" d="M61 1247q0 78 54 132.5t131 54.5q81 0 132.5 -54t51.5 -133q0 -76 -52 -129t-132 -53q-76 0 -130.5 53.5t-54.5 128.5zM166 1247q0 -33 23 -54.5t57 -21.5t57 21.5t23 54.5t-23.5 56.5t-56.5 23.5t-56.5 -23.5t-23.5 -56.5z" />
<glyph unicode="&#x2dc;" horiz-adv-x="833" d="M63 1251q13 73 78 125q58 49 140 49q48 0 89 -15.5t64.5 -33.5t55 -33.5t61.5 -15.5q58 0 86 62q15 48 84 36q64 -17 47 -73q-22 -92 -66.5 -137.5t-130.5 -45.5q-41 0 -81 14.5t-67 32t-64.5 32t-73.5 14.5q-55 0 -86 -64q-9 -12 -16.5 -19.5t-18 -13.5t-24.5 -5t-31 9 q-26 4 -37.5 29.5t-8.5 52.5z" />
<glyph unicode="&#x401;" horiz-adv-x="1054" d="M133 180v1073q0 55 16.5 92.5t46.5 56t62.5 25.5t75.5 7h563q86 0 86 -123t-86 -123h-457q-19 0 -26.5 -7.5t-7.5 -27.5v-289h415q86 0 86 -123t-86 -123h-415v-337q0 -20 7.5 -27.5t26.5 -7.5h457q86 0 86 -123t-86 -123h-563q-43 0 -75.5 7t-62.5 25t-46.5 55.5 t-16.5 92.5zM281 1651q0 57 24.5 84.5t91.5 27.5t92 -27.5t25 -84.5t-24.5 -87t-92.5 -30q-67 0 -91.5 30t-24.5 87zM618 1651q0 57 24.5 84.5t92.5 27.5q66 0 91.5 -28t25.5 -84q0 -57 -24.5 -87t-92.5 -30q-67 0 -92 30t-25 87z" />
<glyph unicode="&#x402;" horiz-adv-x="1515" d="M0 1313q0 121 86 121h795q84 0 84 -121q0 -125 -84 -125h-265v-316q157 80 320 80q105 2 197 -28.5t164.5 -90.5t114 -159t40.5 -225q-3 -141 -69.5 -250t-172.5 -165.5t-231 -56.5q-168 0 -264 68q-68 49 -31 133q15 36 49 49t88 -10q57 -29 137 -22q118 4 182 75.5 t64 190.5q0 123 -70.5 195t-191.5 77q-81 3 -167.5 -17t-158.5 -61v-579q0 -92 -133 -92q-137 0 -137 92v1112h-260q-86 0 -86 125z" />
<glyph unicode="&#x403;" horiz-adv-x="929" d="M133 76v1177q0 57 15.5 94.5t46 55.5t62.5 24.5t77 6.5h479q86 0 86 -121q0 -125 -86 -125h-375q-32 0 -32 -35v-1077q0 -92 -136 -92q-137 0 -137 92zM428 1610l66 159q31 71 114 68q41 0 99 -8q51 -12 58 -46.5t-28 -72.5l-129 -143q-52 -55 -131 -35q-76 14 -49 78z " />
<glyph unicode="&#x404;" horiz-adv-x="1249" d="M72 717q0 137 16 245t56.5 203t105.5 157.5t166.5 98t236.5 35.5q248 0 384 -125t159 -336q6 -48 -35 -74.5t-104 -23.5q-69 2 -105 20t-47 70q-26 120 -80.5 175t-171.5 55q-61 0 -108.5 -19.5t-77.5 -51t-51 -78.5t-31.5 -94.5t-15.5 -105.5h374q86 0 86 -123 q0 -122 -86 -122h-378q3 -66 11.5 -119t29 -107.5t51 -91.5t80.5 -61t116 -25q203 -5 246 213q12 56 50 79.5t110 25.5q76 0 110 -29t27 -92q-11 -97 -49 -176t-103.5 -138.5t-165 -92t-225.5 -32.5q-135 0 -237 36t-167 98.5t-105 158t-56 203t-16 244.5z" />
<glyph unicode="&#x405;" horiz-adv-x="1122" d="M35 348q-10 51 14.5 84.5t73.5 44.5q57 13 104 -5t66 -71q31 -90 96.5 -141t155.5 -51q102 0 168.5 51t66.5 152q0 39 -16.5 70.5t-39.5 51t-59.5 36t-64 25t-64.5 18.5l-12 3q-77 20 -135 40t-124.5 56t-109 79.5t-71.5 111t-29 150.5q0 126 68 220t171.5 139.5 t223.5 45.5q89 0 166.5 -17.5t146.5 -56t120.5 -106.5t76.5 -162q12 -46 -17 -80.5t-87 -40.5q-120 -13 -152 64q-37 86 -91.5 125t-154.5 39q-52 0 -94.5 -15t-73 -54.5t-30.5 -98.5q0 -27 10.5 -50t22 -39t36.5 -31.5t39.5 -23.5t47.5 -18.5t43 -13.5t42 -11 q57 -15 99.5 -27.5t95.5 -34t91 -44t77 -56.5t63.5 -73.5t40 -93t15.5 -115.5q0 -210 -137 -331.5t-365 -121.5q-119 0 -223 39t-184.5 126t-106.5 212z" />
<glyph unicode="&#x406;" horiz-adv-x="538" d="M133 78v1270q0 94 135 94q138 0 138 -94v-1270q0 -96 -138 -96q-135 0 -135 96z" />
<glyph unicode="&#x407;" horiz-adv-x="589" d="M10 1651q0 57 24.5 84.5t92.5 27.5q66 0 91.5 -28t25.5 -84q0 -57 -25 -87t-92 -30t-92 30t-25 87zM160 78v1268q0 96 135 96t135 -96v-1268q0 -96 -135 -96t-135 96zM346 1651q0 57 25 84.5t92 27.5t92 -27.5t25 -84.5t-24.5 -87t-92.5 -30q-67 0 -92 30t-25 87z" />
<glyph unicode="&#x408;" horiz-adv-x="868" d="M16 170q9 47 43.5 73t77.5 11q86 -31 168 -27q47 1 79.5 16.5t49 43.5t23 58.5t6.5 70.5v932q0 94 135 94q137 0 137 -94v-979q0 -107 -40.5 -188t-106.5 -125.5t-151 -65t-175 -14.5t-176 34q-93 32 -70 160z" />
<glyph unicode="&#x409;" horiz-adv-x="1886" d="M23 100q-7 109 71 117q84 15 99 143q19 156 34 496t21 389q11 106 69.5 147.5t159.5 41.5h426q43 0 74.5 -6.5t62 -24.5t46.5 -55.5t16 -94.5v-360h291q190 0 311 -126t121 -323q0 -194 -122 -319t-310 -125h-361q-43 0 -75.5 7t-62.5 25t-46.5 56t-16.5 94v971 q0 19 -7.5 27t-26.5 8h-254q-33 0 -33 -35q-5 -54 -14.5 -228.5t-23.5 -342t-34 -293.5q-24 -157 -90 -230.5t-194 -70.5q-66 0 -98 26.5t-33 85.5zM1102 283q0 -19 8.5 -26t28.5 -7h225q86 0 133 52.5t47 141.5q0 87 -48.5 144t-131.5 57h-262v-362z" />
<glyph unicode="&#x40a;" horiz-adv-x="1927" d="M133 76v1272q0 96 137 96q58 0 97 -22t39 -74v-465h460v465q0 96 138 96q135 0 135 -96v-465h291q189 0 312.5 -122t123.5 -317q0 -194 -124.5 -319t-311.5 -125h-363q-44 0 -76 7t-62.5 25t-46.5 56t-16 94v457h-460v-563q0 -92 -136 -92q-137 0 -137 92zM1139 283 q0 -19 8.5 -26t26.5 -7h229q84 0 130 52.5t46 141.5q0 86 -47.5 140.5t-128.5 54.5h-264v-356z" />
<glyph unicode="&#x40b;" horiz-adv-x="1527" d="M0 1313q0 121 86 121h793q47 0 67.5 -34.5t20.5 -86.5q0 -54 -20.5 -89.5t-67.5 -35.5h-261v-316q151 80 320 80q238 6 373 -120.5t135 -356.5v-399q0 -92 -135 -92t-135 92v405q0 255 -232 262q-161 6 -326 -88v-579q0 -92 -133 -92q-137 0 -137 92v1112h-262 q-86 0 -86 125z" />
<glyph unicode="&#x40c;" horiz-adv-x="1161" d="M133 76v1272q0 96 135 96t135 -96v-459q157 0 236 139q23 41 78 157.5t78 151.5q42 65 74 86t108 21q82 0 110.5 -29t-8.5 -88q-21 -35 -79 -152.5t-99 -189.5q-30 -49 -48 -76t-53 -61t-73 -51q133 -39 213 -224q32 -76 85.5 -244t78.5 -218q32 -69 -1.5 -96t-123.5 -27 q-63 0 -93 18t-52 60q-37 78 -79 228t-61 200q-66 187 -291 161v-579q0 -92 -135 -92t-135 92zM485 1610l70 159q31 71 113 68q48 0 94 -8q36 -8 52 -26.5t10 -43t-31 -49.5l-127 -143q-48 -57 -127 -35q-80 15 -54 78z" />
<glyph unicode="&#x40e;" d="M33 1329q-26 52 5 81t91 32q83 3 117.5 -17.5t60.5 -78.5l250 -525l203 525q22 57 54 76.5t112 19.5q57 -2 91 -23t15 -73l-434 -1127q-38 -101 -100.5 -167t-153.5 -66q-69 0 -106.5 27t-38.5 102q-1 50 18 74t59 30q31 5 46.5 19t33.5 61l80 203zM258 1653 q-34 79 21 114q62 38 104 -4q40 -41 79 -58t95 -17q57 0 96.5 17t79.5 58q20 22 49.5 23.5t55.5 -17.5q55 -36 20 -116q-28 -60 -109 -107t-192 -47q-110 0 -191.5 47.5t-107.5 106.5z" />
<glyph unicode="&#x40f;" horiz-adv-x="1255" d="M133 182v1178q0 94 135 94q58 0 96.5 -21.5t38.5 -72.5v-1077q0 -19 7.5 -26t25.5 -7h381q18 0 25.5 7t7.5 26v1077q0 94 137 94q58 0 96.5 -21.5t38.5 -72.5v-1178q0 -45 -11.5 -78.5t-29.5 -53t-45.5 -31t-54.5 -15.5t-61 -4h-181v-295q0 -42 -31.5 -60t-78.5 -18 q-49 0 -83 18t-34 60v295h-178q-44 0 -76 7t-62.5 25t-46.5 56t-16 94z" />
<glyph unicode="&#x410;" horiz-adv-x="1236" d="M32 39.5q-6 17.5 5 42.5l424 1270q18 52 60 77t97 25t97.5 -25t60.5 -77l424 -1270q11 -25 5 -42.5t-16 -28t-31 -16t-39.5 -7.5t-41.5 -2q-60 0 -96.5 18.5t-56.5 77.5l-80 246h-451l-80 -246q-20 -59 -56.5 -77.5t-96.5 -18.5q-23 0 -41.5 2t-39.5 7.5t-31 16t-16 28z M473 567h291l-98 299q-35 105 -48 197q-14 -98 -47 -197z" />
<glyph unicode="&#x411;" horiz-adv-x="1153" d="M133 180v1073q0 55 16.5 92.5t46.5 56t62.5 25.5t75.5 7h590q86 0 86 -123t-86 -123h-484q-19 0 -26.5 -7.5t-7.5 -27.5v-289h276q189 0 304.5 -117.5t115.5 -314.5q0 -194 -116.5 -313t-303.5 -119h-348q-43 0 -75.5 7t-62.5 25t-46.5 55.5t-16.5 92.5zM406 281 q0 -20 7.5 -27.5t26.5 -7.5h213q84 0 125 48.5t41 137.5q0 87 -41.5 136.5t-124.5 49.5h-247v-337z" />
<glyph unicode="&#x412;" horiz-adv-x="1228" d="M133 180v1073q0 55 16.5 92.5t46.5 56t62.5 25.5t75.5 7h348q192 0 307 -100.5t115 -291.5q0 -91 -40 -164t-106 -114q199 -96 199 -332q0 -194 -117.5 -313t-304.5 -119h-401q-43 0 -75.5 7t-62.5 25t-46.5 55.5t-16.5 92.5zM406 281q0 -20 7.5 -27.5t26.5 -7.5h267 q165 0 165 186t-190 186h-276v-337zM406 864h247q82 0 124 43t42 119q0 162 -166 162h-213q-19 0 -26.5 -7.5t-7.5 -27.5v-289z" />
<glyph unicode="&#x413;" horiz-adv-x="907" d="M133 78v1175q0 55 16 92.5t46 56t63 25.5t76 7h477q86 0 86 -123t-86 -123h-373q-18 0 -26.5 -7.5t-8.5 -27.5v-1075q0 -96 -135 -96t-135 96z" />
<glyph unicode="&#x414;" horiz-adv-x="1318" d="M0 66q0 59 23 99.5t75 67.5q53 28 78 129.5t41 280.5q8 123 27 610q3 56 20.5 93.5t48 55.5t62.5 25t74 7h479q44 0 76 -6.5t62 -25t46 -56t16 -93.5v-1009q34 -1 60 -8.5t50 -26t37 -54.5t13 -89v-281q0 -94 -129 -94q-127 0 -127 94v178q0 21 -7.5 29t-25.5 8h-708 q-37 0 -37 -37v-178q0 -94 -127 -94t-127 94v281zM422 244h438v907q0 21 -7.5 28t-25.5 7h-276q-18 0 -26 -7t-11 -28q-6 -227 -27 -578q-17 -246 -65 -329z" />
<glyph unicode="&#x415;" horiz-adv-x="1054" d="M133 180v1073q0 55 16.5 92.5t46.5 56t62.5 25.5t75.5 7h563q86 0 86 -123t-86 -123h-457q-19 0 -26.5 -7.5t-7.5 -27.5v-289h415q86 0 86 -123t-86 -123h-415v-337q0 -20 7.5 -27.5t26.5 -7.5h457q86 0 86 -123t-86 -123h-563q-43 0 -75.5 7t-62.5 25t-46.5 55.5 t-16.5 92.5z" />
<glyph unicode="&#x416;" horiz-adv-x="1599" d="M56.5 1408q32.5 34 115.5 34q75 0 108.5 -21.5t71.5 -83.5q16 -28 55.5 -122t59.5 -134l30 -57t29 -45.5t36.5 -40t44.5 -26t61 -17.5v451q0 96 133 96t133 -96v-451q41 7 70.5 21t53.5 43t37.5 51.5t37.5 70.5q20 41 59 134.5t55 121.5q28 43 46 62.5t50 31t84 11.5 q82 0 114 -34t-5 -95q-34 -53 -95 -181.5t-95 -183.5q-27 -44 -44 -67t-45.5 -48t-64.5 -42q136 -61 207 -230q33 -81 68.5 -234.5t60.5 -224.5q22 -63 -7 -88.5t-104 -27.5q-76 -1 -107 20t-55 84q-14 36 -49.5 195t-62.5 225q-28 70 -78 105.5t-131 39.5v-577 q0 -96 -133 -96t-133 96v577q-80 -3 -130.5 -39t-78.5 -106q-27 -66 -64 -225t-51 -195q-24 -63 -55 -84t-107 -20q-74 2 -103 27.5t-7 88.5q27 73 64 226t69 233q71 170 205 230q-52 24 -84.5 59.5t-69.5 97.5q-36 57 -99 185.5t-96 179.5q-37 61 -4.5 95z" />
<glyph unicode="&#x417;" horiz-adv-x="1132" d="M53 371q-3 44 26.5 73t78.5 37q59 11 100 -5.5t51 -59.5q26 -102 86 -150.5t158 -48.5q96 0 161.5 55t65.5 140q0 53 -14.5 91.5t-38.5 61.5t-62 36t-77 17.5t-92 4.5q-44 0 -65 34.5t-21 90.5q0 113 92 122q241 8 241 191q0 78 -52 120t-142 42q-104 0 -154.5 -40.5 t-62.5 -125.5q-7 -42 -52.5 -61t-101.5 -11q-56 6 -87 38.5t-25 76.5q22 175 144.5 268.5t336.5 93.5q91 0 173 -22.5t151.5 -68t110.5 -123.5t42 -179q0 -101 -49 -179.5t-141 -125.5q110 -43 169 -138.5t56 -215.5q-6 -209 -141 -322t-373 -113q-121 0 -228.5 44 t-181.5 136t-82 216z" />
<glyph unicode="&#x418;" horiz-adv-x="1286" d="M133 78v1268q0 52 37.5 74t93.5 22t95.5 -22t39.5 -74v-861q22 58 78 160l412 717q25 44 55.5 62t83.5 18q125 0 125 -96v-1268q0 -96 -129 -96q-56 0 -95.5 22t-39.5 74v848q-31 -76 -78 -162l-410 -711q-23 -39 -52.5 -55t-76.5 -16q-57 0 -98 22t-41 74z" />
<glyph unicode="&#x419;" horiz-adv-x="1286" d="M133 78v1268q0 52 37.5 74t93.5 22t94.5 -22t38.5 -74v-861q31 78 80 160l412 717q25 44 55.5 62t81.5 18q127 0 127 -96v-1268q0 -96 -129 -96q-56 0 -95.5 22t-39.5 74v848q-34 -84 -80 -162l-408 -711q-23 -39 -53 -55t-78 -16q-57 0 -97 22t-40 74zM350 1665 q-34 79 21 115q62 38 104 -4q40 -41 79.5 -58.5t94.5 -17.5q57 0 96.5 17.5t79.5 58.5q20 22 49.5 23.5t55.5 -17.5q55 -36 20 -117q-28 -60 -109 -107t-192 -47q-110 0 -191.5 47.5t-107.5 106.5z" />
<glyph unicode="&#x41a;" horiz-adv-x="1159" d="M133 78v1268q0 96 135 96q138 0 138 -96v-455q156 0 233 135q24 42 78.5 158.5t77.5 152.5q42 63 74.5 84t107.5 21q83 0 112 -29.5t-8 -89.5q-25 -37 -84 -155.5t-98 -184.5q-27 -45 -46.5 -73.5t-53.5 -62t-70 -50.5q128 -39 211 -226q35 -80 86.5 -246.5t75.5 -215.5 q33 -67 0 -95t-121 -28q-64 0 -94.5 19t-52.5 63q-38 80 -82.5 235.5t-57.5 192.5q-35 98 -106.5 133.5t-181.5 27.5v-579q0 -96 -138 -96q-135 0 -135 96z" />
<glyph unicode="&#x41b;" horiz-adv-x="1234" d="M23 98q-4 108 69 121q84 12 96 141q20 157 37.5 497t22.5 386q13 104 72 147.5t157 43.5h424q44 0 76 -6.5t62.5 -24.5t46.5 -55.5t16 -92.5v-1179q0 -94 -135 -94q-136 0 -136 94v1077q0 20 -8 27.5t-26 7.5h-254q-18 0 -26 -7.5t-11 -27.5q-3 -45 -13 -228t-23 -348 t-32 -290q-26 -155 -91 -228.5t-193 -72.5q-65 0 -96.5 27t-34.5 85z" />
<glyph unicode="&#x41c;" horiz-adv-x="1439" d="M133 78v1268q0 51 36.5 74.5t92.5 23.5q77 0 115 -55q16 -23 102 -186.5t164 -315.5l78 -152q309 603 342 654q38 55 117 55q56 0 91.5 -23t35.5 -75v-1268q0 -52 -37.5 -74t-93.5 -22t-95 22t-39 74v829q-15 -48 -75 -176l-158 -311q-24 -47 -88 -47q-66 0 -90 47 l-156 311q-55 108 -78 176v-829q0 -52 -38.5 -74t-94.5 -22t-93.5 22t-37.5 74z" />
<glyph unicode="&#x41d;" horiz-adv-x="1269" d="M133 78v1268q0 96 135 96t135 -96v-490h461v490q0 96 135 96q138 0 138 -96v-1268q0 -96 -138 -96q-135 0 -135 96v532h-461v-532q0 -96 -135 -96t-135 96z" />
<glyph unicode="&#x41e;" horiz-adv-x="1306" d="M72 717q0 135 18.5 245t61 203.5t109 156.5t165.5 98.5t227 35.5t227 -35.5t165.5 -99t109.5 -156.5t61.5 -203t18.5 -245q0 -134 -18.5 -244t-61 -203.5t-109 -157.5t-166 -99.5t-227.5 -35.5t-227.5 35.5t-165.5 99.5t-108.5 157.5t-61 203.5t-18.5 244zM350 717 q0 -61 4.5 -114t15.5 -112.5t33 -106t54 -85t82 -59.5t114 -21t114 21t82 59.5t54 85t33 106t15.5 112.5t4.5 114q0 53 -2.5 98.5t-11 98t-22 94.5t-36.5 82t-54.5 67t-76.5 43.5t-100 16.5q-77 0 -134 -31.5t-88.5 -79t-50.5 -118t-24.5 -132.5t-5.5 -139z" />
<glyph unicode="&#x41f;" horiz-adv-x="1255" d="M133 78v1175q0 55 16 92.5t46 56t63 25.5t76 7h588q92 0 146 -38t54 -143v-1175q0 -96 -135 -96q-137 0 -137 96v1075q0 20 -7.5 27.5t-25.5 7.5h-379q-18 0 -26.5 -7.5t-8.5 -27.5v-1075q0 -96 -135 -96t-135 96z" />
<glyph unicode="&#x420;" horiz-adv-x="1179" d="M133 78v1175q0 55 16.5 92.5t46.5 56t62.5 25.5t75.5 7h362q186 0 309 -125t123 -320q0 -196 -122 -322t-310 -126h-290v-463q0 -96 -138 -96q-135 0 -135 96zM406 788h262q82 0 129 57t47 144q0 89 -46 144t-130 55h-228q-19 0 -26.5 -7.5t-7.5 -27.5v-365z" />
<glyph unicode="&#x421;" horiz-adv-x="1220" d="M72 717q0 739 583 739q120 0 213.5 -34.5t153.5 -97.5t94.5 -144t44.5 -181q4 -45 -35 -71.5t-96 -26.5q-63 -2 -98.5 17t-46.5 71q-25 118 -77.5 173t-164.5 55q-62 0 -111 -21t-79.5 -60t-51.5 -84.5t-31 -106t-14 -113t-4 -115.5q0 -75 5.5 -137.5t24 -132.5t49 -118 t85 -79.5t127.5 -30.5q58 0 101 17.5t70.5 52.5t43.5 71t31 89q13 45 48 65.5t97 22.5q75 0 109 -29t22 -92q-13 -69 -38 -130.5t-68 -119t-100 -99t-138.5 -66t-177.5 -24.5q-571 0 -571 740z" />
<glyph unicode="&#x422;" horiz-adv-x="1024" d="M31 1311q0 123 86 123h790q86 0 86 -123t-86 -123h-260v-1110q0 -96 -135 -96q-34 0 -62 7.5t-50.5 30t-22.5 58.5v1110h-260q-86 0 -86 123z" />
<glyph unicode="&#x423;" d="M33 1329q-26 52 5 81t91 32q83 3 117.5 -17.5t60.5 -78.5l250 -525l203 525q22 57 54 76.5t112 19.5q57 -2 91 -23t15 -73l-434 -1127q-38 -101 -100.5 -167t-153.5 -66q-69 0 -106.5 27t-38.5 102q-1 50 18 74t59 30q31 5 46.5 19t33.5 61l80 203z" />
<glyph unicode="&#x424;" horiz-adv-x="1521" d="M61 707q0 113 37 215t106.5 184.5t178.5 136t244 64.5v86q0 92 133 92q135 0 135 -92v-86q135 -11 244 -63.5t178.5 -133t106 -181.5t36.5 -214q0 -150 -66.5 -276.5t-196.5 -210t-302 -97.5v-82q0 -94 -135 -94q-133 0 -133 94v82q-172 14 -302.5 96t-197 207t-66.5 273 zM332 707q0 -155 79.5 -260.5t215.5 -120.5v776q-133 -17 -214 -128.5t-81 -266.5zM895 326q137 15 216 123.5t79 265.5q0 153 -80.5 261.5t-214.5 125.5v-776z" />
<glyph unicode="&#x425;" horiz-adv-x="1110" d="M43 86l365 643l-347 614q-29 51 4.5 75t88.5 24q84 0 123.5 -19.5t70.5 -76.5l207 -365l207 365q31 57 70.5 76.5t123.5 19.5q55 0 89 -24t6 -75l-349 -614l365 -643q29 -51 -5.5 -76.5t-90.5 -27.5q-77 -2 -125.5 17.5t-77.5 72.5l-213 397l-213 -397 q-29 -53 -77.5 -72.5t-125.5 -17.5q-56 2 -90.5 27.5t-5.5 76.5z" />
<glyph unicode="&#x426;" horiz-adv-x="1339" d="M133 180v1178q0 94 135 94q138 0 138 -94v-1077q0 -20 7 -27.5t25 -7.5h436v1100q0 96 136 96q135 0 135 -96v-1100q80 -2 122 -40.5t42 -139.5v-279q0 -94 -129 -94q-125 0 -125 94v178q0 20 -7.5 27.5t-25.5 7.5h-688q-44 0 -76 7t-62.5 25t-46.5 55.5t-16 92.5z" />
<glyph unicode="&#x427;" horiz-adv-x="1177" d="M92 842v504q0 96 135 96t135 -96v-474q0 -48 16.5 -82t45 -50.5t58.5 -23.5t65 -7q121 0 225 49v588q0 96 135 96q137 0 137 -96v-1268q0 -96 -137 -96q-135 0 -135 96v426q-131 -43 -262 -43q-189 0 -303.5 99t-114.5 282z" />
<glyph unicode="&#x428;" horiz-adv-x="1861" d="M133 180v1178q0 94 135 94t135 -94v-1077q0 -20 8.5 -27.5t26.5 -7.5h357v1100q0 96 135 96t135 -96v-1100h356q18 0 26.5 7.5t8.5 27.5v1077q0 94 135 94q138 0 138 -94v-1178q0 -55 -16.5 -92.5t-46.5 -55.5t-62.5 -25t-75.5 -7h-1194q-44 0 -76 7t-62.5 25t-46.5 55.5 t-16 92.5z" />
<glyph unicode="&#x429;" horiz-adv-x="1923" d="M133 180v1178q0 94 135 94q138 0 138 -94v-1077q0 -20 7 -27.5t25 -7.5h357v1100q0 96 135 96q137 0 137 -96v-1100h389v1100q0 96 137 96q136 0 136 -96v-1100q79 -2 121 -40.5t42 -139.5v-279q0 -94 -129 -94q-127 0 -127 94v178q0 20 -7.5 27.5t-26.5 7.5h-1268 q-44 0 -76 7t-62.5 25t-46.5 55.5t-16 92.5z" />
<glyph unicode="&#x42a;" horiz-adv-x="1333" d="M0 1305q0 129 94 129h273q57 0 94 -13.5t55.5 -40t25.5 -56.5t7 -73v-358h289q188 0 311 -126.5t123 -322.5q0 -195 -123.5 -319.5t-310.5 -124.5h-361q-44 0 -76 7t-62.5 25t-46.5 55.5t-16 92.5v965q0 18 -7 25.5t-27 7.5h-148q-94 0 -94 127zM549 281q0 -20 7.5 -27.5 t25.5 -7.5h227q84 0 131 54.5t47 143.5q0 87 -47.5 145t-130.5 58h-260v-366z" />
<glyph unicode="&#x42b;" horiz-adv-x="1652" d="M133 180v1178q0 94 137 94q136 0 136 -94v-465h258q188 0 311 -126.5t123 -322.5q0 -195 -123.5 -319.5t-310.5 -124.5h-330q-43 0 -75.5 7t-62.5 25t-46.5 55.5t-16.5 92.5zM406 281q0 -20 7.5 -27.5t26.5 -7.5h195q84 0 131 54.5t47 143.5q0 87 -48 145t-130 58h-229 v-366zM1249 78v1268q0 96 135 96q136 0 136 -96v-1268q0 -96 -136 -96q-135 0 -135 96z" />
<glyph unicode="&#x42c;" horiz-adv-x="1189" d="M133 180v1178q0 94 135 94t135 -94v-465h291q188 0 311 -126.5t123 -322.5q0 -195 -123.5 -319.5t-310.5 -124.5h-360q-44 0 -76 7t-62.5 25t-46.5 55.5t-16 92.5zM403 281q0 -20 8.5 -27.5t26.5 -7.5h228q84 0 131 54.5t47 143.5q0 87 -48 145t-130 58h-263v-366z" />
<glyph unicode="&#x42d;" horiz-adv-x="1249" d="M53 416q-7 63 27 92t110 29q72 -2 110 -25.5t50 -79.5q46 -218 248 -213q66 1 116 25t81 61t51 91.5t28 108t11 118.5h-377q-86 0 -86 122q0 123 86 123h375q-31 349 -285 349q-117 0 -172.5 -55t-81.5 -175q-10 -52 -45.5 -70t-103.5 -20q-64 -3 -106 23.5t-36 74.5 q23 211 160 336t385 125q112 0 201.5 -24t152.5 -71t107.5 -110.5t70 -148.5t37 -178.5t11.5 -206.5q0 -137 -16 -244.5t-56 -203t-104.5 -158t-166.5 -98.5t-237 -36q-249 0 -385.5 119t-159.5 320z" />
<glyph unicode="&#x42e;" horiz-adv-x="1816" d="M133 78v1268q0 96 137 96q136 0 136 -96v-478h182q13 137 50.5 242t105 184t173 120.5t246.5 41.5q128 0 227 -35.5t165.5 -99t109.5 -156.5t61.5 -203t18.5 -245q0 -134 -18.5 -244t-61 -203.5t-109 -157.5t-166 -99.5t-227.5 -35.5q-545 0 -579 646h-178v-545 q0 -96 -136 -96q-137 0 -137 96zM860 717q0 -61 4.5 -114t15.5 -112.5t33 -106t54 -85t82 -59.5t114 -21t114 21t82 59.5t54 85t33 106t15.5 112.5t4.5 114q0 53 -2.5 98.5t-11 98t-22 94.5t-36.5 82t-54.5 67t-76.5 43.5t-100 16.5q-77 0 -134 -31.5t-88.5 -79t-50.5 -118 t-24.5 -132.5t-5.5 -139z" />
<glyph unicode="&#x42f;" horiz-adv-x="1228" d="M32 57q-3 25 17 60q22 34 44 77t32.5 66.5t36.5 84.5t31 73q60 142 157 213q-107 41 -177.5 138.5t-70.5 234.5q0 194 122 312t311 118h360q43 0 76 -7t63 -25.5t46 -56t16 -92.5v-1175q0 -96 -135 -96q-136 0 -136 96v500h-123q-82 0 -133 -48.5t-88 -134.5 q-19 -42 -51 -124.5t-58.5 -140.5t-54.5 -95q-43 -58 -149 -53q-31 1 -59.5 9t-51 24.5t-25.5 41.5zM385 1004q0 -85 47.5 -139t130.5 -54h262v342q0 20 -8 27.5t-26 7.5h-228q-86 0 -132 -48.5t-46 -135.5z" />
<glyph unicode="&#x430;" horiz-adv-x="1085" d="M72 313q0 410 616 373q1 98 -44.5 140t-117.5 42q-54 1 -98.5 -7.5t-68 -17.5t-87.5 -36q-83 -34 -131 22q-31 36 -27 86.5t48 77.5q160 97 368 97q91 0 166.5 -22t136.5 -67t95.5 -122.5t34.5 -180.5v-473q0 -39 8 -137q4 -51 -22.5 -71.5t-80.5 -22.5q-54 0 -84 20 t-53 70q-61 -51 -131.5 -79t-175.5 -28q-94 0 -173.5 39t-129 117t-49.5 180zM348 313q1 -52 40 -83t104 -31q104 0 157 83.5t39 202.5q-36 0 -80 2.5t-91 -7.5t-85 -26.5t-62 -53t-22 -87.5z" />
<glyph unicode="&#x431;" horiz-adv-x="1148" d="M94 545q-5 140 14.5 263t66.5 239t135.5 210.5t213.5 155.5q22 11 289 127q46 24 92 11.5t68 -62.5q54 -119 -47 -178q-35 -21 -80.5 -38.5t-106 -36.5t-90.5 -30q-95 -36 -159 -83.5t-95 -123.5q32 32 106.5 51t127.5 19q448 0 448 -539q0 -123 -26 -220.5t-81.5 -173 t-149 -116t-220.5 -40.5q-129 0 -225.5 41.5t-156 118t-90 177.5t-34.5 228zM371 530q0 -45 5.5 -88.5t21 -90t39.5 -80.5t64 -56t91 -22q209 2 209 337q0 318 -217 318q-54 0 -93.5 -20t-62 -50t-36 -74.5t-17.5 -84.5t-4 -89z" />
<glyph unicode="&#x432;" horiz-adv-x="1089" d="M133 201v661q0 199 182 199h322q162 0 258 -69.5t96 -219.5q0 -53 -30.5 -113t-81.5 -81q46 -19 76.5 -49t42.5 -66.5t16 -63.5t4 -63q0 -165 -105 -250.5t-286 -85.5h-312q-182 0 -182 201zM408 252q0 -39 24 -39h191q47 0 83.5 32.5t36.5 90.5q0 56 -36.5 88.5 t-83.5 32.5h-215v-205zM408 668h210q41 0 70 22t29 68q0 29 -10.5 48.5t-30 28.5t-38.5 12t-44 3h-150q-36 0 -36 -41v-141z" />
<glyph unicode="&#x433;" horiz-adv-x="825" d="M133 78v784q0 199 182 199h383q97 0 97 -111q0 -110 -97 -110h-254q-36 0 -36 -41v-721q0 -98 -138 -98q-59 0 -98 23t-39 75z" />
<glyph unicode="&#x434;" horiz-adv-x="1120" d="M10 61q0 95 66 144q66 45 86 153q14 74 21 173.5t10.5 200.5t5.5 130q5 93 47.5 146t140.5 53h397q187 0 187 -201v-647q64 -9 91.5 -46.5t27.5 -105.5v-206q0 -56 -30.5 -78.5t-86.5 -22.5q-58 0 -89.5 22.5t-31.5 78.5v104q0 41 -35 41h-520q-37 0 -37 -41v-104 q0 -56 -31.5 -78.5t-89.5 -22.5q-129 0 -129 101v206zM383 221h319v576q0 21 -7.5 32t-28.5 11h-177q-38 0 -38 -43q0 -1 -10 -164t-23.5 -268.5t-34.5 -143.5z" />
<glyph unicode="&#x435;" d="M72 537q0 89 16 168t52 150t90 122t135 80.5t182 29.5q208 0 325 -120t115 -318q-1 -100 -45 -138t-141 -38h-453q2 -56 12 -101.5t32.5 -87t65.5 -65t103 -22.5q61 0 97.5 26t66.5 82q30 59 149 47q61 -7 79 -39.5t5 -70.5q-39 -129 -146.5 -200t-256.5 -71 q-123 1 -218 47t-151 125.5t-84.5 178.5t-29.5 215zM356 664h336q17 0 27.5 11t9.5 34q-6 80 -52 124t-118 44q-87 0 -139.5 -57t-63.5 -156z" />
<glyph unicode="&#x436;" horiz-adv-x="1452" d="M51 14.5q-21 28.5 2 77.5q19 42 39 110.5t36.5 124t41 112.5t66.5 98t100 59q-80 35 -160 192q-7 14 -26 51t-35 67.5t-33 56.5q-26 40 -18.5 65t34.5 36.5t70 12.5q57 2 92.5 -9.5t63.5 -43.5q12 -14 24.5 -33t19 -31t19 -38t16.5 -33q46 -91 67 -120q50 -64 126 -81 v295q0 98 129 98q131 0 131 -98v-295q30 7 56 21.5t42.5 28.5t34.5 41.5t26 43t25 48.5q2 4 3 6.5t3 5.5t3 6q5 9 16.5 33.5t18.5 37.5t18.5 31.5t23.5 32.5q29 32 65 43.5t93 9.5q43 -1 70 -12.5t34.5 -36.5t-18.5 -65q-17 -26 -33 -56.5t-35 -67.5t-26 -51 q-27 -50 -46 -80.5t-50 -63.5t-64 -48q58 -17 100 -57.5t66.5 -98t41 -113.5t36.5 -124.5t39 -110.5q23 -49 2 -77.5t-90 -34.5q-148 -14 -185 112q-10 33 -22.5 79.5t-20 72.5t-19.5 61t-23 54.5t-29 41t-39 31.5t-50.5 17t-66.5 6v-377q0 -98 -131 -98q-129 0 -129 98v377 q-38 1 -67.5 -6t-50.5 -17.5t-38.5 -31.5t-28.5 -40.5t-23 -54t-19.5 -61.5t-20 -73t-22.5 -79q-37 -126 -185 -112q-69 6 -90 34.5z" />
<glyph unicode="&#x437;" horiz-adv-x="925" d="M57 225q-15 59 8.5 97.5t94.5 42.5q30 2 51.5 -1.5t45 -22.5t38.5 -56q41 -101 143 -101q70 0 115 36t45 104q0 66 -49.5 96.5t-118.5 30.5q-58 0 -80 24t-22 76q0 37 8.5 60t26 32.5t33.5 12.5t42 3q64 0 99.5 30.5t35.5 86.5q0 98 -131 98q-61 0 -95.5 -23t-57.5 -79 q-11 -27 -50 -39.5t-79 -7.5q-50 7 -76.5 31.5t-15.5 68.5q35 136 141 200.5t248 64.5q72 0 137 -18.5t118.5 -54.5t85 -96t31.5 -135q0 -136 -108 -221q65 -38 99 -104.5t34 -143.5q0 -83 -34.5 -150t-92 -109t-129 -64.5t-149.5 -22.5q-89 0 -166.5 24.5t-140.5 83.5 t-85 146z" />
<glyph unicode="&#x438;" horiz-adv-x="1165" d="M133 78v905q0 98 137 98q138 0 138 -98v-537q33 67 67 115l309 477q29 43 117 43q131 0 131 -98v-905q0 -98 -137 -98t-137 98v538q-22 -46 -66 -116l-311 -475q-30 -45 -117 -45q-131 0 -131 98z" />
<glyph unicode="&#x439;" horiz-adv-x="1165" d="M133 78v905q0 98 137 98q138 0 138 -98v-537q30 62 65 115l311 477q29 43 117 43q131 0 131 -98v-905q0 -50 -40 -74t-97 -24q-137 0 -137 98v538q-27 -55 -68 -116l-309 -475q-30 -45 -117 -45q-131 0 -131 98zM277.5 1364.5q7.5 26.5 31.5 46.5q25 20 58 23t55 -17 q68 -76 164 -76q98 0 166 76q22 20 54.5 17t57.5 -23q24 -21 31.5 -46.5t-4.5 -49.5q-31 -65 -117.5 -113.5t-187.5 -48.5q-100 0 -186.5 48.5t-118.5 113.5q-11 23 -3.5 49.5z" />
<glyph unicode="&#x43a;" horiz-adv-x="1044" d="M133 78v905q0 98 137 98q138 0 138 -98v-297q44 8 78.5 28t61 52.5t44.5 62t44.5 77t45.5 77.5q38 55 84 78.5t115 19.5q44 -2 74 -16.5t40.5 -41.5t-18.5 -67q-25 -35 -64 -101t-67 -112.5t-70.5 -92t-85.5 -62.5q62 -17 106.5 -57t71 -96.5t44 -111.5t37.5 -123 t40 -110q50 -102 -88 -113q-150 -14 -190 113q-6 20 -19.5 64t-19 61.5t-18 52.5t-20 49.5t-22 40t-27 36t-32 25.5t-40 20.5t-47.5 10t-58 3.5v-375q0 -98 -138 -98q-137 0 -137 98z" />
<glyph unicode="&#x43b;" horiz-adv-x="1110" d="M23 88q-1 54 19.5 85t53.5 36q28 4 53.5 28.5t30.5 67.5q12 73 19.5 181.5t12.5 227t7 148.5q15 199 193 199h381q184 0 184 -199v-784q0 -98 -137 -98q-138 0 -138 98v721q0 41 -36 41h-154q-39 0 -39 -41q-5 -49 -14 -212t-19 -249q-9 -67 -22 -117.5t-36 -98.5 t-54.5 -78.5t-79 -48.5t-109.5 -18q-58 0 -84.5 25.5t-31.5 85.5z" />
<glyph unicode="&#x43c;" horiz-adv-x="1290" d="M133 78v897q0 55 37.5 80.5t95.5 25.5q97 0 135 -67l244 -463l244 463q20 37 52 52t83 15q57 0 95 -25.5t38 -80.5v-897q0 -53 -38.5 -75.5t-96.5 -22.5q-135 0 -135 98v491q-22 -62 -45 -104l-97 -182q-32 -60 -100 -60t-100 60l-96 180q-24 44 -46 106v-491 q0 -98 -135 -98t-135 98z" />
<glyph unicode="&#x43d;" horiz-adv-x="1146" d="M133 78v905q0 98 137 98q138 0 138 -98v-313h331v313q0 98 138 98q137 0 137 -98v-905q0 -98 -137 -98q-138 0 -138 98v371h-331v-371q0 -98 -138 -98q-137 0 -137 98z" />
<glyph unicode="&#x43e;" horiz-adv-x="1081" d="M72 530q0 551 469 551t469 -551q0 -550 -469 -550t-469 550zM338 530q0 -52 4 -94.5t16.5 -90t34 -80t59.5 -54t89 -21.5q52 0 90 21.5t59.5 53.5t34.5 80t16.5 90.5t3.5 94.5q0 53 -3.5 94.5t-15.5 90t-33.5 80.5t-60 53.5t-91.5 21.5q-52 0 -90.5 -21.5t-59.5 -53.5 t-33.5 -80.5t-16 -90t-3.5 -94.5z" />
<glyph unicode="&#x43f;" horiz-adv-x="1140" d="M133 78v784q0 89 46.5 144t137.5 55h508q183 0 183 -199v-784q0 -98 -138 -98q-137 0 -137 98v721q0 41 -37 41h-252q-34 0 -34 -41v-721q0 -98 -138 -98q-33 0 -62 7.5t-53 31t-24 59.5z" />
<glyph unicode="&#x440;" horiz-adv-x="1159" d="M133 -283v1264q0 104 125 104q118 0 133 -90q40 41 107.5 66.5t138.5 25.5q450 0 450 -555q0 -258 -111.5 -407.5t-338.5 -149.5q-146 0 -229 80v-338q0 -98 -138 -98q-137 0 -137 98zM408 496q0 -52 11.5 -104t34 -99t63.5 -76t93 -29q48 0 84 21.5t55.5 54.5t31 81.5 t15 91t3.5 95.5t-3.5 95.5t-15 90.5t-31 80.5t-55.5 54t-84 21.5q-65 0 -112.5 -45.5t-68.5 -109t-21 -131.5v-92z" />
<glyph unicode="&#x441;" horiz-adv-x="1042" d="M72 530q0 551 469 551q174 0 287 -83t130 -222q7 -61 -20 -87.5t-98 -26.5q-54 2 -83 17.5t-42 55.5q-21 70 -60.5 102.5t-113.5 32.5q-52 0 -91 -21.5t-60 -53.5t-34 -80t-16.5 -90.5t-3.5 -94.5q0 -340 205 -340q121 0 180 134q17 40 48 56.5t83 18.5q63 2 95 -24.5 t20 -79.5q-33 -145 -142.5 -230t-283.5 -85q-469 0 -469 550z" />
<glyph unicode="&#x442;" horiz-adv-x="851" d="M31 950q0 111 98 111h594q98 0 98 -111q0 -110 -98 -110h-160v-762q0 -98 -137 -98t-137 98v762h-160q-98 0 -98 110z" />
<glyph unicode="&#x443;" horiz-adv-x="983" d="M45 924q-50 134 88 147q140 16 166 -57l203 -563l192 563q23 73 164 57q67 -6 85.5 -38t-5.5 -103l-375 -1065q-93 -264 -393 -215q-84 13 -84 127q0 61 26 90.5t87 23.5q47 -6 87.5 19.5t55.5 69.5l31 90z" />
<glyph unicode="&#x444;" horiz-adv-x="1396" d="M51 528q0 243 126 382.5t388 156.5v281q0 94 133 94t133 -94v-281q243 -15 379 -152.5t136 -386.5q0 -245 -131 -378.5t-384 -153.5v-258q0 -96 -133 -96t-133 96v258q-514 29 -514 532zM338 537q0 -152 56.5 -230t170.5 -104v655q-113 -21 -170 -96t-57 -225zM831 203 q113 26 170.5 104.5t57.5 229.5q0 149 -57.5 224.5t-170.5 96.5v-655z" />
<glyph unicode="&#x445;" horiz-adv-x="944" d="M37 37.5q-20 38.5 18 95.5l271 420l-240 385q-28 44 -18 72.5t37 42t69 16.5q35 1 64.5 1t56 -13.5t41.5 -42.5l137 -258l135 258q22 41 61 50t103 5q42 -3 69 -16.5t36.5 -42t-19.5 -72.5l-237 -385l268 -420q38 -57 18 -95.5t-92 -41.5q-40 -1 -72.5 -1t-62.5 16 t-49 50l-158 293l-160 -293q-18 -34 -48 -50t-63 -16t-73 1q-72 3 -92 41.5z" />
<glyph unicode="&#x446;" horiz-adv-x="1169" d="M133 201v782q0 98 137 98q138 0 138 -98v-721q0 -41 36 -41h267v762q0 98 137 98t137 -98v-762q86 -6 125 -49.5t39 -122.5v-194q0 -55 -30.5 -77t-86.5 -22q-57 0 -88 22t-31 77v104q0 41 -36 41h-562q-182 0 -182 201z" />
<glyph unicode="&#x447;" horiz-adv-x="1075" d="M92 664v319q0 98 137 98q138 0 138 -98v-293q0 -76 36 -111.5t111 -35.5q79 0 152 49v391q0 98 137 98q139 0 139 -98v-905q0 -98 -139 -98q-137 0 -137 98v297q-96 -36 -211 -39q-167 -5 -265 81.5t-98 246.5z" />
<glyph unicode="&#x448;" horiz-adv-x="1636" d="M133 201v782q0 98 137 98q138 0 138 -98v-721q0 -41 36 -41h236v762q0 98 137 98t137 -98v-762h238q37 0 37 41v721q0 98 137 98t137 -98v-782q0 -201 -184 -201h-1004q-182 0 -182 201z" />
<glyph unicode="&#x449;" horiz-adv-x="1687" d="M133 201v782q0 98 137 98q138 0 138 -98v-721q0 -41 36 -41h236v762q0 98 137 98t137 -98v-762h275v762q0 98 137 98t137 -98v-762q86 -6 125 -49.5t39 -122.5v-194q0 -55 -30.5 -77t-86.5 -22q-57 0 -87.5 22t-30.5 77v104q0 41 -37 41h-1080q-182 0 -182 201z" />
<glyph unicode="&#x44a;" horiz-adv-x="1107" d="M10 950q0 111 96 111h207q103 0 149 -43t46 -129v-189h225q84 0 149.5 -24t103 -60.5t61.5 -85.5t32 -92t8 -88q0 -44 -9.5 -88.5t-35 -92.5t-64 -85t-102 -60.5t-143.5 -23.5h-317q-183 0 -183 201v598q0 41 -36 41h-91q-96 0 -96 110zM508 252q0 -41 33 -41h149 q48 0 85.5 35.5t37.5 103.5q0 67 -37.5 102t-85.5 35h-182v-235z" />
<glyph unicode="&#x44b;" horiz-adv-x="1472" d="M133 201v782q0 98 137 98q138 0 138 -98v-283h202q85 0 150.5 -24t103 -60.5t61.5 -85.5t32 -92t8 -88q0 -44 -9.5 -88.5t-35.5 -92.5t-64.5 -85t-102 -60.5t-143.5 -23.5h-295q-182 0 -182 201zM408 252q0 -41 32 -41h127q48 0 85.5 35.5t37.5 103.5q0 67 -37.5 102 t-85.5 35h-159v-235zM1065 78v905q0 98 137 98t137 -98v-905q0 -98 -137 -98t-137 98z" />
<glyph unicode="&#x44c;" horiz-adv-x="1013" d="M133 201v782q0 98 137 98q138 0 138 -98v-283h231q84 0 149.5 -24t103 -60.5t61.5 -85.5t32 -92t8 -88q0 -44 -9.5 -88.5t-35 -92.5t-64 -85t-102 -60.5t-143.5 -23.5h-324q-182 0 -182 201zM408 252q0 -41 34 -41h154q48 0 85.5 35.5t37.5 103.5q0 67 -37.5 102 t-85.5 35h-188v-235z" />
<glyph unicode="&#x44d;" horiz-adv-x="1042" d="M78 233q-17 52 10.5 89t89.5 43q101 10 139 -56q32 -56 74.5 -87.5t110.5 -31.5q98 -1 147 69.5t56 176.5h-240q-98 0 -98 111q0 110 98 110h235q-7 94 -55.5 152.5t-142.5 58.5q-69 0 -108.5 -26.5t-67.5 -83.5q-22 -46 -56 -59.5t-84 -6.5q-141 15 -86 156 q39 107 139 169t263 62q469 0 469 -551q0 -548 -469 -548q-168 0 -277 67.5t-147 185.5z" />
<glyph unicode="&#x44e;" horiz-adv-x="1591" d="M133 78v905q0 98 137 98q138 0 138 -98v-313h182q30 195 143.5 303t317.5 108q469 0 469 -551q0 -548 -469 -548q-218 0 -332 121.5t-133 345.5h-178v-371q0 -98 -138 -98q-137 0 -137 98zM846 530q0 -337 205 -337q52 0 90 21t59.5 53t34.5 79.5t16.5 89.5t3.5 94 q0 53 -3.5 94.5t-16 90t-34 80.5t-60 53.5t-90.5 21.5t-91 -21.5t-60 -53.5t-34 -80t-16.5 -90.5t-3.5 -94.5z" />
<glyph unicode="&#x44f;" horiz-adv-x="1081" d="M55.5 52.5q-11.5 28.5 16.5 64.5q29 36 57 90.5t46.5 97t53 88t80.5 74.5q-94 23 -150.5 102.5t-56.5 161.5q0 43 9.5 85.5t35 87.5t64.5 79t102.5 56t143.5 22h309q182 0 182 -199v-784q0 -98 -137 -98t-137 98v317h-76q-42 0 -76 -21.5t-59.5 -61t-42 -75.5t-36.5 -86 t-30 -71q-29 -58 -68 -78.5t-110 -15.5q-43 3 -76 20.5t-44.5 46zM377 731q0 -67 35 -95t86 -28h176v201q0 41 -35 41h-141q-51 0 -86 -27t-35 -92z" />
<glyph unicode="&#x451;" d="M72 537q0 89 16 168t52 150t90 122t135 80.5t182 29.5q208 0 325 -120t115 -318q-1 -100 -45 -138t-141 -38h-453q2 -56 12 -101.5t32.5 -87t65.5 -65t103 -22.5q61 0 97.5 26t66.5 82q30 59 149 47q61 -7 79 -39.5t5 -70.5q-39 -129 -146.5 -200t-256.5 -71 q-123 1 -218 47t-151 125.5t-84.5 178.5t-29.5 215zM244 1313q0 63 29.5 96t99.5 33q69 0 98 -33.5t29 -95.5q0 -64 -28 -97.5t-99 -33.5t-100 34t-29 97zM356 664h336q17 0 27.5 11t9.5 34q-6 80 -52 124t-118 44q-87 0 -139.5 -57t-63.5 -156zM590 1313q0 62 29 95.5 t98 33.5q70 0 98.5 -33t28.5 -96q0 -64 -28 -97.5t-99 -33.5t-99 33.5t-28 97.5z" />
<glyph unicode="&#x452;" horiz-adv-x="1173" d="M0 1243q0 80 57 80h95v20q0 101 139 101q58 0 97.5 -23t39.5 -78v-20h182q58 0 58 -80q0 -84 -58 -84h-182v-182q122 119 289 119q166 0 255 -90t89 -275v-854q0 -73 -25 -129.5t-66.5 -88t-89 -47.5t-98.5 -18q-104 0 -149 35.5t-43 91.5q3 28 25.5 48t52.5 20 q72 -3 94 19t22 86v778q0 34 -4 60.5t-15 55t-36 44.5t-63 16q-69 0 -118 -28t-74 -76t-35.5 -99t-10.5 -110v-459q0 -52 -39.5 -74t-97.5 -22q-139 0 -139 96v1083h-95q-57 0 -57 84z" />
<glyph unicode="&#x453;" horiz-adv-x="825" d="M133 76v784q0 94 40.5 147.5t139.5 53.5h383q51 0 75 -32t24 -77q0 -49 -23.5 -80.5t-75.5 -31.5h-254q-20 0 -27 -10t-7 -31v-723q0 -52 -40 -74t-98 -22q-137 0 -137 96zM389 1249l68 156q18 35 43.5 48t68.5 13q55 0 82 -6q51 -9 57 -41.5t-32 -70.5l-115 -140 q-27 -28 -54.5 -37t-66.5 -2q-80 16 -51 80z" />
<glyph unicode="&#x454;" horiz-adv-x="1042" d="M72 528q0 553 469 553q162 0 262 -62.5t141 -170.5q51 -141 -88 -156q-48 -7 -82.5 6.5t-56.5 59.5q-26 56 -66.5 83t-109.5 27q-94 0 -143 -58.5t-56 -152.5h236q98 0 98 -110q0 -111 -98 -111h-240q7 -106 56 -176.5t147 -69.5q68 0 110 31t76 88q37 66 137 56 q62 -6 90 -43t11 -89q-38 -118 -147 -185.5t-277 -67.5q-469 0 -469 548z" />
<glyph unicode="&#x455;" horiz-adv-x="972" d="M78 762q0 103 60 179.5t149.5 112.5t191.5 36q140 0 243 -56t144 -174q18 -54 -2.5 -81.5t-79.5 -35.5q-116 -15 -163 52q-56 82 -144 82q-65 0 -104 -23t-39 -70q0 -21 10 -38t30.5 -29t37.5 -20t47 -15t41.5 -9.5t36.5 -6.5q69 -13 120.5 -28t104 -41t85.5 -60.5 t54 -86.5t21 -118q0 -114 -59 -197.5t-150 -122.5t-201 -39q-149 0 -261 59.5t-165 188.5q-26 55 -5 97.5t89 54.5q108 15 145 -64q59 -116 195 -116q56 0 101 29t48 83q0 56 -50 81.5t-177 51.5q-59 12 -105 27t-95 41t-81 59t-52.5 83.5t-20.5 113.5z" />
<glyph unicode="&#x456;" horiz-adv-x="565" d="M133 1313q0 67 33 101t117 34q83 0 116 -34.5t33 -100.5q0 -69 -31.5 -106.5t-117.5 -37.5q-88 0 -119 37.5t-31 106.5zM145 80v903q0 98 138 98q137 0 137 -98v-903q0 -98 -137 -98q-138 0 -138 98z" />
<glyph unicode="&#x457;" horiz-adv-x="587" d="M10 1321q0 59 27.5 90t93.5 31t93.5 -31t27.5 -90q0 -60 -27 -92.5t-94 -32.5t-94 32.5t-27 92.5zM158 78v905q0 98 137 98t137 -98v-905q0 -98 -137 -98t-137 98zM338 1321q0 59 27.5 90t93.5 31q64 0 91.5 -31t27.5 -90q0 -61 -26.5 -93t-92.5 -32q-68 0 -94.5 32 t-26.5 93z" />
<glyph unicode="&#x458;" horiz-adv-x="573" d="M-72 -215q0 61 30.5 89t96.5 28q99 0 99 121v960q0 98 137 98t137 -98v-1016q0 -174 -109.5 -258t-291.5 -65q-52 6 -75.5 45t-23.5 96zM141 1313q0 67 33 101t117 34t116.5 -34t32.5 -101q0 -69 -30.5 -106.5t-118.5 -37.5q-87 0 -118.5 37.5t-31.5 106.5z" />
<glyph unicode="&#x459;" horiz-adv-x="1583" d="M23 88q-6 55 15 86.5t56 36.5q29 3 54 27t32 67q16 96 27 320t12 235q7 94 50.5 147.5t142.5 53.5h381q186 0 186 -201v-160h231q84 0 149 -24t102.5 -60.5t61.5 -85.5t32 -93t8 -89q0 -43 -10 -87.5t-35.5 -92t-64 -84.5t-101.5 -60.5t-142 -23.5h-325q-183 0 -183 201 v598q0 41 -36 41h-156q-37 0 -37 -41q-6 -52 -15 -214.5t-20 -246.5t-29.5 -145t-52 -112t-88.5 -77.5t-131 -26.5q-60 0 -86 26t-28 85zM979 252q0 -41 33 -41h151q51 0 87 35t36 102q0 68 -36.5 103.5t-86.5 35.5h-184v-235z" />
<glyph unicode="&#x45a;" horiz-adv-x="1622" d="M133 76v909q0 52 39.5 74t97.5 22q138 0 138 -96v-291h333v291q0 96 138 96q139 0 139 -96v-291h231q85 0 150 -23.5t102.5 -59t61 -84t31.5 -91.5t8 -88q0 -43 -9.5 -87.5t-35 -92.5t-63.5 -84.5t-101.5 -60t-143.5 -23.5h-323q-185 0 -185 201v280h-333v-405 q0 -96 -138 -96q-58 0 -97.5 22t-39.5 74zM1018 252q0 -21 7.5 -31t27.5 -10h153q47 0 84 35t37 102q0 66 -36.5 99.5t-84.5 33.5h-188v-229z" />
<glyph unicode="&#x45b;" horiz-adv-x="1193" d="M20 1243q0 80 60 80h90v20q0 101 139 101q137 0 137 -101v-20h183q63 0 63 -80q0 -84 -63 -84h-183v-182q127 119 289 119q167 0 256.5 -90t89.5 -275v-655q0 -96 -141 -96q-58 0 -97.5 22t-39.5 74v596q0 35 -3.5 60.5t-14.5 54.5t-36.5 45t-64.5 16q-54 0 -96.5 -19 t-68.5 -49.5t-43 -72.5t-23.5 -84t-6.5 -88v-459q0 -96 -137 -96q-139 0 -139 96v1083h-90q-60 0 -60 84z" />
<glyph unicode="&#x45c;" horiz-adv-x="1046" d="M133 76v909q0 96 137 96q136 0 136 -96v-297q45 8 79.5 27.5t62 52.5t45.5 61t46 77.5t47 78.5q35 54 81.5 78t115.5 18q43 -2 74 -16.5t41 -40.5t-17 -63q-26 -36 -65.5 -103t-68 -114.5t-70.5 -93t-85 -62.5q62 -17 106.5 -56.5t71 -96.5t44.5 -111.5t39 -124 t40 -111.5q46 -97 -90 -111q-156 -11 -192 111q-50 167 -61 195q-42 109 -110 144q-52 27 -134 24v-375q0 -96 -136 -96q-137 0 -137 96zM449 1245l69 156q18 36 45 50.5t68 12.5q57 0 80 -8q53 -9 60 -40.5t-30 -72.5l-120 -139q-49 -52 -115 -39q-34 6 -53.5 25t-3.5 55z " />
<glyph unicode="&#x45e;" horiz-adv-x="983" d="M45 924q-50 134 88 147q140 16 166 -57l203 -563l192 563q23 73 164 57q67 -6 85.5 -38t-5.5 -103l-375 -1065q-93 -264 -393 -215q-84 13 -84 127q0 61 26 90.5t87 23.5q47 -6 87.5 19.5t55.5 69.5l31 90zM210 1362.5q8 26.5 32 46.5q25 20 57.5 23t54.5 -17 q68 -76 164 -76q98 0 166 76q22 20 55 17t58 -23q23 -20 30.5 -46.5t-4.5 -49.5q-31 -65 -117.5 -113.5t-187.5 -48.5q-100 0 -186.5 48.5t-118.5 113.5q-11 23 -3 49.5z" />
<glyph unicode="&#x45f;" horiz-adv-x="1144" d="M133 201v784q0 96 139 96q138 0 138 -96v-723q0 -41 34 -41h256q37 0 37 41v723q0 96 137 96q138 0 138 -96v-784q0 -201 -185 -201h-129v-195q0 -88 -127 -88q-122 0 -122 88v195h-132q-184 0 -184 201z" />
<glyph unicode="&#x490;" horiz-adv-x="980" d="M133 76v1177q0 57 16 94.5t47 55.5t63.5 24.5t76.5 6.5h358q31 0 43.5 14t12.5 49v262q0 78 104 78q107 0 107 -78v-375q0 -105 -54.5 -150.5t-154.5 -45.5h-312q-19 0 -26.5 -8t-7.5 -27v-1077q0 -50 -39.5 -71t-98.5 -21q-135 0 -135 92z" />
<glyph unicode="&#x491;" horiz-adv-x="886" d="M133 76v784q0 201 182 201h308q20 0 29.5 8.5t9.5 36.5v276q0 66 98 66q36 0 66 -16t30 -50v-350q0 -112 -47 -152t-139 -40h-228q-36 0 -36 -41v-723q0 -96 -136 -96q-137 0 -137 96z" />
<glyph unicode="&#x2000;" horiz-adv-x="918" />
<glyph unicode="&#x2001;" horiz-adv-x="1837" />
<glyph unicode="&#x2002;" horiz-adv-x="918" />
<glyph unicode="&#x2003;" horiz-adv-x="1837" />
<glyph unicode="&#x2004;" horiz-adv-x="612" />
<glyph unicode="&#x2005;" horiz-adv-x="459" />
<glyph unicode="&#x2006;" horiz-adv-x="306" />
<glyph unicode="&#x2007;" horiz-adv-x="306" />
<glyph unicode="&#x2008;" horiz-adv-x="229" />
<glyph unicode="&#x2009;" horiz-adv-x="367" />
<glyph unicode="&#x200a;" horiz-adv-x="102" />
<glyph unicode="&#x2010;" horiz-adv-x="716" d="M72 535q0 114 78 114h415q42 0 61 -32.5t19 -81.5q0 -113 -80 -113h-415q-42 0 -60 32.5t-18 80.5z" />
<glyph unicode="&#x2011;" horiz-adv-x="716" d="M72 535q0 114 78 114h415q42 0 61 -32.5t19 -81.5q0 -113 -80 -113h-415q-42 0 -60 32.5t-18 80.5z" />
<glyph unicode="&#x2012;" horiz-adv-x="716" d="M72 535q0 114 78 114h415q42 0 61 -32.5t19 -81.5q0 -113 -80 -113h-415q-42 0 -60 32.5t-18 80.5z" />
<glyph unicode="&#x2013;" horiz-adv-x="1163" d="M72 668q0 112 80 112h860q42 0 61 -32t19 -80q0 -113 -80 -113h-860q-80 0 -80 113z" />
<glyph unicode="&#x2014;" horiz-adv-x="1757" d="M72 528q0 107 71 107h1469q74 0 74 -107q0 -104 -74 -104h-1469q-71 0 -71 104z" />
<glyph unicode="&#x2018;" horiz-adv-x="501" d="M114.5 969q0.5 31 14.5 65l133 332q18 42 46 60.5t75 17.5q49 -3 70.5 -31t15.5 -74l-55 -372q-20 -126 -168 -117q-47 3 -77.5 19.5t-42.5 42.5t-11.5 57z" />
<glyph unicode="&#x2019;" horiz-adv-x="501" d="M115 954l55 373q20 126 168 117q47 -3 77.5 -19.5t42.5 -42.5t11.5 -57t-14.5 -65l-133 -332q-18 -42 -46 -60.5t-75 -17.5q-50 3 -71 30.5t-15 73.5z" />
<glyph unicode="&#x201a;" horiz-adv-x="563" d="M115 -201l57 373q17 126 168 117q46 -3 76.5 -20t42.5 -43t11 -57t-15 -65l-133 -331q-18 -43 -45.5 -62t-73.5 -16q-50 3 -72 30.5t-16 73.5z" />
<glyph unicode="&#x201c;" horiz-adv-x="796" d="M33 1039.5q-2 39.5 14 86.5l133 330q18 42 46.5 61.5t74.5 16.5q50 -3 71 -30.5t15 -73.5l-55 -373q-20 -124 -168 -115q-62 3 -95.5 30.5t-35.5 67zM410 1039.5q-2 39.5 14 86.5l133 330q18 42 46.5 61.5t74.5 16.5q50 -3 71 -30.5t15 -73.5l-55 -373 q-20 -124 -168 -115q-62 3 -95.5 30.5t-35.5 67z" />
<glyph unicode="&#x201d;" horiz-adv-x="796" d="M74 954l57 373q17 126 168 117q46 -3 76.5 -19.5t42.5 -42.5t11 -57t-15 -65l-133 -332q-29 -81 -119 -78q-50 3 -72 30.5t-16 73.5zM451 954l57 373q17 126 168 117q61 -4 94 -32t35 -67t-14 -85l-134 -332q-18 -42 -45 -60.5t-73 -17.5q-101 6 -88 104z" />
<glyph unicode="&#x201e;" horiz-adv-x="940" d="M115 -201l57 373q17 126 168 117q46 -3 76.5 -20t42.5 -43t11 -57t-15 -65l-133 -331q-29 -81 -119 -78q-50 3 -72 30.5t-16 73.5zM492 -201l57 373q17 126 168 117q46 -3 76 -20t42 -43t11 -57t-15 -65l-133 -331q-18 -42 -45 -60.5t-73 -17.5q-101 6 -88 104z" />
<glyph unicode="&#x2022;" horiz-adv-x="909" d="M133 727q0 133 94.5 227.5t227.5 94.5t227 -94t94 -228q0 -132 -94 -226.5t-227 -94.5t-227.5 94.5t-94.5 226.5z" />
<glyph unicode="&#x2026;" horiz-adv-x="1802" d="M133 143q0 78 34.5 117t123.5 39t120 -38t31 -118q0 -79 -31 -119t-120 -40q-92 0 -125 39t-33 120zM745 143q0 78 34.5 117t123.5 39q87 0 120.5 -39t33.5 -117t-32.5 -118.5t-121.5 -40.5q-92 0 -125 39t-33 120zM1358 143q0 78 33 117t120 39q91 0 124.5 -38.5 t33.5 -117.5q0 -78 -34 -118.5t-124 -40.5q-92 0 -122.5 38.5t-30.5 120.5z" />
<glyph unicode="&#x202f;" horiz-adv-x="367" />
<glyph unicode="&#x2039;" horiz-adv-x="581" d="M43 517q0 34 23 63l251 346q42 59 119 53q51 -8 72.5 -37.5t-2.5 -75.5l-195 -327q-15 -24 0 -45l195 -328q25 -46 2.5 -76t-72.5 -35q-75 -8 -119 56l-251 344q-23 28 -23 62z" />
<glyph unicode="&#x203a;" horiz-adv-x="583" d="M74.5 941.5q21.5 29.5 72.5 37.5q78 6 121 -53l252 -346q22 -29 22 -63t-22 -62l-252 -344q-45 -65 -121 -56q-50 5 -72 35t1 76l194 328q11 27 0 45l-194 327q-23 46 -1.5 75.5z" />
<glyph unicode="&#x205f;" horiz-adv-x="459" />
<glyph unicode="&#x20ac;" horiz-adv-x="1415" d="M16 571q24 105 97 105h155v63h-110q-40 0 -51 30t-1 75q8 43 32.5 72.5t64.5 29.5h82q19 115 58.5 203t105 153.5t163.5 99.5t226 34q252 0 383.5 -122.5t140.5 -338.5q1 -46 -38 -70t-97 -24q-69 -2 -104 13.5t-42 66.5q-18 117 -74 176t-169 59q-210 0 -269 -250h303 q72 0 52 -102q-24 -105 -97 -105h-280v-63h235q72 0 52 -105q-24 -102 -97 -102h-170q53 -270 271 -270q102 0 159 59.5t78 153.5q13 55 49.5 79.5t104.5 22.5q75 -2 108.5 -29.5t24.5 -89.5q-13 -86 -50 -162t-99 -139t-158.5 -100t-216.5 -37q-257 0 -389 132.5 t-166 379.5h-215q-72 0 -52 102z" />
<glyph unicode="&#x2122;" horiz-adv-x="1718" d="M41 1350q0 38 22 61t62 23h487q44 0 66 -22.5t22 -61.5q0 -35 -23.5 -59.5t-64.5 -24.5h-157v-535q0 -41 -26.5 -61.5t-70.5 -20.5q-40 0 -69 22.5t-29 59.5v535h-135q-37 0 -60.5 24.5t-23.5 59.5zM750 727v623q0 45 27.5 69.5t72.5 24.5q93 0 119 -70l198 -493l199 493 q26 70 121 70q47 0 72.5 -24t25.5 -70v-623q0 -36 -26 -59t-64 -23q-43 0 -69.5 21.5t-26.5 60.5v295l-121 -301q-24 -70 -111 -76q-38 0 -68 21t-44 55l-119 297v-291q0 -38 -26 -60t-66 -22q-39 0 -66.5 23t-27.5 59z" />
<glyph unicode="&#x25fc;" horiz-adv-x="1075" d="M0 0v1075h1075v-1075h-1075z" />
</font>
</defs>
</svg>
